<ttFont>
<head>
    <!-- Most of this table will be recalculated by the compiler -->
    <tableVersion value="1.0"/>
    <fontRevision value="1.0"/>
    <checkSumAdjustment value="0x54c86e28"/>
    <magicNumber value="0x5f0f3cf5"/>
    <flags value="00000000 00000011"/>
    <unitsPerEm value="1000"/>
    <created value="Mon May 14 21:43:46 2018"/>
    <modified value="Sat Sep 22 16:17:35 2018"/>
    <xMin value="18"/>
    <yMin value="-120"/>
    <xMax value="977"/>
    <yMax value="880"/>
    <macStyle value="00000000 00000000"/>
    <lowestRecPPEM value="3"/>
    <fontDirectionHint value="2"/>
    <indexToLocFormat value="0"/>
    <glyphDataFormat value="0"/>
  </head>
    <TTGlyph name=".notdef" xMin="100" yMin="-120" xMax="900" yMax="880">
      <contour>
        <pt x="100" y="-120" on="1"/>
        <pt x="100" y="880" on="1"/>
        <pt x="900" y="880" on="1"/>
        <pt x="900" y="-120" on="1"/>
      </contour>
      <contour>
        <pt x="500" y="421" on="1"/>
        <pt x="818" y="830" on="1"/>
        <pt x="182" y="830" on="1"/>
      </contour>
      <contour>
        <pt x="532" y="380" on="1"/>
        <pt x="850" y="-29" on="1"/>
        <pt x="850" y="789" on="1"/>
      </contour>
      <contour>
        <pt x="182" y="-70" on="1"/>
        <pt x="818" y="-70" on="1"/>
        <pt x="500" y="339" on="1"/>
      </contour>
      <contour>
        <pt x="150" y="789" on="1"/>
        <pt x="150" y="-29" on="1"/>
        <pt x="468" y="380" on="1"/>
      </contour>
    </TTGlyph>
    <TTGlyph name="cid01125" xMin="52" yMin="-36" xMax="949" yMax="773">
      <contour>
        <pt x="415" y="211" on="1"/>
        <pt x="415" y="32" on="1"/>
        <pt x="571" y="32" on="1"/>
        <pt x="571" y="211" on="1"/>
      </contour>
      <contour>
        <pt x="194" y="278" on="1"/>
        <pt x="342" y="278" on="1"/>
        <pt x="342" y="499" on="1"/>
        <pt x="194" y="499" on="1"/>
      </contour>
      <contour>
        <pt x="415" y="705" on="1"/>
        <pt x="415" y="566" on="1"/>
        <pt x="571" y="566" on="1"/>
        <pt x="571" y="705" on="1"/>
      </contour>
      <contour>
        <pt x="571" y="278" on="1"/>
        <pt x="571" y="499" on="1"/>
        <pt x="415" y="499" on="1"/>
        <pt x="415" y="278" on="1"/>
      </contour>
      <contour>
        <pt x="798" y="499" on="1"/>
        <pt x="642" y="499" on="1"/>
        <pt x="642" y="278" on="1"/>
        <pt x="798" y="278" on="1"/>
      </contour>
      <contour>
        <pt x="642" y="32" on="1"/>
        <pt x="949" y="32" on="1"/>
        <pt x="949" y="-36" on="1"/>
        <pt x="52" y="-36" on="1"/>
        <pt x="52" y="32" on="1"/>
        <pt x="342" y="32" on="1"/>
        <pt x="342" y="211" on="1"/>
        <pt x="194" y="211" on="1"/>
        <pt x="194" y="175" on="1"/>
        <pt x="124" y="175" on="1"/>
        <pt x="124" y="566" on="1"/>
        <pt x="342" y="566" on="1"/>
        <pt x="342" y="705" on="1"/>
        <pt x="81" y="705" on="1"/>
        <pt x="81" y="773" on="1"/>
        <pt x="920" y="773" on="1"/>
        <pt x="920" y="705" on="1"/>
        <pt x="642" y="705" on="1"/>
        <pt x="642" y="566" on="1"/>
        <pt x="871" y="566" on="1"/>
        <pt x="871" y="178" on="1"/>
        <pt x="798" y="178" on="1"/>
        <pt x="798" y="211" on="1"/>
        <pt x="642" y="211" on="1"/>
      </contour>
    </TTGlyph>
    <TTGlyph name="cid01126" xMin="78" yMin="-43" xMax="958" yMax="771">
      <contour>
        <pt x="262" y="665" on="1"/>
        <pt x="140" y="665" on="1"/>
        <pt x="140" y="269" on="1"/>
        <pt x="262" y="269" on="1"/>
      </contour>
      <contour>
        <pt x="325" y="201" on="1"/>
        <pt x="140" y="201" on="1"/>
        <pt x="140" y="115" on="1"/>
        <pt x="78" y="115" on="1"/>
        <pt x="78" y="732" on="1"/>
        <pt x="325" y="732" on="1"/>
      </contour>
      <contour>
        <pt x="590" y="186" on="1"/>
        <pt x="590" y="26" on="1"/>
        <pt x="692" y="26" on="1"/>
        <pt x="692" y="186" on="1"/>
      </contour>
      <contour>
        <pt x="435" y="508" on="1"/>
        <pt x="435" y="250" on="1"/>
        <pt x="531" y="250" on="1"/>
        <pt x="531" y="508" on="1"/>
      </contour>
      <contour>
        <pt x="590" y="704" on="1"/>
        <pt x="590" y="571" on="1"/>
        <pt x="692" y="571" on="1"/>
        <pt x="692" y="704" on="1"/>
      </contour>
      <contour>
        <pt x="853" y="250" on="1"/>
        <pt x="853" y="508" on="1"/>
        <pt x="752" y="508" on="1"/>
        <pt x="752" y="250" on="1"/>
      </contour>
      <contour>
        <pt x="692" y="508" on="1"/>
        <pt x="590" y="508" on="1"/>
        <pt x="590" y="250" on="1"/>
        <pt x="692" y="250" on="1"/>
      </contour>
      <contour>
        <pt x="760" y="26" on="1"/>
        <pt x="958" y="26" on="1"/>
        <pt x="958" y="-43" on="1"/>
        <pt x="299" y="-43" on="1"/>
        <pt x="299" y="26" on="1"/>
        <pt x="524" y="26" on="1"/>
        <pt x="524" y="186" on="1"/>
        <pt x="371" y="186" on="1"/>
        <pt x="371" y="571" on="1"/>
        <pt x="524" y="571" on="1"/>
        <pt x="524" y="704" on="1"/>
        <pt x="345" y="704" on="1"/>
        <pt x="345" y="771" on="1"/>
        <pt x="945" y="771" on="1"/>
        <pt x="945" y="704" on="1"/>
        <pt x="760" y="704" on="1"/>
        <pt x="760" y="571" on="1"/>
        <pt x="920" y="571" on="1"/>
        <pt x="920" y="186" on="1"/>
        <pt x="760" y="186" on="1"/>
      </contour>
    </TTGlyph>
    <TTGlyph name="cid01127" xMin="47" yMin="-78" xMax="960" yMax="836">
      <contour>
        <pt x="946" y="479" on="1"/>
        <pt x="946" y="412" on="1"/>
        <pt x="425" y="412" on="1"/>
        <pt x="425" y="479" on="1"/>
        <pt x="648" y="479" on="1"/>
        <pt x="648" y="634" on="1"/>
        <pt x="466" y="634" on="1"/>
        <pt x="466" y="702" on="1"/>
        <pt x="648" y="702" on="1"/>
        <pt x="648" y="836" on="1"/>
        <pt x="721" y="836" on="1"/>
        <pt x="721" y="702" on="1"/>
        <pt x="902" y="702" on="1"/>
        <pt x="902" y="634" on="1"/>
        <pt x="721" y="634" on="1"/>
        <pt x="721" y="479" on="1"/>
      </contour>
      <contour>
        <pt x="344" y="563" on="1"/>
        <pt x="212" y="563" on="1"/>
        <pt x="197" y="496" on="0"/>
        <pt x="166" y="365" on="0"/>
        <pt x="151" y="306" on="1"/>
        <pt x="180" y="290" on="0"/>
        <pt x="239" y="252" on="0"/>
        <pt x="267" y="232" on="1"/>
        <pt x="296" y="300" on="0"/>
        <pt x="334" y="465" on="0"/>
      </contour>
      <contour>
        <pt x="440" y="82" on="1"/>
        <pt x="395" y="23" on="1"/>
        <pt x="377" y="46" on="0"/>
        <pt x="325" y="97" on="0"/>
        <pt x="293" y="123" on="1"/>
        <pt x="256" y="56" on="0"/>
        <pt x="160" y="-43" on="0"/>
        <pt x="101" y="-78" on="1"/>
        <pt x="94" y="-64" on="0"/>
        <pt x="67" y="-29" on="0"/>
        <pt x="55" y="-18" on="1"/>
        <pt x="166" y="40" on="0"/>
        <pt x="236" y="168" on="1"/>
        <pt x="187" y="205" on="0"/>
        <pt x="133" y="239" on="1"/>
        <pt x="122" y="197" on="1"/>
        <pt x="60" y="229" on="1"/>
        <pt x="78" y="294" on="0"/>
        <pt x="121" y="469" on="0"/>
        <pt x="142" y="563" on="1"/>
        <pt x="47" y="563" on="1"/>
        <pt x="47" y="631" on="1"/>
        <pt x="156" y="631" on="1"/>
        <pt x="168" y="685" on="0"/>
        <pt x="189" y="790" on="0"/>
        <pt x="197" y="836" on="1"/>
        <pt x="268" y="828" on="1"/>
        <pt x="259" y="782" on="0"/>
        <pt x="238" y="683" on="0"/>
        <pt x="227" y="631" on="1"/>
        <pt x="362" y="631" on="1"/>
        <pt x="375" y="634" on="1"/>
        <pt x="419" y="624" on="1"/>
        <pt x="409" y="488" on="0"/>
        <pt x="363" y="272" on="0"/>
        <pt x="326" y="188" on="1"/>
        <pt x="399" y="132" on="0"/>
      </contour>
      <contour>
        <pt x="721" y="15" on="1"/>
        <pt x="960" y="15" on="1"/>
        <pt x="960" y="-52" on="1"/>
        <pt x="391" y="-52" on="1"/>
        <pt x="391" y="15" on="1"/>
        <pt x="648" y="15" on="1"/>
        <pt x="648" y="191" on="1"/>
        <pt x="443" y="191" on="1"/>
        <pt x="443" y="259" on="1"/>
        <pt x="648" y="259" on="1"/>
        <pt x="648" y="388" on="1"/>
        <pt x="721" y="388" on="1"/>
        <pt x="721" y="259" on="1"/>
        <pt x="929" y="259" on="1"/>
        <pt x="929" y="191" on="1"/>
        <pt x="721" y="191" on="1"/>
      </contour>
    </TTGlyph>
    <TTGlyph name="cid01128" xMin="84" yMin="-77" xMax="960" yMax="797">
      <contour>
        <pt x="321" y="797" on="1"/>
        <pt x="369" y="768" on="1"/>
        <pt x="347" y="707" on="0"/>
        <pt x="296" y="569" on="0"/>
        <pt x="270" y="510" on="1"/>
        <pt x="324" y="448" on="0"/>
        <pt x="360" y="340" on="0"/>
        <pt x="360" y="293" on="1"/>
        <pt x="360" y="253" on="0"/>
        <pt x="341" y="191" on="0"/>
        <pt x="320" y="177" on="1"/>
        <pt x="310" y="169" on="0"/>
        <pt x="283" y="160" on="0"/>
        <pt x="269" y="158" on="1"/>
        <pt x="254" y="156" on="0"/>
        <pt x="218" y="155" on="0"/>
        <pt x="202" y="156" on="1"/>
        <pt x="201" y="170" on="0"/>
        <pt x="191" y="208" on="0"/>
        <pt x="183" y="222" on="1"/>
        <pt x="200" y="221" on="0"/>
        <pt x="229" y="220" on="0"/>
        <pt x="241" y="221" on="1"/>
        <pt x="250" y="222" on="0"/>
        <pt x="266" y="226" on="0"/>
        <pt x="272" y="230" on="1"/>
        <pt x="283" y="238" on="0"/>
        <pt x="293" y="277" on="0"/>
        <pt x="293" y="300" on="1"/>
        <pt x="293" y="341" on="0"/>
        <pt x="257" y="442" on="0"/>
        <pt x="203" y="502" on="1"/>
        <pt x="225" y="556" on="0"/>
        <pt x="267" y="677" on="0"/>
        <pt x="282" y="726" on="1"/>
        <pt x="150" y="726" on="1"/>
        <pt x="150" y="-77" on="1"/>
        <pt x="84" y="-77" on="1"/>
        <pt x="84" y="794" on="1"/>
        <pt x="310" y="794" on="1"/>
      </contour>
      <contour>
        <pt x="630" y="494" on="1"/>
        <pt x="480" y="494" on="1"/>
        <pt x="480" y="263" on="1"/>
        <pt x="630" y="263" on="1"/>
      </contour>
      <contour>
        <pt x="697" y="198" on="1"/>
        <pt x="480" y="198" on="1"/>
        <pt x="480" y="122" on="1"/>
        <pt x="416" y="122" on="1"/>
        <pt x="416" y="559" on="1"/>
        <pt x="697" y="559" on="1"/>
      </contour>
      <contour>
        <pt x="960" y="768" on="1"/>
        <pt x="960" y="699" on="1"/>
        <pt x="874" y="699" on="1"/>
        <pt x="874" y="17" on="1"/>
        <pt x="874" y="-22" on="0"/>
        <pt x="851" y="-57" on="0"/>
        <pt x="825" y="-65" on="1"/>
        <pt x="798" y="-74" on="0"/>
        <pt x="703" y="-77" on="0"/>
        <pt x="626" y="-76" on="1"/>
        <pt x="623" y="-62" on="0"/>
        <pt x="609" y="-24" on="0"/>
        <pt x="601" y="-9" on="1"/>
        <pt x="660" y="-10" on="0"/>
        <pt x="759" y="-11" on="0"/>
        <pt x="775" y="-10" on="1"/>
        <pt x="791" y="-9" on="0"/>
        <pt x="804" y="2" on="0"/>
        <pt x="804" y="17" on="1"/>
        <pt x="804" y="699" on="1"/>
        <pt x="382" y="699" on="1"/>
        <pt x="382" y="768" on="1"/>
      </contour>
    </TTGlyph>
    <TTGlyph name="cid01129" xMin="41" yMin="-80" xMax="960" yMax="837">
      <contour>
        <pt x="927" y="726" on="1"/>
        <pt x="927" y="659" on="1"/>
        <pt x="76" y="659" on="1"/>
        <pt x="76" y="726" on="1"/>
        <pt x="462" y="726" on="1"/>
        <pt x="462" y="837" on="1"/>
        <pt x="534" y="837" on="1"/>
        <pt x="534" y="726" on="1"/>
      </contour>
      <contour>
        <pt x="264" y="517" on="1"/>
        <pt x="264" y="375" on="1"/>
        <pt x="730" y="375" on="1"/>
        <pt x="730" y="517" on="1"/>
      </contour>
      <contour>
        <pt x="849" y="316" on="1"/>
        <pt x="911" y="271" on="1"/>
        <pt x="859" y="234" on="0"/>
        <pt x="735" y="158" on="0"/>
        <pt x="681" y="130" on="1"/>
        <pt x="734" y="78" on="0"/>
        <pt x="874" y="3" on="0"/>
        <pt x="960" y="-17" on="1"/>
        <pt x="948" y="-29" on="0"/>
        <pt x="921" y="-66" on="0"/>
        <pt x="914" y="-80" on="1"/>
        <pt x="760" y="-38" on="0"/>
        <pt x="553" y="152" on="0"/>
        <pt x="496" y="294" on="1"/>
        <pt x="466" y="268" on="0"/>
        <pt x="394" y="219" on="0"/>
        <pt x="354" y="197" on="1"/>
        <pt x="354" y="21" on="1"/>
        <pt x="411" y="30" on="0"/>
        <pt x="533" y="50" on="0"/>
        <pt x="594" y="60" on="1"/>
        <pt x="598" y="-5" on="1"/>
        <pt x="523" y="-18" on="0"/>
        <pt x="372" y="-44" on="0"/>
        <pt x="235" y="-67" on="0"/>
        <pt x="180" y="-76" on="1"/>
        <pt x="165" y="-8" on="1"/>
        <pt x="191" y="-4" on="0"/>
        <pt x="249" y="5" on="0"/>
        <pt x="281" y="9" on="1"/>
        <pt x="281" y="160" on="1"/>
        <pt x="233" y="138" on="0"/>
        <pt x="134" y="102" on="0"/>
        <pt x="87" y="89" on="1"/>
        <pt x="80" y="102" on="0"/>
        <pt x="53" y="137" on="0"/>
        <pt x="41" y="147" on="1"/>
        <pt x="107" y="162" on="0"/>
        <pt x="243" y="211" on="0"/>
        <pt x="368" y="274" on="0"/>
        <pt x="416" y="310" on="1"/>
        <pt x="192" y="310" on="1"/>
        <pt x="192" y="581" on="1"/>
        <pt x="806" y="581" on="1"/>
        <pt x="806" y="310" on="1"/>
        <pt x="561" y="310" on="1"/>
        <pt x="593" y="234" on="0"/>
        <pt x="642" y="172" on="1"/>
        <pt x="677" y="192" on="0"/>
        <pt x="753" y="242" on="0"/>
        <pt x="823" y="294" on="0"/>
      </contour>
    </TTGlyph>
    <TTGlyph name="cid01130" xMin="57" yMin="-78" xMax="948" yMax="837">
      <contour>
        <pt x="421" y="730" on="1"/>
        <pt x="433" y="734" on="1"/>
        <pt x="393" y="732" on="0"/>
        <pt x="312" y="727" on="0"/>
        <pt x="272" y="725" on="1"/>
        <pt x="293" y="700" on="0"/>
        <pt x="328" y="642" on="0"/>
        <pt x="335" y="619" on="1"/>
        <pt x="302" y="605" on="1"/>
        <pt x="479" y="605" on="1"/>
        <pt x="474" y="631" on="0"/>
        <pt x="441" y="701" on="0"/>
      </contour>
      <contour>
        <pt x="152" y="545" on="1"/>
        <pt x="152" y="432" on="1"/>
        <pt x="83" y="432" on="1"/>
        <pt x="83" y="605" on="1"/>
        <pt x="267" y="605" on="1"/>
        <pt x="258" y="629" on="0"/>
        <pt x="222" y="688" on="0"/>
        <pt x="203" y="712" on="1"/>
        <pt x="232" y="724" on="1"/>
        <pt x="206" y="723" on="0"/>
        <pt x="155" y="721" on="0"/>
        <pt x="130" y="720" on="1"/>
        <pt x="129" y="733" on="0"/>
        <pt x="119" y="767" on="0"/>
        <pt x="114" y="777" on="1"/>
        <pt x="206" y="780" on="0"/>
        <pt x="402" y="790" on="0"/>
        <pt x="592" y="805" on="0"/>
        <pt x="758" y="825" on="0"/>
        <pt x="818" y="837" on="1"/>
        <pt x="867" y="785" on="1"/>
        <pt x="791" y="770" on="0"/>
        <pt x="596" y="747" on="0"/>
        <pt x="490" y="739" on="1"/>
        <pt x="509" y="711" on="0"/>
        <pt x="538" y="650" on="0"/>
        <pt x="544" y="627" on="1"/>
        <pt x="482" y="605" on="1"/>
        <pt x="662" y="605" on="1"/>
        <pt x="685" y="636" on="0"/>
        <pt x="738" y="720" on="0"/>
        <pt x="754" y="752" on="1"/>
        <pt x="824" y="725" on="1"/>
        <pt x="804" y="694" on="0"/>
        <pt x="759" y="632" on="0"/>
        <pt x="737" y="605" on="1"/>
        <pt x="917" y="605" on="1"/>
        <pt x="917" y="425" on="1"/>
        <pt x="845" y="425" on="1"/>
        <pt x="845" y="545" on="1"/>
        <pt x="466" y="545" on="1"/>
        <pt x="501" y="529" on="0"/>
        <pt x="573" y="489" on="0"/>
        <pt x="594" y="471" on="1"/>
        <pt x="555" y="426" on="1"/>
        <pt x="532" y="446" on="0"/>
        <pt x="447" y="497" on="0"/>
        <pt x="407" y="514" on="1"/>
        <pt x="436" y="545" on="1"/>
      </contour>
      <contour>
        <pt x="686" y="463" on="1"/>
        <pt x="737" y="498" on="1"/>
        <pt x="766" y="476" on="0"/>
        <pt x="827" y="422" on="0"/>
        <pt x="878" y="368" on="0"/>
        <pt x="893" y="345" on="1"/>
        <pt x="840" y="304" on="1"/>
        <pt x="825" y="327" on="0"/>
        <pt x="775" y="383" on="0"/>
        <pt x="715" y="440" on="0"/>
      </contour>
      <contour>
        <pt x="159" y="292" on="1"/>
        <pt x="108" y="335" on="1"/>
        <pt x="153" y="359" on="0"/>
        <pt x="214" y="441" on="0"/>
        <pt x="230" y="486" on="1"/>
        <pt x="286" y="462" on="1"/>
        <pt x="269" y="413" on="0"/>
        <pt x="209" y="321" on="0"/>
      </contour>
      <contour>
        <pt x="660" y="192" on="1"/>
        <pt x="339" y="192" on="1"/>
        <pt x="401" y="131" on="0"/>
        <pt x="502" y="87" on="1"/>
        <pt x="549" y="108" on="0"/>
        <pt x="629" y="161" on="0"/>
      </contour>
      <contour>
        <pt x="723" y="250" on="1"/>
        <pt x="770" y="219" on="1"/>
        <pt x="736" y="169" on="0"/>
        <pt x="641" y="88" on="0"/>
        <pt x="582" y="56" on="1"/>
        <pt x="662" y="30" on="0"/>
        <pt x="848" y="-4" on="0"/>
        <pt x="948" y="-12" on="1"/>
        <pt x="936" y="-23" on="0"/>
        <pt x="913" y="-63" on="0"/>
        <pt x="905" y="-77" on="1"/>
        <pt x="795" y="-66" on="0"/>
        <pt x="589" y="-19" on="0"/>
        <pt x="501" y="18" on="1"/>
        <pt x="411" y="-19" on="0"/>
        <pt x="203" y="-64" on="0"/>
        <pt x="96" y="-78" on="1"/>
        <pt x="91" y="-65" on="0"/>
        <pt x="68" y="-27" on="0"/>
        <pt x="57" y="-16" on="1"/>
        <pt x="155" y="-7" on="0"/>
        <pt x="341" y="28" on="0"/>
        <pt x="423" y="56" on="1"/>
        <pt x="384" y="78" on="0"/>
        <pt x="316" y="129" on="0"/>
        <pt x="287" y="158" on="1"/>
        <pt x="247" y="132" on="0"/>
        <pt x="164" y="86" on="0"/>
        <pt x="123" y="68" on="1"/>
        <pt x="115" y="78" on="0"/>
        <pt x="82" y="108" on="0"/>
        <pt x="71" y="117" on="1"/>
        <pt x="159" y="151" on="0"/>
        <pt x="326" y="254" on="0"/>
        <pt x="381" y="317" on="1"/>
        <pt x="350" y="322" on="0"/>
        <pt x="327" y="357" on="0"/>
        <pt x="327" y="391" on="1"/>
        <pt x="327" y="487" on="1"/>
        <pt x="396" y="487" on="1"/>
        <pt x="396" y="392" on="1"/>
        <pt x="396" y="377" on="0"/>
        <pt x="414" y="368" on="0"/>
        <pt x="445" y="368" on="1"/>
        <pt x="591" y="368" on="1"/>
        <pt x="614" y="368" on="0"/>
        <pt x="629" y="390" on="0"/>
        <pt x="632" y="434" on="1"/>
        <pt x="643" y="427" on="0"/>
        <pt x="677" y="416" on="0"/>
        <pt x="691" y="413" on="1"/>
        <pt x="688" y="373" on="0"/>
        <pt x="670" y="329" on="0"/>
        <pt x="633" y="313" on="0"/>
        <pt x="600" y="313" on="1"/>
        <pt x="438" y="313" on="1"/>
        <pt x="456" y="307" on="1"/>
        <pt x="443" y="291" on="0"/>
        <pt x="416" y="261" on="0"/>
        <pt x="400" y="247" on="1"/>
        <pt x="711" y="247" on="1"/>
      </contour>
    </TTGlyph>
    <TTGlyph name="cid01131" xMin="33" yMin="-76" xMax="965" yMax="839">
      <contour>
        <pt x="387" y="560" on="1"/>
        <pt x="380" y="627" on="1"/>
        <pt x="471" y="630" on="1"/>
        <pt x="498" y="677" on="0"/>
        <pt x="553" y="793" on="0"/>
        <pt x="570" y="839" on="1"/>
        <pt x="646" y="819" on="1"/>
        <pt x="624" y="774" on="0"/>
        <pt x="573" y="675" on="0"/>
        <pt x="547" y="633" on="1"/>
        <pt x="607" y="635" on="0"/>
        <pt x="737" y="640" on="0"/>
        <pt x="804" y="643" on="1"/>
        <pt x="784" y="666" on="0"/>
        <pt x="742" y="710" on="0"/>
        <pt x="722" y="729" on="1"/>
        <pt x="776" y="764" on="1"/>
        <pt x="810" y="733" on="0"/>
        <pt x="881" y="658" on="0"/>
        <pt x="942" y="585" on="0"/>
        <pt x="961" y="556" on="1"/>
        <pt x="902" y="516" on="1"/>
        <pt x="884" y="544" on="0"/>
        <pt x="855" y="581" on="1"/>
        <pt x="770" y="577" on="0"/>
        <pt x="601" y="569" on="0"/>
        <pt x="448" y="563" on="0"/>
      </contour>
      <contour>
        <pt x="388" y="340" on="1"/>
        <pt x="262" y="301" on="1"/>
        <pt x="262" y="11" on="1"/>
        <pt x="262" y="-20" on="0"/>
        <pt x="246" y="-54" on="0"/>
        <pt x="227" y="-63" on="1"/>
        <pt x="208" y="-71" on="0"/>
        <pt x="144" y="-76" on="0"/>
        <pt x="94" y="-75" on="1"/>
        <pt x="92" y="-61" on="0"/>
        <pt x="80" y="-21" on="0"/>
        <pt x="72" y="-8" on="1"/>
        <pt x="106" y="-9" on="0"/>
        <pt x="161" y="-9" on="0"/>
        <pt x="171" y="-8" on="1"/>
        <pt x="181" y="-8" on="0"/>
        <pt x="189" y="0" on="0"/>
        <pt x="189" y="11" on="1"/>
        <pt x="189" y="279" on="1"/>
        <pt x="53" y="238" on="1"/>
        <pt x="33" y="310" on="1"/>
        <pt x="65" y="318" on="0"/>
        <pt x="145" y="340" on="0"/>
        <pt x="189" y="353" on="1"/>
        <pt x="189" y="567" on="1"/>
        <pt x="47" y="567" on="1"/>
        <pt x="47" y="635" on="1"/>
        <pt x="189" y="635" on="1"/>
        <pt x="189" y="836" on="1"/>
        <pt x="262" y="836" on="1"/>
        <pt x="262" y="635" on="1"/>
        <pt x="374" y="635" on="1"/>
        <pt x="374" y="567" on="1"/>
        <pt x="262" y="567" on="1"/>
        <pt x="262" y="374" on="1"/>
        <pt x="378" y="409" on="1"/>
      </contour>
      <contour>
        <pt x="949" y="188" on="1"/>
        <pt x="716" y="188" on="1"/>
        <pt x="751" y="114" on="0"/>
        <pt x="876" y="9" on="0"/>
        <pt x="965" y="-15" on="1"/>
        <pt x="952" y="-25" on="0"/>
        <pt x="926" y="-62" on="0"/>
        <pt x="918" y="-76" on="1"/>
        <pt x="830" y="-47" on="0"/>
        <pt x="704" y="66" on="0"/>
        <pt x="666" y="146" on="1"/>
        <pt x="639" y="84" on="0"/>
        <pt x="511" y="-31" on="0"/>
        <pt x="389" y="-75" on="1"/>
        <pt x="382" y="-64" on="0"/>
        <pt x="357" y="-30" on="0"/>
        <pt x="346" y="-20" on="1"/>
        <pt x="467" y="23" on="0"/>
        <pt x="584" y="131" on="0"/>
        <pt x="606" y="188" on="1"/>
        <pt x="364" y="188" on="1"/>
        <pt x="364" y="254" on="1"/>
        <pt x="623" y="254" on="1"/>
        <pt x="625" y="271" on="0"/>
        <pt x="627" y="302" on="0"/>
        <pt x="627" y="318" on="1"/>
        <pt x="627" y="386" on="1"/>
        <pt x="507" y="386" on="1"/>
        <pt x="470" y="322" on="0"/>
        <pt x="430" y="277" on="1"/>
        <pt x="420" y="285" on="0"/>
        <pt x="383" y="311" on="0"/>
        <pt x="371" y="318" on="1"/>
        <pt x="415" y="362" on="0"/>
        <pt x="485" y="489" on="0"/>
        <pt x="507" y="556" on="1"/>
        <pt x="575" y="540" on="1"/>
        <pt x="568" y="518" on="0"/>
        <pt x="550" y="473" on="0"/>
        <pt x="540" y="451" on="1"/>
        <pt x="915" y="451" on="1"/>
        <pt x="915" y="386" on="1"/>
        <pt x="696" y="386" on="1"/>
        <pt x="696" y="317" on="1"/>
        <pt x="696" y="286" on="0"/>
        <pt x="693" y="254" on="1"/>
        <pt x="949" y="254" on="1"/>
      </contour>
    </TTGlyph>
    <TTGlyph name="cid01132" xMin="44" yMin="-77" xMax="971" yMax="836">
      <contour>
        <pt x="818" y="251" on="1"/>
        <pt x="526" y="251" on="1"/>
        <pt x="526" y="32" on="1"/>
        <pt x="818" y="32" on="1"/>
      </contour>
      <contour>
        <pt x="456" y="-75" on="1"/>
        <pt x="456" y="317" on="1"/>
        <pt x="891" y="317" on="1"/>
        <pt x="891" y="-73" on="1"/>
        <pt x="818" y="-73" on="1"/>
        <pt x="818" y="-36" on="1"/>
        <pt x="526" y="-36" on="1"/>
        <pt x="526" y="-75" on="1"/>
      </contour>
      <contour>
        <pt x="500" y="498" on="1"/>
        <pt x="845" y="498" on="1"/>
        <pt x="845" y="431" on="1"/>
        <pt x="500" y="431" on="1"/>
      </contour>
      <contour>
        <pt x="319" y="563" on="1"/>
        <pt x="199" y="563" on="1"/>
        <pt x="186" y="499" on="0"/>
        <pt x="159" y="373" on="0"/>
        <pt x="145" y="316" on="1"/>
        <pt x="171" y="297" on="0"/>
        <pt x="225" y="256" on="0"/>
        <pt x="251" y="235" on="1"/>
        <pt x="303" y="368" on="0"/>
      </contour>
      <contour>
        <pt x="628" y="834" on="1"/>
        <pt x="702" y="834" on="1"/>
        <pt x="734" y="774" on="0"/>
        <pt x="822" y="652" on="0"/>
        <pt x="921" y="549" on="0"/>
        <pt x="971" y="514" on="1"/>
        <pt x="960" y="500" on="0"/>
        <pt x="936" y="461" on="0"/>
        <pt x="928" y="444" on="1"/>
        <pt x="878" y="483" on="0"/>
        <pt x="779" y="589" on="0"/>
        <pt x="696" y="704" on="0"/>
        <pt x="668" y="757" on="1"/>
        <pt x="643" y="704" on="0"/>
        <pt x="564" y="587" on="0"/>
        <pt x="465" y="478" on="0"/>
        <pt x="411" y="436" on="1"/>
        <pt x="406" y="447" on="0"/>
        <pt x="388" y="476" on="0"/>
        <pt x="380" y="489" on="1"/>
        <pt x="358" y="310" on="0"/>
        <pt x="308" y="186" on="1"/>
        <pt x="340" y="157" on="0"/>
        <pt x="394" y="102" on="0"/>
        <pt x="413" y="78" on="1"/>
        <pt x="365" y="18" on="1"/>
        <pt x="332" y="62" on="0"/>
        <pt x="276" y="116" on="1"/>
        <pt x="242" y="52" on="0"/>
        <pt x="152" y="-43" on="0"/>
        <pt x="97" y="-77" on="1"/>
        <pt x="89" y="-63" on="0"/>
        <pt x="64" y="-28" on="0"/>
        <pt x="52" y="-16" on="1"/>
        <pt x="156" y="41" on="0"/>
        <pt x="221" y="167" on="1"/>
        <pt x="198" y="187" on="0"/>
        <pt x="151" y="226" on="0"/>
        <pt x="128" y="244" on="1"/>
        <pt x="117" y="201" on="1"/>
        <pt x="56" y="234" on="1"/>
        <pt x="73" y="298" on="0"/>
        <pt x="112" y="471" on="0"/>
        <pt x="130" y="563" on="1"/>
        <pt x="44" y="563" on="1"/>
        <pt x="44" y="631" on="1"/>
        <pt x="144" y="631" on="1"/>
        <pt x="155" y="685" on="0"/>
        <pt x="174" y="790" on="0"/>
        <pt x="181" y="836" on="1"/>
        <pt x="252" y="829" on="1"/>
        <pt x="244" y="783" on="0"/>
        <pt x="225" y="683" on="0"/>
        <pt x="214" y="631" on="1"/>
        <pt x="335" y="631" on="1"/>
        <pt x="348" y="633" on="1"/>
        <pt x="392" y="627" on="1"/>
        <pt x="391" y="596" on="0"/>
        <pt x="385" y="538" on="0"/>
        <pt x="382" y="509" on="1"/>
        <pt x="433" y="549" on="0"/>
        <pt x="528" y="659" on="0"/>
        <pt x="605" y="779" on="0"/>
      </contour>
    </TTGlyph>
    <TTGlyph name="cid01133" xMin="39" yMin="-67" xMax="965" yMax="838">
      <contour>
        <pt x="277" y="649" on="1"/>
        <pt x="217" y="603" on="1"/>
        <pt x="202" y="628" on="0"/>
        <pt x="151" y="687" on="0"/>
        <pt x="90" y="746" on="0"/>
        <pt x="59" y="770" on="1"/>
        <pt x="116" y="812" on="1"/>
        <pt x="147" y="789" on="0"/>
        <pt x="209" y="732" on="0"/>
        <pt x="262" y="674" on="0"/>
      </contour>
      <contour>
        <pt x="247" y="445" on="1"/>
        <pt x="247" y="124" on="1"/>
        <pt x="282" y="69" on="0"/>
        <pt x="411" y="15" on="0"/>
        <pt x="499" y="12" on="1"/>
        <pt x="540" y="10" on="0"/>
        <pt x="659" y="9" on="0"/>
        <pt x="791" y="11" on="0"/>
        <pt x="914" y="15" on="0"/>
        <pt x="959" y="18" on="1"/>
        <pt x="952" y="5" on="0"/>
        <pt x="937" y="-38" on="0"/>
        <pt x="935" y="-55" on="1"/>
        <pt x="893" y="-57" on="0"/>
        <pt x="779" y="-59" on="0"/>
        <pt x="656" y="-60" on="0"/>
        <pt x="542" y="-59" on="0"/>
        <pt x="500" y="-57" on="1"/>
        <pt x="402" y="-53" on="0"/>
        <pt x="264" y="3" on="0"/>
        <pt x="217" y="61" on="1"/>
        <pt x="184" y="29" on="0"/>
        <pt x="115" y="-35" on="0"/>
        <pt x="78" y="-67" on="1"/>
        <pt x="39" y="4" on="1"/>
        <pt x="71" y="27" on="0"/>
        <pt x="143" y="88" on="0"/>
        <pt x="177" y="119" on="1"/>
        <pt x="177" y="375" on="1"/>
        <pt x="50" y="375" on="1"/>
        <pt x="50" y="445" on="1"/>
      </contour>
      <contour>
        <pt x="320" y="184" on="1"/>
        <pt x="574" y="184" on="1"/>
        <pt x="574" y="246" on="1"/>
        <pt x="365" y="246" on="1"/>
        <pt x="365" y="299" on="1"/>
        <pt x="574" y="299" on="1"/>
        <pt x="574" y="360" on="1"/>
        <pt x="387" y="360" on="1"/>
        <pt x="387" y="414" on="1"/>
        <pt x="574" y="414" on="1"/>
        <pt x="574" y="482" on="1"/>
        <pt x="647" y="482" on="1"/>
        <pt x="647" y="414" on="1"/>
        <pt x="834" y="414" on="1"/>
        <pt x="834" y="360" on="1"/>
        <pt x="647" y="360" on="1"/>
        <pt x="647" y="299" on="1"/>
        <pt x="857" y="299" on="1"/>
        <pt x="857" y="246" on="1"/>
        <pt x="647" y="246" on="1"/>
        <pt x="647" y="184" on="1"/>
        <pt x="913" y="184" on="1"/>
        <pt x="913" y="130" on="1"/>
        <pt x="647" y="130" on="1"/>
        <pt x="647" y="42" on="1"/>
        <pt x="574" y="42" on="1"/>
        <pt x="574" y="130" on="1"/>
        <pt x="320" y="130" on="1"/>
      </contour>
      <contour>
        <pt x="496" y="702" on="1"/>
        <pt x="493" y="699" on="1"/>
        <pt x="516" y="672" on="0"/>
        <pt x="577" y="625" on="0"/>
        <pt x="612" y="605" on="1"/>
        <pt x="682" y="649" on="0"/>
        <pt x="728" y="702" on="1"/>
      </contour>
      <contour>
        <pt x="787" y="762" on="1"/>
        <pt x="832" y="737" on="1"/>
        <pt x="804" y="688" on="0"/>
        <pt x="724" y="606" on="0"/>
        <pt x="675" y="572" on="1"/>
        <pt x="740" y="543" on="0"/>
        <pt x="887" y="501" on="0"/>
        <pt x="965" y="490" on="1"/>
        <pt x="954" y="480" on="0"/>
        <pt x="930" y="445" on="0"/>
        <pt x="923" y="431" on="1"/>
        <pt x="840" y="446" on="0"/>
        <pt x="682" y="497" on="0"/>
        <pt x="613" y="534" on="1"/>
        <pt x="543" y="495" on="0"/>
        <pt x="385" y="440" on="0"/>
        <pt x="305" y="423" on="1"/>
        <pt x="300" y="435" on="0"/>
        <pt x="279" y="468" on="0"/>
        <pt x="271" y="478" on="1"/>
        <pt x="343" y="492" on="0"/>
        <pt x="488" y="538" on="0"/>
        <pt x="552" y="571" on="1"/>
        <pt x="493" y="610" on="0"/>
        <pt x="449" y="659" on="1"/>
        <pt x="420" y="634" on="0"/>
        <pt x="358" y="591" on="0"/>
        <pt x="327" y="573" on="1"/>
        <pt x="318" y="582" on="0"/>
        <pt x="282" y="610" on="0"/>
        <pt x="270" y="617" on="1"/>
        <pt x="347" y="655" on="0"/>
        <pt x="484" y="771" on="0"/>
        <pt x="526" y="838" on="1"/>
        <pt x="592" y="818" on="1"/>
        <pt x="582" y="803" on="0"/>
        <pt x="561" y="773" on="0"/>
        <pt x="549" y="759" on="1"/>
        <pt x="774" y="759" on="1"/>
      </contour>
    </TTGlyph>
    <TTGlyph name="cid01134" xMin="38" yMin="-77" xMax="968" yMax="836">
      <contour>
        <pt x="290" y="622" on="1"/>
        <pt x="290" y="702" on="1"/>
        <pt x="65" y="702" on="1"/>
        <pt x="65" y="767" on="1"/>
        <pt x="290" y="767" on="1"/>
        <pt x="290" y="836" on="1"/>
        <pt x="362" y="836" on="1"/>
        <pt x="362" y="767" on="1"/>
        <pt x="631" y="767" on="1"/>
        <pt x="631" y="836" on="1"/>
        <pt x="704" y="836" on="1"/>
        <pt x="704" y="767" on="1"/>
        <pt x="938" y="767" on="1"/>
        <pt x="938" y="702" on="1"/>
        <pt x="704" y="702" on="1"/>
        <pt x="704" y="622" on="1"/>
        <pt x="631" y="622" on="1"/>
        <pt x="631" y="702" on="1"/>
        <pt x="362" y="702" on="1"/>
        <pt x="362" y="622" on="1"/>
      </contour>
      <contour>
        <pt x="697" y="317" on="1"/>
        <pt x="528" y="317" on="1"/>
        <pt x="525" y="289" on="0"/>
        <pt x="519" y="237" on="0"/>
        <pt x="514" y="214" on="1"/>
        <pt x="852" y="214" on="1"/>
        <pt x="852" y="149" on="1"/>
        <pt x="572" y="149" on="1"/>
        <pt x="619" y="79" on="0"/>
        <pt x="799" y="4" on="0"/>
        <pt x="931" y="-7" on="1"/>
        <pt x="919" y="-19" on="0"/>
        <pt x="893" y="-59" on="0"/>
        <pt x="885" y="-76" on="1"/>
        <pt x="737" y="-58" on="0"/>
        <pt x="547" y="49" on="0"/>
        <pt x="496" y="149" on="1"/>
        <pt x="474" y="87" on="0"/>
        <pt x="385" y="-1" on="0"/>
        <pt x="232" y="-59" on="0"/>
        <pt x="114" y="-77" on="1"/>
        <pt x="110" y="-63" on="0"/>
        <pt x="88" y="-25" on="0"/>
        <pt x="78" y="-13" on="1"/>
        <pt x="179" y="1" on="0"/>
        <pt x="312" y="43" on="0"/>
        <pt x="394" y="105" on="0"/>
        <pt x="416" y="149" on="1"/>
        <pt x="154" y="149" on="1"/>
        <pt x="154" y="214" on="1"/>
        <pt x="439" y="214" on="1"/>
        <pt x="449" y="258" on="0"/>
        <pt x="454" y="317" on="1"/>
        <pt x="301" y="317" on="1"/>
        <pt x="301" y="354" on="1"/>
        <pt x="251" y="312" on="0"/>
        <pt x="138" y="249" on="0"/>
        <pt x="79" y="228" on="1"/>
        <pt x="73" y="241" on="0"/>
        <pt x="49" y="276" on="0"/>
        <pt x="38" y="286" on="1"/>
        <pt x="145" y="317" on="0"/>
        <pt x="239" y="389" on="1"/>
        <pt x="216" y="413" on="0"/>
        <pt x="155" y="464" on="0"/>
        <pt x="125" y="483" on="1"/>
        <pt x="173" y="522" on="1"/>
        <pt x="237" y="482" on="0"/>
        <pt x="287" y="432" on="1"/>
        <pt x="340" y="483" on="0"/>
        <pt x="372" y="542" on="1"/>
        <pt x="112" y="542" on="1"/>
        <pt x="112" y="606" on="1"/>
        <pt x="408" y="606" on="1"/>
        <pt x="421" y="609" on="1"/>
        <pt x="466" y="587" on="1"/>
        <pt x="444" y="526" on="0"/>
        <pt x="372" y="422" on="0"/>
        <pt x="328" y="379" on="1"/>
        <pt x="676" y="379" on="1"/>
        <pt x="571" y="477" on="0"/>
        <pt x="515" y="618" on="1"/>
        <pt x="576" y="635" on="1"/>
        <pt x="599" y="580" on="0"/>
        <pt x="633" y="530" on="1"/>
        <pt x="666" y="554" on="0"/>
        <pt x="736" y="613" on="0"/>
        <pt x="760" y="637" on="1"/>
        <pt x="816" y="601" on="1"/>
        <pt x="782" y="571" on="0"/>
        <pt x="701" y="511" on="0"/>
        <pt x="665" y="488" on="1"/>
        <pt x="695" y="454" on="0"/>
        <pt x="731" y="422" on="1"/>
        <pt x="766" y="446" on="0"/>
        <pt x="844" y="508" on="0"/>
        <pt x="869" y="532" on="1"/>
        <pt x="926" y="495" on="1"/>
        <pt x="892" y="467" on="0"/>
        <pt x="812" y="410" on="0"/>
        <pt x="776" y="388" on="1"/>
        <pt x="819" y="360" on="0"/>
        <pt x="915" y="315" on="0"/>
        <pt x="968" y="301" on="1"/>
        <pt x="956" y="290" on="0"/>
        <pt x="929" y="253" on="0"/>
        <pt x="921" y="239" on="1"/>
        <pt x="794" y="279" on="0"/>
        <pt x="697" y="361" on="1"/>
      </contour>
    </TTGlyph>
    <TTGlyph name="cid01135" xMin="64" yMin="-74" xMax="935" yMax="836">
      <contour>
        <pt x="559" y="408" on="1"/>
        <pt x="559" y="508" on="1"/>
        <pt x="424" y="508" on="1"/>
        <pt x="424" y="408" on="1"/>
      </contour>
      <contour>
        <pt x="820" y="344" on="1"/>
        <pt x="627" y="344" on="1"/>
        <pt x="627" y="246" on="1"/>
        <pt x="627" y="230" on="0"/>
        <pt x="641" y="220" on="0"/>
        <pt x="667" y="220" on="1"/>
        <pt x="789" y="220" on="1"/>
        <pt x="804" y="220" on="0"/>
        <pt x="814" y="222" on="0"/>
        <pt x="815" y="225" on="1"/>
        <pt x="820" y="222" on="1"/>
      </contour>
      <contour>
        <pt x="189" y="44" on="1"/>
        <pt x="820" y="44" on="1"/>
        <pt x="820" y="161" on="1"/>
        <pt x="815" y="160" on="0"/>
        <pt x="804" y="160" on="0"/>
        <pt x="797" y="160" on="1"/>
        <pt x="659" y="160" on="1"/>
        <pt x="618" y="160" on="0"/>
        <pt x="575" y="174" on="0"/>
        <pt x="559" y="212" on="0"/>
        <pt x="559" y="246" on="1"/>
        <pt x="559" y="344" on="1"/>
        <pt x="424" y="344" on="1"/>
        <pt x="424" y="341" on="1"/>
        <pt x="424" y="319" on="0"/>
        <pt x="408" y="258" on="0"/>
        <pt x="367" y="192" on="0"/>
        <pt x="296" y="131" on="0"/>
        <pt x="240" y="108" on="1"/>
        <pt x="233" y="119" on="0"/>
        <pt x="205" y="146" on="0"/>
        <pt x="193" y="155" on="1"/>
        <pt x="259" y="179" on="0"/>
        <pt x="330" y="247" on="0"/>
        <pt x="357" y="317" on="0"/>
        <pt x="357" y="342" on="1"/>
        <pt x="357" y="344" on="1"/>
        <pt x="189" y="344" on="1"/>
      </contour>
      <contour>
        <pt x="66" y="508" on="1"/>
        <pt x="66" y="575" on="1"/>
        <pt x="935" y="575" on="1"/>
        <pt x="935" y="508" on="1"/>
        <pt x="627" y="508" on="1"/>
        <pt x="627" y="408" on="1"/>
        <pt x="894" y="408" on="1"/>
        <pt x="894" y="-71" on="1"/>
        <pt x="820" y="-71" on="1"/>
        <pt x="820" y="-22" on="1"/>
        <pt x="189" y="-22" on="1"/>
        <pt x="189" y="-74" on="1"/>
        <pt x="119" y="-74" on="1"/>
        <pt x="119" y="408" on="1"/>
        <pt x="357" y="408" on="1"/>
        <pt x="357" y="508" on="1"/>
      </contour>
      <contour>
        <pt x="707" y="755" on="1"/>
        <pt x="935" y="755" on="1"/>
        <pt x="935" y="687" on="1"/>
        <pt x="707" y="687" on="1"/>
        <pt x="707" y="597" on="1"/>
        <pt x="634" y="597" on="1"/>
        <pt x="634" y="687" on="1"/>
        <pt x="362" y="687" on="1"/>
        <pt x="362" y="597" on="1"/>
        <pt x="289" y="597" on="1"/>
        <pt x="289" y="687" on="1"/>
        <pt x="64" y="687" on="1"/>
        <pt x="64" y="755" on="1"/>
        <pt x="289" y="755" on="1"/>
        <pt x="289" y="836" on="1"/>
        <pt x="362" y="836" on="1"/>
        <pt x="362" y="755" on="1"/>
        <pt x="634" y="755" on="1"/>
        <pt x="634" y="836" on="1"/>
        <pt x="707" y="836" on="1"/>
      </contour>
    </TTGlyph>
    <TTGlyph name="cid01136" xMin="36" yMin="-78" xMax="967" yMax="836">
      <contour>
        <pt x="264" y="481" on="1"/>
        <pt x="264" y="432" on="1"/>
        <pt x="275" y="423" on="0"/>
        <pt x="311" y="385" on="0"/>
        <pt x="352" y="343" on="0"/>
        <pt x="386" y="306" on="0"/>
        <pt x="393" y="297" on="1"/>
        <pt x="349" y="241" on="1"/>
        <pt x="338" y="261" on="0"/>
        <pt x="288" y="330" on="0"/>
        <pt x="264" y="360" on="1"/>
        <pt x="264" y="-78" on="1"/>
        <pt x="194" y="-78" on="1"/>
        <pt x="194" y="353" on="1"/>
        <pt x="169" y="280" on="0"/>
        <pt x="107" y="144" on="0"/>
        <pt x="75" y="98" on="1"/>
        <pt x="69" y="114" on="0"/>
        <pt x="46" y="153" on="0"/>
        <pt x="36" y="166" on="1"/>
        <pt x="64" y="202" on="0"/>
        <pt x="119" y="306" on="0"/>
        <pt x="166" y="425" on="0"/>
        <pt x="182" y="481" on="1"/>
        <pt x="48" y="481" on="1"/>
        <pt x="48" y="550" on="1"/>
        <pt x="194" y="550" on="1"/>
        <pt x="194" y="705" on="1"/>
        <pt x="129" y="691" on="0"/>
        <pt x="65" y="682" on="1"/>
        <pt x="63" y="694" on="0"/>
        <pt x="50" y="726" on="0"/>
        <pt x="43" y="737" on="1"/>
        <pt x="95" y="746" on="0"/>
        <pt x="203" y="770" on="0"/>
        <pt x="299" y="799" on="0"/>
        <pt x="331" y="815" on="1"/>
        <pt x="387" y="763" on="1"/>
        <pt x="361" y="751" on="0"/>
        <pt x="298" y="731" on="0"/>
        <pt x="264" y="722" on="1"/>
        <pt x="264" y="550" on="1"/>
        <pt x="386" y="550" on="1"/>
        <pt x="386" y="481" on="1"/>
      </contour>
      <contour>
        <pt x="462" y="108" on="1"/>
        <pt x="624" y="108" on="1"/>
        <pt x="624" y="177" on="1"/>
        <pt x="462" y="177" on="1"/>
      </contour>
      <contour>
        <pt x="624" y="288" on="1"/>
        <pt x="462" y="288" on="1"/>
        <pt x="462" y="226" on="1"/>
        <pt x="624" y="226" on="1"/>
      </contour>
      <contour>
        <pt x="865" y="288" on="1"/>
        <pt x="693" y="288" on="1"/>
        <pt x="693" y="226" on="1"/>
        <pt x="865" y="226" on="1"/>
      </contour>
      <contour>
        <pt x="693" y="108" on="1"/>
        <pt x="865" y="108" on="1"/>
        <pt x="865" y="177" on="1"/>
        <pt x="693" y="177" on="1"/>
      </contour>
      <contour>
        <pt x="486" y="438" on="1"/>
        <pt x="624" y="438" on="1"/>
        <pt x="624" y="501" on="1"/>
        <pt x="486" y="501" on="1"/>
      </contour>
      <contour>
        <pt x="709" y="726" on="1"/>
        <pt x="544" y="726" on="1"/>
        <pt x="531" y="709" on="0"/>
        <pt x="501" y="674" on="0"/>
        <pt x="485" y="657" on="1"/>
        <pt x="657" y="657" on="1"/>
        <pt x="671" y="671" on="0"/>
        <pt x="697" y="707" on="0"/>
      </contour>
      <contour>
        <pt x="624" y="547" on="1"/>
        <pt x="624" y="609" on="1"/>
        <pt x="486" y="609" on="1"/>
        <pt x="486" y="547" on="1"/>
      </contour>
      <contour>
        <pt x="838" y="547" on="1"/>
        <pt x="838" y="609" on="1"/>
        <pt x="693" y="609" on="1"/>
        <pt x="693" y="547" on="1"/>
      </contour>
      <contour>
        <pt x="838" y="438" on="1"/>
        <pt x="838" y="501" on="1"/>
        <pt x="693" y="501" on="1"/>
        <pt x="693" y="438" on="1"/>
      </contour>
      <contour>
        <pt x="738" y="-17" on="1"/>
        <pt x="872" y="-17" on="1"/>
        <pt x="892" y="-17" on="0"/>
        <pt x="906" y="6" on="0"/>
        <pt x="907" y="43" on="1"/>
        <pt x="918" y="36" on="0"/>
        <pt x="954" y="23" on="0"/>
        <pt x="967" y="19" on="1"/>
        <pt x="963" y="-34" on="0"/>
        <pt x="925" y="-74" on="0"/>
        <pt x="877" y="-74" on="1"/>
        <pt x="729" y="-74" on="1"/>
        <pt x="688" y="-74" on="0"/>
        <pt x="642" y="-57" on="0"/>
        <pt x="624" y="-14" on="0"/>
        <pt x="624" y="26" on="1"/>
        <pt x="624" y="57" on="1"/>
        <pt x="462" y="57" on="1"/>
        <pt x="462" y="3" on="1"/>
        <pt x="395" y="3" on="1"/>
        <pt x="395" y="339" on="1"/>
        <pt x="624" y="339" on="1"/>
        <pt x="624" y="389" on="1"/>
        <pt x="422" y="389" on="1"/>
        <pt x="422" y="600" on="1"/>
        <pt x="412" y="593" on="0"/>
        <pt x="393" y="578" on="0"/>
        <pt x="382" y="570" on="1"/>
        <pt x="375" y="581" on="0"/>
        <pt x="346" y="610" on="0"/>
        <pt x="334" y="617" on="1"/>
        <pt x="407" y="664" on="0"/>
        <pt x="509" y="784" on="0"/>
        <pt x="536" y="836" on="1"/>
        <pt x="607" y="823" on="1"/>
        <pt x="601" y="813" on="0"/>
        <pt x="589" y="791" on="0"/>
        <pt x="581" y="780" on="1"/>
        <pt x="746" y="780" on="1"/>
        <pt x="760" y="784" on="1"/>
        <pt x="803" y="754" on="1"/>
        <pt x="771" y="702" on="0"/>
        <pt x="734" y="657" on="1"/>
        <pt x="905" y="657" on="1"/>
        <pt x="905" y="389" on="1"/>
        <pt x="693" y="389" on="1"/>
        <pt x="693" y="339" on="1"/>
        <pt x="934" y="339" on="1"/>
        <pt x="934" y="57" on="1"/>
        <pt x="693" y="57" on="1"/>
        <pt x="693" y="26" on="1"/>
        <pt x="693" y="-2" on="0"/>
        <pt x="710" y="-17" on="0"/>
      </contour>
    </TTGlyph>
    <TTGlyph name="cid01137" xMin="45" yMin="-60" xMax="955" yMax="792">
      <contour>
        <pt x="423" y="401" on="1"/>
        <pt x="423" y="317" on="1"/>
        <pt x="569" y="317" on="1"/>
        <pt x="569" y="401" on="1"/>
      </contour>
      <contour>
        <pt x="211" y="462" on="1"/>
        <pt x="351" y="462" on="1"/>
        <pt x="351" y="585" on="1"/>
        <pt x="211" y="585" on="1"/>
      </contour>
      <contour>
        <pt x="423" y="728" on="1"/>
        <pt x="423" y="645" on="1"/>
        <pt x="569" y="645" on="1"/>
        <pt x="569" y="728" on="1"/>
      </contour>
      <contour>
        <pt x="569" y="462" on="1"/>
        <pt x="569" y="585" on="1"/>
        <pt x="423" y="585" on="1"/>
        <pt x="423" y="462" on="1"/>
      </contour>
      <contour>
        <pt x="786" y="585" on="1"/>
        <pt x="640" y="585" on="1"/>
        <pt x="640" y="462" on="1"/>
        <pt x="786" y="462" on="1"/>
      </contour>
      <contour>
        <pt x="372" y="222" on="1"/>
        <pt x="407" y="252" on="1"/>
        <pt x="59" y="252" on="1"/>
        <pt x="59" y="317" on="1"/>
        <pt x="351" y="317" on="1"/>
        <pt x="351" y="401" on="1"/>
        <pt x="142" y="401" on="1"/>
        <pt x="142" y="645" on="1"/>
        <pt x="351" y="645" on="1"/>
        <pt x="351" y="728" on="1"/>
        <pt x="75" y="728" on="1"/>
        <pt x="75" y="792" on="1"/>
        <pt x="929" y="792" on="1"/>
        <pt x="929" y="728" on="1"/>
        <pt x="640" y="728" on="1"/>
        <pt x="640" y="645" on="1"/>
        <pt x="858" y="645" on="1"/>
        <pt x="858" y="401" on="1"/>
        <pt x="640" y="401" on="1"/>
        <pt x="640" y="317" on="1"/>
        <pt x="942" y="317" on="1"/>
        <pt x="942" y="252" on="1"/>
        <pt x="443" y="252" on="1"/>
        <pt x="488" y="230" on="0"/>
        <pt x="577" y="172" on="0"/>
        <pt x="602" y="146" on="1"/>
        <pt x="552" y="101" on="1"/>
        <pt x="534" y="121" on="0"/>
        <pt x="475" y="164" on="0"/>
        <pt x="405" y="206" on="0"/>
      </contour>
      <contour>
        <pt x="106" y="-45" on="1"/>
        <pt x="45" y="0" on="1"/>
        <pt x="98" y="29" on="0"/>
        <pt x="161" y="127" on="0"/>
        <pt x="175" y="184" on="1"/>
        <pt x="241" y="160" on="1"/>
        <pt x="225" y="99" on="0"/>
        <pt x="162" y="-11" on="0"/>
      </contour>
      <contour>
        <pt x="437" y="7" on="1"/>
        <pt x="612" y="7" on="1"/>
        <pt x="633" y="7" on="0"/>
        <pt x="653" y="20" on="0"/>
        <pt x="662" y="61" on="0"/>
        <pt x="664" y="103" on="1"/>
        <pt x="675" y="93" on="0"/>
        <pt x="715" y="79" on="0"/>
        <pt x="730" y="76" on="1"/>
        <pt x="725" y="21" on="0"/>
        <pt x="703" y="-38" on="0"/>
        <pt x="659" y="-60" on="0"/>
        <pt x="619" y="-60" on="1"/>
        <pt x="432" y="-60" on="1"/>
        <pt x="381" y="-60" on="0"/>
        <pt x="326" y="-44" on="0"/>
        <pt x="305" y="-3" on="0"/>
        <pt x="305" y="34" on="1"/>
        <pt x="305" y="179" on="1"/>
        <pt x="377" y="179" on="1"/>
        <pt x="377" y="35" on="1"/>
        <pt x="377" y="17" on="0"/>
        <pt x="399" y="7" on="0"/>
      </contour>
      <contour>
        <pt x="710" y="157" on="1"/>
        <pt x="769" y="194" on="1"/>
        <pt x="806" y="168" on="0"/>
        <pt x="879" y="101" on="0"/>
        <pt x="938" y="33" on="0"/>
        <pt x="955" y="2" on="1"/>
        <pt x="892" y="-40" on="1"/>
        <pt x="877" y="-10" on="0"/>
        <pt x="819" y="60" on="0"/>
        <pt x="747" y="129" on="0"/>
      </contour>
    </TTGlyph>
    <TTGlyph name="cid01138" xMin="32" yMin="-77" xMax="958" yMax="836">
      <contour>
        <pt x="348" y="347" on="1"/>
        <pt x="239" y="311" on="1"/>
        <pt x="239" y="10" on="1"/>
        <pt x="239" y="-20" on="0"/>
        <pt x="224" y="-54" on="0"/>
        <pt x="205" y="-63" on="1"/>
        <pt x="187" y="-71" on="0"/>
        <pt x="128" y="-77" on="0"/>
        <pt x="81" y="-76" on="1"/>
        <pt x="79" y="-63" on="0"/>
        <pt x="67" y="-23" on="0"/>
        <pt x="59" y="-8" on="1"/>
        <pt x="91" y="-9" on="0"/>
        <pt x="144" y="-9" on="0"/>
        <pt x="153" y="-8" on="1"/>
        <pt x="162" y="-8" on="0"/>
        <pt x="170" y="-1" on="0"/>
        <pt x="170" y="10" on="1"/>
        <pt x="170" y="289" on="1"/>
        <pt x="51" y="250" on="1"/>
        <pt x="32" y="322" on="1"/>
        <pt x="61" y="330" on="0"/>
        <pt x="131" y="351" on="0"/>
        <pt x="170" y="363" on="1"/>
        <pt x="170" y="568" on="1"/>
        <pt x="45" y="568" on="1"/>
        <pt x="45" y="636" on="1"/>
        <pt x="170" y="636" on="1"/>
        <pt x="170" y="836" on="1"/>
        <pt x="239" y="836" on="1"/>
        <pt x="239" y="636" on="1"/>
        <pt x="346" y="636" on="1"/>
        <pt x="346" y="568" on="1"/>
        <pt x="239" y="568" on="1"/>
        <pt x="239" y="384" on="1"/>
        <pt x="264" y="392" on="0"/>
        <pt x="313" y="408" on="0"/>
        <pt x="338" y="416" on="1"/>
      </contour>
      <contour>
        <pt x="854" y="729" on="1"/>
        <pt x="451" y="729" on="1"/>
        <pt x="451" y="623" on="1"/>
        <pt x="854" y="623" on="1"/>
      </contour>
      <contour>
        <pt x="715" y="12" on="1"/>
        <pt x="958" y="12" on="1"/>
        <pt x="958" y="-47" on="1"/>
        <pt x="413" y="-47" on="1"/>
        <pt x="413" y="12" on="1"/>
        <pt x="648" y="12" on="1"/>
        <pt x="648" y="115" on="1"/>
        <pt x="465" y="115" on="1"/>
        <pt x="465" y="173" on="1"/>
        <pt x="648" y="173" on="1"/>
        <pt x="648" y="263" on="1"/>
        <pt x="596" y="261" on="0"/>
        <pt x="500" y="257" on="0"/>
        <pt x="459" y="255" on="1"/>
        <pt x="452" y="316" on="1"/>
        <pt x="535" y="318" on="1"/>
        <pt x="549" y="344" on="0"/>
        <pt x="576" y="405" on="0"/>
        <pt x="587" y="433" on="1"/>
        <pt x="450" y="433" on="1"/>
        <pt x="448" y="353" on="0"/>
        <pt x="428" y="174" on="0"/>
        <pt x="381" y="0" on="0"/>
        <pt x="338" y="-71" on="1"/>
        <pt x="330" y="-62" on="0"/>
        <pt x="293" y="-35" on="0"/>
        <pt x="282" y="-29" on="1"/>
        <pt x="317" y="29" on="0"/>
        <pt x="358" y="163" on="0"/>
        <pt x="378" y="305" on="0"/>
        <pt x="384" y="441" on="0"/>
        <pt x="384" y="500" on="1"/>
        <pt x="384" y="792" on="1"/>
        <pt x="924" y="792" on="1"/>
        <pt x="924" y="562" on="1"/>
        <pt x="451" y="562" on="1"/>
        <pt x="451" y="500" on="1"/>
        <pt x="451" y="494" on="1"/>
        <pt x="942" y="494" on="1"/>
        <pt x="942" y="433" on="1"/>
        <pt x="658" y="433" on="1"/>
        <pt x="644" y="404" on="0"/>
        <pt x="614" y="346" on="0"/>
        <pt x="599" y="320" on="1"/>
        <pt x="650" y="321" on="0"/>
        <pt x="762" y="325" on="0"/>
        <pt x="820" y="326" on="1"/>
        <pt x="804" y="343" on="0"/>
        <pt x="769" y="377" on="0"/>
        <pt x="752" y="392" on="1"/>
        <pt x="799" y="420" on="1"/>
        <pt x="828" y="396" on="0"/>
        <pt x="887" y="338" on="0"/>
        <pt x="938" y="281" on="0"/>
        <pt x="953" y="258" on="1"/>
        <pt x="903" y="227" on="1"/>
        <pt x="896" y="238" on="0"/>
        <pt x="877" y="261" on="0"/>
        <pt x="866" y="274" on="1"/>
        <pt x="829" y="272" on="0"/>
        <pt x="753" y="268" on="0"/>
        <pt x="715" y="266" on="1"/>
        <pt x="715" y="173" on="1"/>
        <pt x="905" y="173" on="1"/>
        <pt x="905" y="115" on="1"/>
        <pt x="715" y="115" on="1"/>
      </contour>
    </TTGlyph>
    <TTGlyph name="cid01139" xMin="41" yMin="-76" xMax="957" yMax="828">
      <contour>
        <pt x="305" y="721" on="1"/>
        <pt x="261" y="662" on="1"/>
        <pt x="244" y="680" on="0"/>
        <pt x="187" y="721" on="0"/>
        <pt x="123" y="760" on="0"/>
        <pt x="92" y="774" on="1"/>
        <pt x="134" y="828" on="1"/>
        <pt x="164" y="815" on="0"/>
        <pt x="230" y="778" on="0"/>
        <pt x="287" y="739" on="0"/>
      </contour>
      <contour>
        <pt x="255" y="463" on="1"/>
        <pt x="212" y="402" on="1"/>
        <pt x="195" y="419" on="0"/>
        <pt x="138" y="457" on="0"/>
        <pt x="72" y="493" on="0"/>
        <pt x="41" y="507" on="1"/>
        <pt x="83" y="562" on="1"/>
        <pt x="113" y="550" on="0"/>
        <pt x="179" y="516" on="0"/>
        <pt x="237" y="480" on="0"/>
      </contour>
      <contour>
        <pt x="222" y="303" on="1"/>
        <pt x="281" y="260" on="1"/>
        <pt x="249" y="181" on="0"/>
        <pt x="169" y="8" on="0"/>
        <pt x="132" y="-63" on="1"/>
        <pt x="65" y="-19" on="1"/>
        <pt x="88" y="20" on="0"/>
        <pt x="143" y="127" on="0"/>
        <pt x="199" y="246" on="0"/>
      </contour>
      <contour>
        <pt x="848" y="738" on="1"/>
        <pt x="426" y="738" on="1"/>
        <pt x="426" y="631" on="1"/>
        <pt x="848" y="631" on="1"/>
      </contour>
      <contour>
        <pt x="566" y="442" on="1"/>
        <pt x="425" y="442" on="1"/>
        <pt x="423" y="359" on="0"/>
        <pt x="401" y="174" on="0"/>
        <pt x="349" y="-3" on="0"/>
        <pt x="301" y="-76" on="1"/>
        <pt x="291" y="-68" on="0"/>
        <pt x="252" y="-46" on="0"/>
        <pt x="239" y="-42" on="1"/>
        <pt x="280" y="20" on="0"/>
        <pt x="327" y="164" on="0"/>
        <pt x="350" y="315" on="0"/>
        <pt x="357" y="460" on="0"/>
        <pt x="357" y="522" on="1"/>
        <pt x="357" y="799" on="1"/>
        <pt x="918" y="799" on="1"/>
        <pt x="918" y="571" on="1"/>
        <pt x="426" y="571" on="1"/>
        <pt x="426" y="522" on="1"/>
        <pt x="426" y="502" on="1"/>
        <pt x="947" y="502" on="1"/>
        <pt x="947" y="442" on="1"/>
        <pt x="644" y="442" on="1"/>
        <pt x="628" y="412" on="0"/>
        <pt x="593" y="350" on="0"/>
        <pt x="576" y="323" on="1"/>
        <pt x="632" y="325" on="0"/>
        <pt x="755" y="328" on="0"/>
        <pt x="818" y="331" on="1"/>
        <pt x="802" y="348" on="0"/>
        <pt x="767" y="381" on="0"/>
        <pt x="750" y="395" on="1"/>
        <pt x="803" y="426" on="1"/>
        <pt x="832" y="402" on="0"/>
        <pt x="892" y="343" on="0"/>
        <pt x="942" y="285" on="0"/>
        <pt x="956" y="260" on="1"/>
        <pt x="901" y="226" on="1"/>
        <pt x="888" y="248" on="0"/>
        <pt x="866" y="276" on="1"/>
        <pt x="787" y="273" on="0"/>
        <pt x="629" y="266" on="0"/>
        <pt x="486" y="260" on="0"/>
        <pt x="428" y="258" on="1"/>
        <pt x="423" y="320" on="1"/>
        <pt x="506" y="322" on="1"/>
        <pt x="522" y="349" on="0"/>
        <pt x="553" y="413" on="0"/>
      </contour>
      <contour>
        <pt x="706" y="12" on="1"/>
        <pt x="957" y="12" on="1"/>
        <pt x="957" y="-47" on="1"/>
        <pt x="382" y="-47" on="1"/>
        <pt x="382" y="12" on="1"/>
        <pt x="636" y="12" on="1"/>
        <pt x="636" y="114" on="1"/>
        <pt x="446" y="114" on="1"/>
        <pt x="446" y="172" on="1"/>
        <pt x="636" y="172" on="1"/>
        <pt x="636" y="262" on="1"/>
        <pt x="706" y="262" on="1"/>
        <pt x="706" y="172" on="1"/>
        <pt x="910" y="172" on="1"/>
        <pt x="910" y="114" on="1"/>
        <pt x="706" y="114" on="1"/>
      </contour>
    </TTGlyph>
    <TTGlyph name="cid01140" xMin="31" yMin="-78" xMax="953" yMax="836">
      <contour>
        <pt x="816" y="494" on="1"/>
        <pt x="816" y="691" on="1"/>
        <pt x="591" y="691" on="1"/>
        <pt x="591" y="494" on="1"/>
      </contour>
      <contour>
        <pt x="816" y="223" on="1"/>
        <pt x="816" y="424" on="1"/>
        <pt x="591" y="424" on="1"/>
        <pt x="591" y="223" on="1"/>
      </contour>
      <contour>
        <pt x="889" y="762" on="1"/>
        <pt x="889" y="152" on="1"/>
        <pt x="521" y="152" on="1"/>
        <pt x="521" y="762" on="1"/>
      </contour>
      <contour>
        <pt x="513" y="20" on="1"/>
        <pt x="800" y="20" on="1"/>
        <pt x="833" y="20" on="0"/>
        <pt x="866" y="39" on="0"/>
        <pt x="880" y="90" on="0"/>
        <pt x="884" y="139" on="1"/>
        <pt x="898" y="131" on="0"/>
        <pt x="937" y="115" on="0"/>
        <pt x="953" y="111" on="1"/>
        <pt x="947" y="49" on="0"/>
        <pt x="919" y="-22" on="0"/>
        <pt x="859" y="-51" on="0"/>
        <pt x="803" y="-51" on="1"/>
        <pt x="512" y="-51" on="1"/>
        <pt x="448" y="-51" on="0"/>
        <pt x="376" y="-28" on="0"/>
        <pt x="346" y="30" on="0"/>
        <pt x="346" y="84" on="1"/>
        <pt x="346" y="562" on="1"/>
        <pt x="238" y="562" on="1"/>
        <pt x="238" y="481" on="1"/>
        <pt x="238" y="380" on="0"/>
        <pt x="218" y="185" on="0"/>
        <pt x="154" y="4" on="0"/>
        <pt x="88" y="-78" on="1"/>
        <pt x="78" y="-66" on="0"/>
        <pt x="45" y="-36" on="0"/>
        <pt x="31" y="-26" on="1"/>
        <pt x="92" y="49" on="0"/>
        <pt x="150" y="217" on="0"/>
        <pt x="168" y="394" on="0"/>
        <pt x="168" y="481" on="1"/>
        <pt x="168" y="562" on="1"/>
        <pt x="52" y="562" on="1"/>
        <pt x="52" y="631" on="1"/>
        <pt x="168" y="631" on="1"/>
        <pt x="168" y="836" on="1"/>
        <pt x="238" y="836" on="1"/>
        <pt x="238" y="631" on="1"/>
        <pt x="419" y="631" on="1"/>
        <pt x="419" y="84" on="1"/>
        <pt x="419" y="58" on="0"/>
        <pt x="432" y="30" on="0"/>
        <pt x="473" y="20" on="0"/>
      </contour>
    </TTGlyph>
    <TTGlyph name="cid01141" xMin="60" yMin="-75" xMax="943" yMax="836">
      <contour>
        <pt x="291" y="644" on="1"/>
        <pt x="291" y="714" on="1"/>
        <pt x="60" y="714" on="1"/>
        <pt x="60" y="776" on="1"/>
        <pt x="291" y="776" on="1"/>
        <pt x="291" y="836" on="1"/>
        <pt x="364" y="836" on="1"/>
        <pt x="364" y="776" on="1"/>
        <pt x="631" y="776" on="1"/>
        <pt x="631" y="836" on="1"/>
        <pt x="705" y="836" on="1"/>
        <pt x="705" y="776" on="1"/>
        <pt x="940" y="776" on="1"/>
        <pt x="940" y="714" on="1"/>
        <pt x="705" y="714" on="1"/>
        <pt x="705" y="644" on="1"/>
        <pt x="631" y="644" on="1"/>
        <pt x="631" y="714" on="1"/>
        <pt x="364" y="714" on="1"/>
        <pt x="364" y="644" on="1"/>
      </contour>
      <contour>
        <pt x="728" y="571" on="1"/>
        <pt x="475" y="571" on="1"/>
        <pt x="470" y="553" on="0"/>
        <pt x="458" y="518" on="0"/>
        <pt x="453" y="503" on="1"/>
        <pt x="728" y="503" on="1"/>
      </contour>
      <contour>
        <pt x="64" y="503" on="1"/>
        <pt x="379" y="503" on="1"/>
        <pt x="385" y="519" on="0"/>
        <pt x="396" y="553" on="0"/>
        <pt x="402" y="571" on="1"/>
        <pt x="181" y="571" on="1"/>
        <pt x="181" y="622" on="1"/>
        <pt x="416" y="622" on="1"/>
        <pt x="425" y="651" on="0"/>
        <pt x="431" y="676" on="1"/>
        <pt x="504" y="668" on="1"/>
        <pt x="491" y="622" on="1"/>
        <pt x="798" y="622" on="1"/>
        <pt x="798" y="503" on="1"/>
        <pt x="938" y="503" on="1"/>
        <pt x="938" y="449" on="1"/>
        <pt x="64" y="449" on="1"/>
      </contour>
      <contour>
        <pt x="242" y="60" on="1"/>
        <pt x="490" y="60" on="1"/>
        <pt x="490" y="131" on="1"/>
        <pt x="242" y="131" on="1"/>
      </contour>
      <contour>
        <pt x="264" y="355" on="1"/>
        <pt x="264" y="282" on="1"/>
        <pt x="744" y="282" on="1"/>
        <pt x="744" y="355" on="1"/>
      </contour>
      <contour>
        <pt x="943" y="60" on="1"/>
        <pt x="943" y="3" on="1"/>
        <pt x="563" y="3" on="1"/>
        <pt x="563" y="-75" on="1"/>
        <pt x="490" y="-75" on="1"/>
        <pt x="490" y="3" on="1"/>
        <pt x="60" y="3" on="1"/>
        <pt x="60" y="60" on="1"/>
        <pt x="172" y="60" on="1"/>
        <pt x="172" y="183" on="1"/>
        <pt x="490" y="183" on="1"/>
        <pt x="490" y="234" on="1"/>
        <pt x="194" y="234" on="1"/>
        <pt x="194" y="402" on="1"/>
        <pt x="817" y="402" on="1"/>
        <pt x="817" y="234" on="1"/>
        <pt x="563" y="234" on="1"/>
        <pt x="563" y="183" on="1"/>
        <pt x="884" y="183" on="1"/>
        <pt x="884" y="131" on="1"/>
        <pt x="563" y="131" on="1"/>
        <pt x="563" y="60" on="1"/>
      </contour>
    </TTGlyph>
    <TTGlyph name="cid01142" xMin="34" yMin="-81" xMax="938" yMax="836">
      <contour>
        <pt x="785" y="365" on="1"/>
        <pt x="244" y="365" on="1"/>
        <pt x="244" y="280" on="1"/>
        <pt x="244" y="267" on="0"/>
        <pt x="243" y="238" on="0"/>
        <pt x="242" y="223" on="1"/>
        <pt x="785" y="223" on="1"/>
      </contour>
      <contour>
        <pt x="858" y="430" on="1"/>
        <pt x="858" y="104" on="1"/>
        <pt x="785" y="104" on="1"/>
        <pt x="785" y="157" on="1"/>
        <pt x="233" y="157" on="1"/>
        <pt x="220" y="93" on="0"/>
        <pt x="154" y="-32" on="0"/>
        <pt x="89" y="-81" on="1"/>
        <pt x="82" y="-70" on="0"/>
        <pt x="46" y="-37" on="0"/>
        <pt x="34" y="-30" on="1"/>
        <pt x="95" y="15" on="0"/>
        <pt x="153" y="123" on="0"/>
        <pt x="172" y="233" on="0"/>
        <pt x="172" y="281" on="1"/>
        <pt x="172" y="430" on="1"/>
      </contour>
      <contour>
        <pt x="78" y="513" on="1"/>
        <pt x="78" y="578" on="1"/>
        <pt x="931" y="578" on="1"/>
        <pt x="931" y="513" on="1"/>
      </contour>
      <contour>
        <pt x="707" y="761" on="1"/>
        <pt x="938" y="761" on="1"/>
        <pt x="938" y="693" on="1"/>
        <pt x="707" y="693" on="1"/>
        <pt x="707" y="611" on="1"/>
        <pt x="634" y="611" on="1"/>
        <pt x="634" y="693" on="1"/>
        <pt x="362" y="693" on="1"/>
        <pt x="362" y="611" on="1"/>
        <pt x="289" y="611" on="1"/>
        <pt x="289" y="693" on="1"/>
        <pt x="65" y="693" on="1"/>
        <pt x="65" y="761" on="1"/>
        <pt x="289" y="761" on="1"/>
        <pt x="289" y="836" on="1"/>
        <pt x="362" y="836" on="1"/>
        <pt x="362" y="761" on="1"/>
        <pt x="634" y="761" on="1"/>
        <pt x="634" y="836" on="1"/>
        <pt x="707" y="836" on="1"/>
      </contour>
    </TTGlyph>
    <TTGlyph name="cid01143" xMin="37" yMin="-77" xMax="971" yMax="837">
      <contour>
        <pt x="86" y="-77" on="1"/>
        <pt x="37" y="-47" on="1"/>
        <pt x="71" y="-13" on="0"/>
        <pt x="102" y="98" on="0"/>
        <pt x="108" y="156" on="1"/>
        <pt x="162" y="143" on="1"/>
        <pt x="155" y="81" on="0"/>
        <pt x="123" y="-39" on="0"/>
      </contour>
      <contour>
        <pt x="193" y="147" on="1"/>
        <pt x="243" y="154" on="1"/>
        <pt x="252" y="110" on="0"/>
        <pt x="260" y="9" on="0"/>
        <pt x="258" y="-28" on="1"/>
        <pt x="204" y="-35" on="1"/>
        <pt x="207" y="2" on="0"/>
        <pt x="201" y="103" on="0"/>
      </contour>
      <contour>
        <pt x="279" y="148" on="1"/>
        <pt x="327" y="158" on="1"/>
        <pt x="343" y="119" on="0"/>
        <pt x="367" y="25" on="0"/>
        <pt x="370" y="-10" on="1"/>
        <pt x="320" y="-21" on="1"/>
        <pt x="317" y="14" on="0"/>
        <pt x="294" y="108" on="0"/>
      </contour>
      <contour>
        <pt x="369" y="156" on="1"/>
        <pt x="414" y="173" on="1"/>
        <pt x="434" y="140" on="0"/>
        <pt x="469" y="61" on="0"/>
        <pt x="476" y="32" on="1"/>
        <pt x="427" y="12" on="1"/>
        <pt x="420" y="41" on="0"/>
        <pt x="387" y="123" on="0"/>
      </contour>
      <contour>
        <pt x="862" y="187" on="1"/>
        <pt x="924" y="167" on="1"/>
        <pt x="868" y="73" on="0"/>
        <pt x="649" y="-43" on="0"/>
        <pt x="505" y="-74" on="1"/>
        <pt x="499" y="-61" on="0"/>
        <pt x="479" y="-29" on="0"/>
        <pt x="469" y="-18" on="1"/>
        <pt x="603" y="6" on="0"/>
        <pt x="810" y="108" on="0"/>
      </contour>
      <contour>
        <pt x="771" y="277" on="1"/>
        <pt x="827" y="257" on="1"/>
        <pt x="782" y="202" on="0"/>
        <pt x="640" y="113" on="0"/>
        <pt x="566" y="84" on="1"/>
        <pt x="559" y="95" on="0"/>
        <pt x="537" y="120" on="0"/>
        <pt x="526" y="129" on="1"/>
        <pt x="573" y="145" on="0"/>
        <pt x="666" y="191" on="0"/>
        <pt x="745" y="247" on="0"/>
      </contour>
      <contour>
        <pt x="698" y="379" on="1"/>
        <pt x="751" y="359" on="1"/>
        <pt x="717" y="316" on="0"/>
        <pt x="618" y="240" on="0"/>
        <pt x="571" y="214" on="1"/>
        <pt x="563" y="224" on="0"/>
        <pt x="539" y="245" on="0"/>
        <pt x="527" y="252" on="1"/>
        <pt x="573" y="275" on="0"/>
        <pt x="669" y="344" on="0"/>
      </contour>
      <contour>
        <pt x="372" y="424" on="1"/>
        <pt x="372" y="524" on="1"/>
        <pt x="291" y="524" on="1"/>
        <pt x="291" y="424" on="1"/>
      </contour>
      <contour>
        <pt x="372" y="263" on="1"/>
        <pt x="372" y="366" on="1"/>
        <pt x="291" y="366" on="1"/>
        <pt x="291" y="263" on="1"/>
      </contour>
      <contour>
        <pt x="160" y="366" on="1"/>
        <pt x="160" y="263" on="1"/>
        <pt x="236" y="263" on="1"/>
        <pt x="236" y="366" on="1"/>
      </contour>
      <contour>
        <pt x="236" y="524" on="1"/>
        <pt x="160" y="524" on="1"/>
        <pt x="160" y="424" on="1"/>
        <pt x="236" y="424" on="1"/>
      </contour>
      <contour>
        <pt x="302" y="688" on="1"/>
        <pt x="200" y="688" on="1"/>
        <pt x="190" y="662" on="0"/>
        <pt x="167" y="611" on="0"/>
        <pt x="154" y="585" on="1"/>
        <pt x="254" y="585" on="1"/>
        <pt x="267" y="607" on="0"/>
        <pt x="292" y="662" on="0"/>
      </contour>
      <contour>
        <pt x="960" y="454" on="1"/>
        <pt x="810" y="454" on="1"/>
        <pt x="839" y="405" on="0"/>
        <pt x="927" y="316" on="0"/>
        <pt x="971" y="291" on="1"/>
        <pt x="961" y="283" on="0"/>
        <pt x="933" y="252" on="0"/>
        <pt x="925" y="239" on="1"/>
        <pt x="891" y="262" on="0"/>
        <pt x="822" y="330" on="0"/>
        <pt x="764" y="412" on="0"/>
        <pt x="744" y="454" on="1"/>
        <pt x="651" y="454" on="1"/>
        <pt x="618" y="389" on="0"/>
        <pt x="527" y="287" on="0"/>
        <pt x="470" y="249" on="1"/>
        <pt x="465" y="257" on="0"/>
        <pt x="443" y="279" on="0"/>
        <pt x="433" y="288" on="1"/>
        <pt x="433" y="201" on="1"/>
        <pt x="101" y="201" on="1"/>
        <pt x="101" y="498" on="1"/>
        <pt x="91" y="484" on="1"/>
        <pt x="82" y="496" on="0"/>
        <pt x="50" y="521" on="0"/>
        <pt x="38" y="527" on="1"/>
        <pt x="74" y="574" on="0"/>
        <pt x="127" y="682" on="0"/>
        <pt x="164" y="790" on="0"/>
        <pt x="175" y="837" on="1"/>
        <pt x="243" y="827" on="1"/>
        <pt x="239" y="808" on="0"/>
        <pt x="227" y="767" on="0"/>
        <pt x="220" y="747" on="1"/>
        <pt x="332" y="747" on="1"/>
        <pt x="345" y="751" on="1"/>
        <pt x="388" y="722" on="1"/>
        <pt x="375" y="688" on="0"/>
        <pt x="339" y="617" on="0"/>
        <pt x="320" y="585" on="1"/>
        <pt x="433" y="585" on="1"/>
        <pt x="433" y="302" on="1"/>
        <pt x="523" y="359" on="0"/>
        <pt x="579" y="454" on="1"/>
        <pt x="456" y="454" on="1"/>
        <pt x="456" y="517" on="1"/>
        <pt x="611" y="517" on="1"/>
        <pt x="619" y="538" on="0"/>
        <pt x="634" y="582" on="0"/>
        <pt x="639" y="605" on="1"/>
        <pt x="463" y="597" on="1"/>
        <pt x="456" y="658" on="1"/>
        <pt x="543" y="661" on="1"/>
        <pt x="568" y="701" on="0"/>
        <pt x="617" y="797" on="0"/>
        <pt x="632" y="836" on="1"/>
        <pt x="708" y="813" on="1"/>
        <pt x="687" y="776" on="0"/>
        <pt x="638" y="698" on="0"/>
        <pt x="614" y="663" on="1"/>
        <pt x="829" y="671" on="1"/>
        <pt x="813" y="688" on="0"/>
        <pt x="776" y="722" on="0"/>
        <pt x="758" y="737" on="1"/>
        <pt x="813" y="767" on="1"/>
        <pt x="842" y="744" on="0"/>
        <pt x="901" y="687" on="0"/>
        <pt x="950" y="629" on="0"/>
        <pt x="963" y="603" on="1"/>
        <pt x="904" y="571" on="1"/>
        <pt x="893" y="593" on="0"/>
        <pt x="875" y="617" on="1"/>
        <pt x="831" y="615" on="0"/>
        <pt x="743" y="610" on="0"/>
        <pt x="701" y="608" on="1"/>
        <pt x="706" y="607" on="1"/>
        <pt x="696" y="559" on="0"/>
        <pt x="679" y="517" on="1"/>
        <pt x="960" y="517" on="1"/>
      </contour>
    </TTGlyph>
    <TTGlyph name="cid01144" xMin="34" yMin="-76" xMax="961" yMax="837">
      <contour>
        <pt x="790" y="440" on="1"/>
        <pt x="733" y="460" on="1"/>
        <pt x="744" y="485" on="0"/>
        <pt x="768" y="549" on="0"/>
        <pt x="790" y="615" on="0"/>
        <pt x="796" y="642" on="1"/>
        <pt x="405" y="642" on="1"/>
        <pt x="405" y="712" on="1"/>
        <pt x="630" y="712" on="1"/>
        <pt x="630" y="837" on="1"/>
        <pt x="704" y="837" on="1"/>
        <pt x="704" y="712" on="1"/>
        <pt x="938" y="712" on="1"/>
        <pt x="938" y="642" on="1"/>
        <pt x="799" y="642" on="1"/>
        <pt x="870" y="621" on="1"/>
        <pt x="851" y="575" on="0"/>
        <pt x="809" y="475" on="0"/>
      </contour>
      <contour>
        <pt x="593" y="462" on="1"/>
        <pt x="525" y="441" on="1"/>
        <pt x="522" y="475" on="0"/>
        <pt x="493" y="575" on="0"/>
        <pt x="476" y="617" on="1"/>
        <pt x="540" y="633" on="1"/>
        <pt x="559" y="592" on="0"/>
        <pt x="589" y="495" on="0"/>
      </contour>
      <contour>
        <pt x="268" y="554" on="1"/>
        <pt x="268" y="467" on="1"/>
        <pt x="279" y="453" on="0"/>
        <pt x="316" y="403" on="0"/>
        <pt x="357" y="347" on="0"/>
        <pt x="389" y="301" on="0"/>
        <pt x="396" y="290" on="1"/>
        <pt x="350" y="233" on="1"/>
        <pt x="339" y="258" on="0"/>
        <pt x="291" y="339" on="0"/>
        <pt x="268" y="376" on="1"/>
        <pt x="268" y="-75" on="1"/>
        <pt x="198" y="-75" on="1"/>
        <pt x="198" y="390" on="1"/>
        <pt x="173" y="308" on="0"/>
        <pt x="107" y="160" on="0"/>
        <pt x="72" y="111" on="1"/>
        <pt x="66" y="126" on="0"/>
        <pt x="43" y="164" on="0"/>
        <pt x="34" y="177" on="1"/>
        <pt x="65" y="219" on="0"/>
        <pt x="125" y="343" on="0"/>
        <pt x="176" y="486" on="0"/>
        <pt x="191" y="554" on="1"/>
        <pt x="55" y="554" on="1"/>
        <pt x="55" y="623" on="1"/>
        <pt x="198" y="623" on="1"/>
        <pt x="198" y="837" on="1"/>
        <pt x="268" y="837" on="1"/>
        <pt x="268" y="623" on="1"/>
        <pt x="392" y="623" on="1"/>
        <pt x="392" y="554" on="1"/>
      </contour>
      <contour>
        <pt x="961" y="367" on="1"/>
        <pt x="704" y="367" on="1"/>
        <pt x="704" y="230" on="1"/>
        <pt x="942" y="230" on="1"/>
        <pt x="942" y="161" on="1"/>
        <pt x="704" y="161" on="1"/>
        <pt x="704" y="-76" on="1"/>
        <pt x="630" y="-76" on="1"/>
        <pt x="630" y="161" on="1"/>
        <pt x="398" y="161" on="1"/>
        <pt x="398" y="230" on="1"/>
        <pt x="630" y="230" on="1"/>
        <pt x="630" y="367" on="1"/>
        <pt x="370" y="367" on="1"/>
        <pt x="370" y="436" on="1"/>
        <pt x="961" y="436" on="1"/>
      </contour>
    </TTGlyph>
    <TTGlyph name="cid01145" xMin="39" yMin="-74" xMax="951" yMax="770">
      <contour>
        <pt x="214" y="699" on="1"/>
        <pt x="214" y="483" on="1"/>
        <pt x="214" y="422" on="0"/>
        <pt x="206" y="278" on="0"/>
        <pt x="183" y="128" on="0"/>
        <pt x="140" y="-15" on="0"/>
        <pt x="104" y="-74" on="1"/>
        <pt x="94" y="-65" on="0"/>
        <pt x="53" y="-41" on="0"/>
        <pt x="39" y="-35" on="1"/>
        <pt x="74" y="21" on="0"/>
        <pt x="114" y="153" on="0"/>
        <pt x="133" y="291" on="0"/>
        <pt x="139" y="424" on="0"/>
        <pt x="139" y="482" on="1"/>
        <pt x="139" y="770" on="1"/>
        <pt x="933" y="770" on="1"/>
        <pt x="933" y="699" on="1"/>
      </contour>
      <contour>
        <pt x="603" y="30" on="1"/>
        <pt x="951" y="30" on="1"/>
        <pt x="951" y="-41" on="1"/>
        <pt x="199" y="-41" on="1"/>
        <pt x="199" y="30" on="1"/>
        <pt x="529" y="30" on="1"/>
        <pt x="529" y="352" on="1"/>
        <pt x="266" y="352" on="1"/>
        <pt x="266" y="423" on="1"/>
        <pt x="529" y="423" on="1"/>
        <pt x="529" y="646" on="1"/>
        <pt x="603" y="646" on="1"/>
        <pt x="603" y="423" on="1"/>
        <pt x="885" y="423" on="1"/>
        <pt x="885" y="352" on="1"/>
        <pt x="603" y="352" on="1"/>
      </contour>
    </TTGlyph>
    <TTGlyph name="cid01146" xMin="45" yMin="-79" xMax="977" yMax="837">
      <contour>
        <pt x="672" y="832" on="1"/>
        <pt x="741" y="832" on="1"/>
        <pt x="770" y="782" on="0"/>
        <pt x="847" y="682" on="0"/>
        <pt x="934" y="598" on="0"/>
        <pt x="977" y="570" on="1"/>
        <pt x="967" y="557" on="0"/>
        <pt x="944" y="519" on="0"/>
        <pt x="936" y="504" on="1"/>
        <pt x="893" y="536" on="0"/>
        <pt x="808" y="622" on="0"/>
        <pt x="736" y="716" on="0"/>
        <pt x="710" y="761" on="1"/>
        <pt x="688" y="716" on="0"/>
        <pt x="618" y="619" on="0"/>
        <pt x="533" y="529" on="0"/>
        <pt x="486" y="494" on="1"/>
        <pt x="480" y="509" on="0"/>
        <pt x="458" y="543" on="0"/>
        <pt x="447" y="556" on="1"/>
        <pt x="494" y="588" on="0"/>
        <pt x="581" y="681" on="0"/>
        <pt x="651" y="784" on="0"/>
      </contour>
      <contour>
        <pt x="746" y="426" on="1"/>
        <pt x="695" y="380" on="1"/>
        <pt x="674" y="404" on="0"/>
        <pt x="596" y="466" on="0"/>
        <pt x="559" y="489" on="1"/>
        <pt x="608" y="530" on="1"/>
        <pt x="644" y="509" on="0"/>
        <pt x="724" y="450" on="0"/>
      </contour>
      <contour>
        <pt x="488" y="347" on="1"/>
        <pt x="534" y="390" on="1"/>
        <pt x="574" y="371" on="0"/>
        <pt x="660" y="316" on="0"/>
        <pt x="683" y="292" on="1"/>
        <pt x="633" y="243" on="1"/>
        <pt x="611" y="267" on="0"/>
        <pt x="527" y="326" on="0"/>
      </contour>
      <contour>
        <pt x="155" y="389" on="1"/>
        <pt x="155" y="311" on="1"/>
        <pt x="376" y="311" on="1"/>
        <pt x="376" y="389" on="1"/>
      </contour>
      <contour>
        <pt x="155" y="522" on="1"/>
        <pt x="155" y="446" on="1"/>
        <pt x="376" y="446" on="1"/>
        <pt x="376" y="522" on="1"/>
      </contour>
      <contour>
        <pt x="300" y="252" on="1"/>
        <pt x="300" y="169" on="1"/>
        <pt x="477" y="169" on="1"/>
        <pt x="477" y="101" on="1"/>
        <pt x="300" y="101" on="1"/>
        <pt x="300" y="-76" on="1"/>
        <pt x="228" y="-76" on="1"/>
        <pt x="228" y="101" on="1"/>
        <pt x="45" y="101" on="1"/>
        <pt x="45" y="169" on="1"/>
        <pt x="228" y="169" on="1"/>
        <pt x="228" y="252" on="1"/>
        <pt x="88" y="252" on="1"/>
        <pt x="88" y="581" on="1"/>
        <pt x="228" y="581" on="1"/>
        <pt x="228" y="665" on="1"/>
        <pt x="56" y="665" on="1"/>
        <pt x="56" y="731" on="1"/>
        <pt x="228" y="731" on="1"/>
        <pt x="228" y="837" on="1"/>
        <pt x="300" y="837" on="1"/>
        <pt x="300" y="731" on="1"/>
        <pt x="474" y="731" on="1"/>
        <pt x="474" y="665" on="1"/>
        <pt x="300" y="665" on="1"/>
        <pt x="300" y="581" on="1"/>
        <pt x="444" y="581" on="1"/>
        <pt x="444" y="252" on="1"/>
      </contour>
      <contour>
        <pt x="942" y="226" on="1"/>
        <pt x="954" y="160" on="1"/>
        <pt x="830" y="137" on="1"/>
        <pt x="830" y="-79" on="1"/>
        <pt x="758" y="-79" on="1"/>
        <pt x="758" y="123" on="1"/>
        <pt x="497" y="74" on="1"/>
        <pt x="484" y="139" on="1"/>
        <pt x="758" y="191" on="1"/>
        <pt x="758" y="556" on="1"/>
        <pt x="830" y="556" on="1"/>
        <pt x="830" y="205" on="1"/>
      </contour>
    </TTGlyph>
    <TTGlyph name="cid01147" xMin="33" yMin="-77" xMax="965" yMax="836">
      <contour>
        <pt x="388" y="340" on="1"/>
        <pt x="262" y="301" on="1"/>
        <pt x="262" y="11" on="1"/>
        <pt x="262" y="-20" on="0"/>
        <pt x="246" y="-54" on="0"/>
        <pt x="227" y="-63" on="1"/>
        <pt x="208" y="-71" on="0"/>
        <pt x="144" y="-76" on="0"/>
        <pt x="94" y="-75" on="1"/>
        <pt x="92" y="-61" on="0"/>
        <pt x="80" y="-21" on="0"/>
        <pt x="72" y="-8" on="1"/>
        <pt x="106" y="-9" on="0"/>
        <pt x="161" y="-9" on="0"/>
        <pt x="171" y="-8" on="1"/>
        <pt x="181" y="-8" on="0"/>
        <pt x="189" y="0" on="0"/>
        <pt x="189" y="11" on="1"/>
        <pt x="189" y="279" on="1"/>
        <pt x="53" y="238" on="1"/>
        <pt x="33" y="310" on="1"/>
        <pt x="65" y="318" on="0"/>
        <pt x="145" y="340" on="0"/>
        <pt x="189" y="353" on="1"/>
        <pt x="189" y="567" on="1"/>
        <pt x="47" y="567" on="1"/>
        <pt x="47" y="635" on="1"/>
        <pt x="189" y="635" on="1"/>
        <pt x="189" y="836" on="1"/>
        <pt x="262" y="836" on="1"/>
        <pt x="262" y="635" on="1"/>
        <pt x="377" y="635" on="1"/>
        <pt x="377" y="567" on="1"/>
        <pt x="262" y="567" on="1"/>
        <pt x="262" y="374" on="1"/>
        <pt x="378" y="409" on="1"/>
      </contour>
      <contour>
        <pt x="714" y="714" on="1"/>
        <pt x="528" y="714" on="1"/>
        <pt x="527" y="657" on="0"/>
        <pt x="525" y="603" on="1"/>
        <pt x="551" y="475" on="0"/>
        <pt x="642" y="254" on="0"/>
        <pt x="711" y="168" on="1"/>
        <pt x="761" y="228" on="0"/>
        <pt x="839" y="378" on="0"/>
        <pt x="861" y="469" on="1"/>
        <pt x="740" y="469" on="1"/>
        <pt x="729" y="418" on="1"/>
        <pt x="662" y="425" on="1"/>
        <pt x="671" y="469" on="0"/>
        <pt x="690" y="571" on="0"/>
        <pt x="708" y="672" on="0"/>
      </contour>
      <contour>
        <pt x="900" y="539" on="1"/>
        <pt x="946" y="522" on="1"/>
        <pt x="921" y="392" on="0"/>
        <pt x="825" y="190" on="0"/>
        <pt x="760" y="115" on="1"/>
        <pt x="847" y="30" on="0"/>
        <pt x="965" y="-13" on="1"/>
        <pt x="952" y="-23" on="0"/>
        <pt x="922" y="-63" on="0"/>
        <pt x="914" y="-77" on="1"/>
        <pt x="853" y="-52" on="0"/>
        <pt x="752" y="19" on="0"/>
        <pt x="709" y="63" on="1"/>
        <pt x="661" y="19" on="0"/>
        <pt x="552" y="-49" on="0"/>
        <pt x="493" y="-73" on="1"/>
        <pt x="486" y="-59" on="0"/>
        <pt x="461" y="-25" on="0"/>
        <pt x="449" y="-15" on="1"/>
        <pt x="568" y="28" on="0"/>
        <pt x="663" y="117" on="1"/>
        <pt x="614" y="180" on="0"/>
        <pt x="541" y="332" on="0"/>
        <pt x="514" y="419" on="1"/>
        <pt x="500" y="266" on="0"/>
        <pt x="431" y="22" on="0"/>
        <pt x="360" y="-73" on="1"/>
        <pt x="350" y="-65" on="0"/>
        <pt x="309" y="-34" on="0"/>
        <pt x="295" y="-26" on="1"/>
        <pt x="362" y="54" on="0"/>
        <pt x="430" y="275" on="0"/>
        <pt x="455" y="552" on="0"/>
        <pt x="457" y="714" on="1"/>
        <pt x="384" y="714" on="1"/>
        <pt x="384" y="783" on="1"/>
        <pt x="732" y="783" on="1"/>
        <pt x="744" y="787" on="1"/>
        <pt x="795" y="779" on="1"/>
        <pt x="788" y="727" on="0"/>
        <pt x="765" y="599" on="0"/>
        <pt x="753" y="535" on="1"/>
        <pt x="886" y="535" on="1"/>
      </contour>
    </TTGlyph>
    <TTGlyph name="cid01148" xMin="33" yMin="-80" xMax="950" yMax="836">
      <contour>
        <pt x="150" y="667" on="1"/>
        <pt x="150" y="539" on="1"/>
        <pt x="78" y="539" on="1"/>
        <pt x="78" y="734" on="1"/>
        <pt x="462" y="734" on="1"/>
        <pt x="462" y="836" on="1"/>
        <pt x="536" y="836" on="1"/>
        <pt x="536" y="734" on="1"/>
        <pt x="922" y="734" on="1"/>
        <pt x="922" y="550" on="1"/>
        <pt x="847" y="550" on="1"/>
        <pt x="847" y="667" on="1"/>
      </contour>
      <contour>
        <pt x="419" y="426" on="1"/>
        <pt x="253" y="426" on="1"/>
        <pt x="242" y="407" on="0"/>
        <pt x="217" y="369" on="0"/>
        <pt x="204" y="351" on="1"/>
        <pt x="243" y="326" on="0"/>
        <pt x="320" y="265" on="0"/>
        <pt x="347" y="237" on="1"/>
        <pt x="370" y="278" on="0"/>
        <pt x="407" y="373" on="0"/>
      </contour>
      <contour>
        <pt x="444" y="492" on="1"/>
        <pt x="457" y="494" on="1"/>
        <pt x="503" y="478" on="1"/>
        <pt x="476" y="328" on="0"/>
        <pt x="361" y="109" on="0"/>
        <pt x="198" y="-38" on="0"/>
        <pt x="99" y="-80" on="1"/>
        <pt x="92" y="-66" on="0"/>
        <pt x="67" y="-29" on="0"/>
        <pt x="56" y="-18" on="1"/>
        <pt x="129" y="9" on="0"/>
        <pt x="258" y="105" on="0"/>
        <pt x="308" y="175" on="1"/>
        <pt x="283" y="204" on="0"/>
        <pt x="204" y="272" on="0"/>
        <pt x="163" y="300" on="1"/>
        <pt x="146" y="281" on="0"/>
        <pt x="109" y="245" on="0"/>
        <pt x="90" y="229" on="1"/>
        <pt x="82" y="239" on="0"/>
        <pt x="46" y="271" on="0"/>
        <pt x="33" y="279" on="1"/>
        <pt x="110" y="337" on="0"/>
        <pt x="227" y="511" on="0"/>
        <pt x="260" y="614" on="1"/>
        <pt x="330" y="597" on="1"/>
        <pt x="312" y="543" on="0"/>
        <pt x="288" y="492" on="1"/>
      </contour>
      <contour>
        <pt x="670" y="4" on="1"/>
        <pt x="829" y="4" on="1"/>
        <pt x="850" y="4" on="0"/>
        <pt x="871" y="25" on="0"/>
        <pt x="880" y="85" on="0"/>
        <pt x="882" y="143" on="1"/>
        <pt x="896" y="133" on="0"/>
        <pt x="934" y="117" on="0"/>
        <pt x="950" y="113" on="1"/>
        <pt x="945" y="44" on="0"/>
        <pt x="923" y="-33" on="0"/>
        <pt x="876" y="-65" on="0"/>
        <pt x="834" y="-65" on="1"/>
        <pt x="663" y="-65" on="1"/>
        <pt x="618" y="-65" on="0"/>
        <pt x="565" y="-46" on="0"/>
        <pt x="543" y="4" on="0"/>
        <pt x="543" y="50" on="1"/>
        <pt x="543" y="529" on="1"/>
        <pt x="872" y="529" on="1"/>
        <pt x="872" y="500" on="1"/>
        <pt x="871" y="403" on="0"/>
        <pt x="867" y="284" on="0"/>
        <pt x="858" y="223" on="0"/>
        <pt x="849" y="211" on="1"/>
        <pt x="839" y="198" on="0"/>
        <pt x="815" y="186" on="0"/>
        <pt x="798" y="184" on="1"/>
        <pt x="782" y="182" on="0"/>
        <pt x="731" y="182" on="0"/>
        <pt x="703" y="184" on="1"/>
        <pt x="702" y="199" on="0"/>
        <pt x="692" y="237" on="0"/>
        <pt x="684" y="250" on="1"/>
        <pt x="711" y="247" on="0"/>
        <pt x="755" y="246" on="0"/>
        <pt x="764" y="246" on="1"/>
        <pt x="782" y="246" on="0"/>
        <pt x="789" y="256" on="1"/>
        <pt x="796" y="266" on="0"/>
        <pt x="802" y="356" on="0"/>
        <pt x="803" y="462" on="1"/>
        <pt x="616" y="462" on="1"/>
        <pt x="616" y="49" on="1"/>
        <pt x="616" y="21" on="0"/>
        <pt x="636" y="4" on="0"/>
      </contour>
    </TTGlyph>
    <TTGlyph name="cid01149" xMin="45" yMin="-76" xMax="957" yMax="839">
      <contour>
        <pt x="344" y="565" on="1"/>
        <pt x="208" y="565" on="1"/>
        <pt x="192" y="501" on="0"/>
        <pt x="160" y="376" on="0"/>
        <pt x="144" y="319" on="1"/>
        <pt x="174" y="302" on="0"/>
        <pt x="235" y="262" on="0"/>
        <pt x="265" y="240" on="1"/>
        <pt x="294" y="307" on="0"/>
        <pt x="334" y="469" on="0"/>
      </contour>
      <contour>
        <pt x="428" y="95" on="1"/>
        <pt x="383" y="36" on="1"/>
        <pt x="348" y="80" on="0"/>
        <pt x="291" y="130" on="1"/>
        <pt x="251" y="61" on="0"/>
        <pt x="152" y="-41" on="0"/>
        <pt x="91" y="-76" on="1"/>
        <pt x="84" y="-62" on="0"/>
        <pt x="57" y="-27" on="0"/>
        <pt x="45" y="-16" on="1"/>
        <pt x="159" y="43" on="0"/>
        <pt x="234" y="176" on="1"/>
        <pt x="208" y="196" on="0"/>
        <pt x="152" y="235" on="0"/>
        <pt x="125" y="253" on="1"/>
        <pt x="111" y="205" on="1"/>
        <pt x="48" y="236" on="1"/>
        <pt x="68" y="300" on="0"/>
        <pt x="115" y="473" on="0"/>
        <pt x="138" y="565" on="1"/>
        <pt x="47" y="565" on="1"/>
        <pt x="47" y="634" on="1"/>
        <pt x="154" y="634" on="1"/>
        <pt x="167" y="688" on="0"/>
        <pt x="190" y="793" on="0"/>
        <pt x="200" y="839" on="1"/>
        <pt x="271" y="830" on="1"/>
        <pt x="261" y="785" on="0"/>
        <pt x="238" y="686" on="0"/>
        <pt x="225" y="634" on="1"/>
        <pt x="362" y="634" on="1"/>
        <pt x="375" y="636" on="1"/>
        <pt x="419" y="627" on="1"/>
        <pt x="409" y="493" on="0"/>
        <pt x="361" y="279" on="0"/>
        <pt x="324" y="196" on="1"/>
        <pt x="356" y="170" on="0"/>
        <pt x="410" y="118" on="0"/>
      </contour>
      <contour>
        <pt x="565" y="206" on="1"/>
        <pt x="565" y="14" on="1"/>
        <pt x="811" y="14" on="1"/>
        <pt x="811" y="206" on="1"/>
      </contour>
      <contour>
        <pt x="811" y="714" on="1"/>
        <pt x="565" y="714" on="1"/>
        <pt x="565" y="531" on="1"/>
        <pt x="811" y="531" on="1"/>
      </contour>
      <contour>
        <pt x="811" y="275" on="1"/>
        <pt x="811" y="463" on="1"/>
        <pt x="565" y="463" on="1"/>
        <pt x="565" y="275" on="1"/>
      </contour>
      <contour>
        <pt x="883" y="14" on="1"/>
        <pt x="957" y="14" on="1"/>
        <pt x="957" y="-56" on="1"/>
        <pt x="374" y="-56" on="1"/>
        <pt x="374" y="14" on="1"/>
        <pt x="494" y="14" on="1"/>
        <pt x="494" y="784" on="1"/>
        <pt x="883" y="784" on="1"/>
      </contour>
    </TTGlyph>
    <TTGlyph name="cid01150" xMin="38" yMin="-41" xMax="956" yMax="832">
      <contour>
        <pt x="140" y="597" on="1"/>
        <pt x="140" y="363" on="1"/>
        <pt x="228" y="363" on="1"/>
        <pt x="228" y="597" on="1"/>
      </contour>
      <contour>
        <pt x="375" y="363" on="1"/>
        <pt x="375" y="597" on="1"/>
        <pt x="284" y="597" on="1"/>
        <pt x="284" y="363" on="1"/>
      </contour>
      <contour>
        <pt x="347" y="227" on="1"/>
        <pt x="404" y="244" on="1"/>
        <pt x="423" y="205" on="0"/>
        <pt x="456" y="114" on="0"/>
        <pt x="480" y="27" on="0"/>
        <pt x="484" y="-7" on="1"/>
        <pt x="424" y="-26" on="1"/>
        <pt x="422" y="-9" on="0"/>
        <pt x="414" y="29" on="0"/>
        <pt x="408" y="50" on="1"/>
        <pt x="312" y="35" on="0"/>
        <pt x="123" y="6" on="0"/>
        <pt x="49" y="-5" on="1"/>
        <pt x="38" y="67" on="1"/>
        <pt x="76" y="72" on="0"/>
        <pt x="171" y="84" on="0"/>
        <pt x="223" y="91" on="1"/>
        <pt x="223" y="299" on="1"/>
        <pt x="140" y="299" on="1"/>
        <pt x="140" y="251" on="1"/>
        <pt x="82" y="251" on="1"/>
        <pt x="82" y="660" on="1"/>
        <pt x="223" y="660" on="1"/>
        <pt x="223" y="831" on="1"/>
        <pt x="290" y="831" on="1"/>
        <pt x="290" y="660" on="1"/>
        <pt x="435" y="660" on="1"/>
        <pt x="435" y="299" on="1"/>
        <pt x="289" y="299" on="1"/>
        <pt x="289" y="101" on="1"/>
        <pt x="389" y="115" on="1"/>
        <pt x="380" y="144" on="0"/>
        <pt x="358" y="202" on="0"/>
      </contour>
      <contour>
        <pt x="956" y="559" on="1"/>
        <pt x="576" y="559" on="1"/>
        <pt x="576" y="98" on="1"/>
        <pt x="576" y="59" on="0"/>
        <pt x="602" y="29" on="0"/>
        <pt x="637" y="29" on="1"/>
        <pt x="852" y="29" on="1"/>
        <pt x="873" y="29" on="0"/>
        <pt x="926" y="33" on="0"/>
        <pt x="942" y="35" on="1"/>
        <pt x="944" y="22" on="0"/>
        <pt x="949" y="-21" on="0"/>
        <pt x="952" y="-34" on="1"/>
        <pt x="919" y="-41" on="0"/>
        <pt x="851" y="-41" on="1"/>
        <pt x="641" y="-41" on="1"/>
        <pt x="564" y="-41" on="0"/>
        <pt x="503" y="22" on="0"/>
        <pt x="503" y="102" on="1"/>
        <pt x="503" y="628" on="1"/>
        <pt x="678" y="628" on="1"/>
        <pt x="678" y="832" on="1"/>
        <pt x="751" y="832" on="1"/>
        <pt x="751" y="628" on="1"/>
        <pt x="956" y="628" on="1"/>
      </contour>
    </TTGlyph>
    <TTGlyph name="cid01151" xMin="22" yMin="-77" xMax="966" yMax="837">
      <contour>
        <pt x="457" y="484" on="1"/>
        <pt x="525" y="488" on="1"/>
        <pt x="546" y="537" on="0"/>
        <pt x="587" y="659" on="0"/>
        <pt x="624" y="784" on="0"/>
        <pt x="635" y="837" on="1"/>
        <pt x="716" y="819" on="1"/>
        <pt x="700" y="767" on="0"/>
        <pt x="662" y="651" on="0"/>
        <pt x="622" y="540" on="0"/>
        <pt x="602" y="493" on="1"/>
        <pt x="657" y="497" on="0"/>
        <pt x="778" y="507" on="0"/>
        <pt x="840" y="512" on="1"/>
        <pt x="821" y="547" on="0"/>
        <pt x="779" y="616" on="0"/>
        <pt x="758" y="647" on="1"/>
        <pt x="819" y="675" on="1"/>
        <pt x="849" y="634" on="0"/>
        <pt x="908" y="538" on="0"/>
        <pt x="954" y="446" on="0"/>
        <pt x="966" y="410" on="1"/>
        <pt x="900" y="376" on="1"/>
        <pt x="889" y="409" on="0"/>
        <pt x="871" y="448" on="1"/>
        <pt x="762" y="438" on="0"/>
        <pt x="549" y="419" on="0"/>
        <pt x="469" y="412" on="1"/>
      </contour>
      <contour>
        <pt x="376" y="518" on="1"/>
        <pt x="181" y="518" on="1"/>
        <pt x="181" y="440" on="1"/>
        <pt x="376" y="440" on="1"/>
      </contour>
      <contour>
        <pt x="181" y="307" on="1"/>
        <pt x="376" y="307" on="1"/>
        <pt x="376" y="387" on="1"/>
        <pt x="181" y="387" on="1"/>
      </contour>
      <contour>
        <pt x="292" y="196" on="1"/>
        <pt x="352" y="223" on="1"/>
        <pt x="378" y="188" on="0"/>
        <pt x="428" y="107" on="0"/>
        <pt x="466" y="28" on="0"/>
        <pt x="475" y="-3" on="1"/>
        <pt x="413" y="-33" on="1"/>
        <pt x="403" y="1" on="0"/>
        <pt x="381" y="46" on="1"/>
        <pt x="298" y="24" on="0"/>
        <pt x="134" y="-19" on="0"/>
        <pt x="67" y="-35" on="1"/>
        <pt x="43" y="33" on="1"/>
        <pt x="59" y="36" on="0"/>
        <pt x="93" y="43" on="0"/>
        <pt x="112" y="47" on="1"/>
        <pt x="112" y="561" on="1"/>
        <pt x="102" y="553" on="0"/>
        <pt x="83" y="535" on="0"/>
        <pt x="72" y="527" on="1"/>
        <pt x="63" y="539" on="0"/>
        <pt x="33" y="567" on="0"/>
        <pt x="22" y="573" on="1"/>
        <pt x="99" y="631" on="0"/>
        <pt x="208" y="775" on="0"/>
        <pt x="236" y="836" on="1"/>
        <pt x="308" y="836" on="1"/>
        <pt x="342" y="811" on="0"/>
        <pt x="411" y="748" on="0"/>
        <pt x="470" y="685" on="0"/>
        <pt x="488" y="659" on="1"/>
        <pt x="438" y="609" on="1"/>
        <pt x="422" y="632" on="0"/>
        <pt x="372" y="691" on="0"/>
        <pt x="313" y="751" on="0"/>
        <pt x="283" y="774" on="1"/>
        <pt x="256" y="728" on="0"/>
        <pt x="177" y="623" on="0"/>
        <pt x="124" y="573" on="1"/>
        <pt x="257" y="573" on="1"/>
        <pt x="257" y="673" on="1"/>
        <pt x="322" y="673" on="1"/>
        <pt x="322" y="573" on="1"/>
        <pt x="443" y="573" on="1"/>
        <pt x="443" y="250" on="1"/>
        <pt x="181" y="250" on="1"/>
        <pt x="181" y="63" on="1"/>
        <pt x="222" y="72" on="0"/>
        <pt x="308" y="93" on="0"/>
        <pt x="351" y="103" on="1"/>
        <pt x="338" y="128" on="0"/>
        <pt x="308" y="175" on="0"/>
      </contour>
      <contour>
        <pt x="834" y="257" on="1"/>
        <pt x="583" y="257" on="1"/>
        <pt x="583" y="45" on="1"/>
        <pt x="834" y="45" on="1"/>
      </contour>
      <contour>
        <pt x="514" y="-77" on="1"/>
        <pt x="514" y="325" on="1"/>
        <pt x="907" y="325" on="1"/>
        <pt x="907" y="-77" on="1"/>
        <pt x="834" y="-77" on="1"/>
        <pt x="834" y="-22" on="1"/>
        <pt x="583" y="-22" on="1"/>
        <pt x="583" y="-77" on="1"/>
      </contour>
    </TTGlyph>
    <TTGlyph name="cid01152" xMin="29" yMin="-78" xMax="940" yMax="837">
      <contour>
        <pt x="94" y="270" on="1"/>
        <pt x="158" y="258" on="1"/>
        <pt x="148" y="188" on="0"/>
        <pt x="112" y="52" on="0"/>
        <pt x="87" y="4" on="1"/>
        <pt x="78" y="11" on="0"/>
        <pt x="41" y="28" on="0"/>
        <pt x="29" y="32" on="1"/>
        <pt x="54" y="78" on="0"/>
        <pt x="86" y="204" on="0"/>
      </contour>
      <contour>
        <pt x="300" y="259" on="1"/>
        <pt x="354" y="277" on="1"/>
        <pt x="374" y="234" on="0"/>
        <pt x="411" y="132" on="0"/>
        <pt x="418" y="95" on="1"/>
        <pt x="361" y="76" on="1"/>
        <pt x="354" y="114" on="0"/>
        <pt x="320" y="216" on="0"/>
      </contour>
      <contour>
        <pt x="274" y="493" on="1"/>
        <pt x="326" y="514" on="1"/>
        <pt x="347" y="482" on="0"/>
        <pt x="385" y="408" on="0"/>
        <pt x="414" y="337" on="0"/>
        <pt x="420" y="310" on="1"/>
        <pt x="364" y="285" on="1"/>
        <pt x="361" y="298" on="0"/>
        <pt x="352" y="327" on="0"/>
        <pt x="346" y="343" on="1"/>
        <pt x="267" y="338" on="1"/>
        <pt x="267" y="-78" on="1"/>
        <pt x="201" y="-78" on="1"/>
        <pt x="201" y="334" on="1"/>
        <pt x="158" y="332" on="0"/>
        <pt x="79" y="327" on="0"/>
        <pt x="44" y="325" on="1"/>
        <pt x="38" y="391" on="1"/>
        <pt x="104" y="394" on="1"/>
        <pt x="137" y="436" on="0"/>
        <pt x="170" y="486" on="1"/>
        <pt x="147" y="520" on="0"/>
        <pt x="76" y="597" on="0"/>
        <pt x="41" y="628" on="1"/>
        <pt x="79" y="676" on="1"/>
        <pt x="87" y="670" on="0"/>
        <pt x="101" y="657" on="0"/>
        <pt x="108" y="650" on="1"/>
        <pt x="134" y="692" on="0"/>
        <pt x="182" y="795" on="0"/>
        <pt x="198" y="836" on="1"/>
        <pt x="263" y="810" on="1"/>
        <pt x="238" y="761" on="0"/>
        <pt x="178" y="651" on="0"/>
        <pt x="150" y="609" on="1"/>
        <pt x="167" y="593" on="0"/>
        <pt x="196" y="559" on="0"/>
        <pt x="208" y="544" on="1"/>
        <pt x="237" y="591" on="0"/>
        <pt x="290" y="683" on="0"/>
        <pt x="309" y="723" on="1"/>
        <pt x="372" y="695" on="1"/>
        <pt x="344" y="648" on="0"/>
        <pt x="276" y="542" on="0"/>
        <pt x="206" y="440" on="0"/>
        <pt x="173" y="397" on="1"/>
        <pt x="321" y="403" on="1"/>
        <pt x="311" y="426" on="0"/>
        <pt x="287" y="473" on="0"/>
      </contour>
      <contour>
        <pt x="684" y="461" on="1"/>
        <pt x="529" y="461" on="1"/>
        <pt x="529" y="353" on="1"/>
        <pt x="684" y="353" on="1"/>
      </contour>
      <contour>
        <pt x="529" y="185" on="1"/>
        <pt x="684" y="185" on="1"/>
        <pt x="684" y="293" on="1"/>
        <pt x="529" y="293" on="1"/>
      </contour>
      <contour>
        <pt x="746" y="124" on="1"/>
        <pt x="529" y="124" on="1"/>
        <pt x="529" y="73" on="1"/>
        <pt x="468" y="73" on="1"/>
        <pt x="468" y="522" on="1"/>
        <pt x="746" y="522" on="1"/>
      </contour>
      <contour>
        <pt x="940" y="688" on="1"/>
        <pt x="940" y="649" on="1"/>
        <pt x="935" y="472" on="0"/>
        <pt x="924" y="227" on="0"/>
        <pt x="910" y="72" on="0"/>
        <pt x="890" y="-13" on="0"/>
        <pt x="876" y="-31" on="1"/>
        <pt x="861" y="-53" on="0"/>
        <pt x="826" y="-70" on="0"/>
        <pt x="802" y="-72" on="1"/>
        <pt x="777" y="-74" on="0"/>
        <pt x="704" y="-73" on="0"/>
        <pt x="665" y="-71" on="1"/>
        <pt x="664" y="-56" on="0"/>
        <pt x="652" y="-13" on="0"/>
        <pt x="642" y="1" on="1"/>
        <pt x="685" y="-2" on="0"/>
        <pt x="757" y="-4" on="0"/>
        <pt x="772" y="-4" on="1"/>
        <pt x="786" y="-4" on="0"/>
        <pt x="805" y="3" on="0"/>
        <pt x="812" y="13" on="1"/>
        <pt x="823" y="26" on="0"/>
        <pt x="841" y="102" on="0"/>
        <pt x="854" y="243" on="0"/>
        <pt x="864" y="463" on="0"/>
        <pt x="868" y="620" on="1"/>
        <pt x="524" y="620" on="1"/>
        <pt x="500" y="574" on="0"/>
        <pt x="446" y="492" on="0"/>
        <pt x="417" y="459" on="1"/>
        <pt x="407" y="469" on="0"/>
        <pt x="369" y="497" on="0"/>
        <pt x="355" y="504" on="1"/>
        <pt x="413" y="564" on="0"/>
        <pt x="503" y="740" on="0"/>
        <pt x="530" y="837" on="1"/>
        <pt x="603" y="820" on="1"/>
        <pt x="583" y="751" on="0"/>
        <pt x="556" y="688" on="1"/>
      </contour>
    </TTGlyph>
    <TTGlyph name="cid01153" xMin="31" yMin="-79" xMax="970" yMax="837">
      <contour>
        <pt x="711" y="535" on="1"/>
        <pt x="602" y="535" on="1"/>
        <pt x="595" y="484" on="0"/>
        <pt x="558" y="407" on="0"/>
        <pt x="485" y="352" on="0"/>
        <pt x="423" y="333" on="1"/>
        <pt x="418" y="346" on="0"/>
        <pt x="394" y="378" on="0"/>
        <pt x="383" y="386" on="1"/>
        <pt x="462" y="406" on="0"/>
        <pt x="526" y="477" on="0"/>
        <pt x="534" y="535" on="1"/>
        <pt x="392" y="535" on="1"/>
        <pt x="392" y="598" on="1"/>
        <pt x="630" y="598" on="1"/>
        <pt x="630" y="687" on="1"/>
        <pt x="435" y="687" on="1"/>
        <pt x="435" y="750" on="1"/>
        <pt x="630" y="750" on="1"/>
        <pt x="630" y="837" on="1"/>
        <pt x="702" y="837" on="1"/>
        <pt x="702" y="750" on="1"/>
        <pt x="906" y="750" on="1"/>
        <pt x="906" y="687" on="1"/>
        <pt x="702" y="687" on="1"/>
        <pt x="702" y="598" on="1"/>
        <pt x="944" y="598" on="1"/>
        <pt x="944" y="535" on="1"/>
        <pt x="779" y="535" on="1"/>
        <pt x="779" y="436" on="1"/>
        <pt x="779" y="423" on="0"/>
        <pt x="789" y="415" on="0"/>
        <pt x="805" y="415" on="1"/>
        <pt x="878" y="415" on="1"/>
        <pt x="892" y="415" on="0"/>
        <pt x="903" y="438" on="0"/>
        <pt x="904" y="484" on="1"/>
        <pt x="913" y="477" on="0"/>
        <pt x="949" y="465" on="0"/>
        <pt x="963" y="461" on="1"/>
        <pt x="958" y="398" on="0"/>
        <pt x="925" y="357" on="0"/>
        <pt x="887" y="357" on="1"/>
        <pt x="796" y="357" on="1"/>
        <pt x="744" y="357" on="0"/>
        <pt x="711" y="390" on="0"/>
        <pt x="711" y="436" on="1"/>
      </contour>
      <contour>
        <pt x="92" y="270" on="1"/>
        <pt x="153" y="259" on="1"/>
        <pt x="143" y="189" on="0"/>
        <pt x="109" y="54" on="0"/>
        <pt x="85" y="6" on="1"/>
        <pt x="77" y="12" on="0"/>
        <pt x="42" y="28" on="0"/>
        <pt x="31" y="32" on="1"/>
        <pt x="54" y="78" on="0"/>
        <pt x="84" y="205" on="0"/>
      </contour>
      <contour>
        <pt x="328" y="349" on="1"/>
        <pt x="256" y="345" on="1"/>
        <pt x="256" y="-76" on="1"/>
        <pt x="191" y="-76" on="1"/>
        <pt x="191" y="341" on="1"/>
        <pt x="150" y="338" on="0"/>
        <pt x="74" y="333" on="0"/>
        <pt x="40" y="331" on="1"/>
        <pt x="33" y="398" on="1"/>
        <pt x="50" y="399" on="0"/>
        <pt x="87" y="400" on="0"/>
        <pt x="106" y="401" on="1"/>
        <pt x="120" y="420" on="0"/>
        <pt x="150" y="462" on="0"/>
        <pt x="165" y="485" on="1"/>
        <pt x="143" y="519" on="0"/>
        <pt x="75" y="599" on="0"/>
        <pt x="40" y="631" on="1"/>
        <pt x="80" y="677" on="1"/>
        <pt x="88" y="670" on="0"/>
        <pt x="104" y="655" on="0"/>
        <pt x="111" y="647" on="1"/>
        <pt x="135" y="690" on="0"/>
        <pt x="184" y="795" on="0"/>
        <pt x="199" y="836" on="1"/>
        <pt x="263" y="812" on="1"/>
        <pt x="238" y="760" on="0"/>
        <pt x="177" y="647" on="0"/>
        <pt x="151" y="606" on="1"/>
        <pt x="180" y="574" on="0"/>
        <pt x="203" y="543" on="1"/>
        <pt x="232" y="590" on="0"/>
        <pt x="285" y="683" on="0"/>
        <pt x="304" y="723" on="1"/>
        <pt x="365" y="696" on="1"/>
        <pt x="338" y="650" on="0"/>
        <pt x="273" y="547" on="0"/>
        <pt x="205" y="447" on="0"/>
        <pt x="173" y="405" on="1"/>
        <pt x="306" y="412" on="1"/>
        <pt x="298" y="435" on="0"/>
        <pt x="278" y="481" on="0"/>
        <pt x="268" y="501" on="1"/>
        <pt x="321" y="519" on="1"/>
        <pt x="340" y="486" on="0"/>
        <pt x="372" y="409" on="0"/>
        <pt x="396" y="336" on="0"/>
        <pt x="401" y="308" on="1"/>
        <pt x="343" y="285" on="1"/>
        <pt x="338" y="316" on="0"/>
      </contour>
      <contour>
        <pt x="285" y="257" on="1"/>
        <pt x="337" y="273" on="1"/>
        <pt x="356" y="230" on="0"/>
        <pt x="383" y="129" on="0"/>
        <pt x="387" y="92" on="1"/>
        <pt x="331" y="76" on="1"/>
        <pt x="329" y="113" on="0"/>
        <pt x="302" y="214" on="0"/>
      </contour>
      <contour>
        <pt x="788" y="243" on="1"/>
        <pt x="573" y="243" on="1"/>
        <pt x="613" y="171" on="0"/>
        <pt x="679" y="117" on="1"/>
        <pt x="752" y="173" on="0"/>
      </contour>
      <contour>
        <pt x="835" y="305" on="1"/>
        <pt x="882" y="284" on="1"/>
        <pt x="861" y="225" on="0"/>
        <pt x="787" y="121" on="0"/>
        <pt x="734" y="77" on="1"/>
        <pt x="839" y="11" on="0"/>
        <pt x="970" y="-16" on="1"/>
        <pt x="959" y="-26" on="0"/>
        <pt x="933" y="-62" on="0"/>
        <pt x="925" y="-76" on="1"/>
        <pt x="785" y="-41" on="0"/>
        <pt x="678" y="35" on="1"/>
        <pt x="620" y="-2" on="0"/>
        <pt x="477" y="-59" on="0"/>
        <pt x="391" y="-79" on="1"/>
        <pt x="384" y="-66" on="0"/>
        <pt x="361" y="-33" on="0"/>
        <pt x="349" y="-22" on="1"/>
        <pt x="432" y="-5" on="0"/>
        <pt x="569" y="46" on="0"/>
        <pt x="624" y="79" on="1"/>
        <pt x="568" y="129" on="0"/>
        <pt x="527" y="193" on="1"/>
        <pt x="505" y="171" on="0"/>
        <pt x="457" y="132" on="0"/>
        <pt x="432" y="115" on="1"/>
        <pt x="425" y="126" on="0"/>
        <pt x="395" y="158" on="0"/>
        <pt x="383" y="167" on="1"/>
        <pt x="451" y="207" on="0"/>
        <pt x="561" y="327" on="0"/>
        <pt x="592" y="400" on="1"/>
        <pt x="658" y="383" on="1"/>
        <pt x="649" y="362" on="0"/>
        <pt x="628" y="322" on="0"/>
        <pt x="615" y="302" on="1"/>
        <pt x="821" y="302" on="1"/>
      </contour>
    </TTGlyph>
    <TTGlyph name="cid01154" xMin="39" yMin="-77" xMax="959" yMax="837">
      <contour>
        <pt x="323" y="688" on="1"/>
        <pt x="209" y="688" on="1"/>
        <pt x="199" y="662" on="0"/>
        <pt x="173" y="611" on="0"/>
        <pt x="159" y="585" on="1"/>
        <pt x="271" y="585" on="1"/>
        <pt x="285" y="607" on="0"/>
        <pt x="312" y="661" on="0"/>
      </contour>
      <contour>
        <pt x="400" y="424" on="1"/>
        <pt x="400" y="524" on="1"/>
        <pt x="310" y="524" on="1"/>
        <pt x="310" y="424" on="1"/>
      </contour>
      <contour>
        <pt x="400" y="263" on="1"/>
        <pt x="400" y="366" on="1"/>
        <pt x="310" y="366" on="1"/>
        <pt x="310" y="263" on="1"/>
      </contour>
      <contour>
        <pt x="166" y="424" on="1"/>
        <pt x="253" y="424" on="1"/>
        <pt x="253" y="524" on="1"/>
        <pt x="166" y="524" on="1"/>
      </contour>
      <contour>
        <pt x="253" y="366" on="1"/>
        <pt x="166" y="366" on="1"/>
        <pt x="166" y="263" on="1"/>
        <pt x="253" y="263" on="1"/>
      </contour>
      <contour>
        <pt x="104" y="500" on="1"/>
        <pt x="91" y="484" on="1"/>
        <pt x="82" y="495" on="0"/>
        <pt x="51" y="521" on="0"/>
        <pt x="39" y="527" on="1"/>
        <pt x="78" y="574" on="0"/>
        <pt x="136" y="682" on="0"/>
        <pt x="177" y="790" on="0"/>
        <pt x="188" y="837" on="1"/>
        <pt x="257" y="827" on="1"/>
        <pt x="252" y="808" on="0"/>
        <pt x="239" y="767" on="0"/>
        <pt x="232" y="747" on="1"/>
        <pt x="356" y="747" on="1"/>
        <pt x="369" y="751" on="1"/>
        <pt x="413" y="722" on="1"/>
        <pt x="398" y="688" on="0"/>
        <pt x="361" y="617" on="0"/>
        <pt x="341" y="585" on="1"/>
        <pt x="464" y="585" on="1"/>
        <pt x="464" y="201" on="1"/>
        <pt x="104" y="201" on="1"/>
      </contour>
      <contour>
        <pt x="88" y="-77" on="1"/>
        <pt x="39" y="-48" on="1"/>
        <pt x="74" y="-13" on="0"/>
        <pt x="108" y="97" on="0"/>
        <pt x="114" y="156" on="1"/>
        <pt x="168" y="143" on="1"/>
        <pt x="161" y="80" on="0"/>
        <pt x="126" y="-40" on="0"/>
      </contour>
      <contour>
        <pt x="204" y="148" on="1"/>
        <pt x="255" y="155" on="1"/>
        <pt x="264" y="110" on="0"/>
        <pt x="272" y="8" on="0"/>
        <pt x="270" y="-30" on="1"/>
        <pt x="216" y="-36" on="1"/>
        <pt x="218" y="1" on="0"/>
        <pt x="212" y="104" on="0"/>
      </contour>
      <contour>
        <pt x="296" y="149" on="1"/>
        <pt x="344" y="160" on="1"/>
        <pt x="362" y="119" on="0"/>
        <pt x="388" y="21" on="0"/>
        <pt x="392" y="-14" on="1"/>
        <pt x="340" y="-27" on="1"/>
        <pt x="336" y="9" on="0"/>
        <pt x="312" y="107" on="0"/>
      </contour>
      <contour>
        <pt x="389" y="158" on="1"/>
        <pt x="437" y="176" on="1"/>
        <pt x="460" y="139" on="0"/>
        <pt x="499" y="49" on="0"/>
        <pt x="508" y="16" on="1"/>
        <pt x="458" y="-5" on="1"/>
        <pt x="449" y="29" on="0"/>
        <pt x="411" y="121" on="0"/>
      </contour>
      <contour>
        <pt x="852" y="32" on="1"/>
        <pt x="852" y="287" on="1"/>
        <pt x="594" y="287" on="1"/>
        <pt x="594" y="32" on="1"/>
      </contour>
      <contour>
        <pt x="959" y="550" on="1"/>
        <pt x="747" y="550" on="1"/>
        <pt x="747" y="353" on="1"/>
        <pt x="923" y="353" on="1"/>
        <pt x="923" y="-72" on="1"/>
        <pt x="852" y="-72" on="1"/>
        <pt x="852" y="-34" on="1"/>
        <pt x="594" y="-34" on="1"/>
        <pt x="594" y="-76" on="1"/>
        <pt x="525" y="-76" on="1"/>
        <pt x="525" y="353" on="1"/>
        <pt x="676" y="353" on="1"/>
        <pt x="676" y="836" on="1"/>
        <pt x="747" y="836" on="1"/>
        <pt x="747" y="618" on="1"/>
        <pt x="959" y="618" on="1"/>
      </contour>
    </TTGlyph>
    <TTGlyph name="cid01155" xMin="65" yMin="-77" xMax="958" yMax="834">
      <contour>
        <pt x="905" y="730" on="1"/>
        <pt x="859" y="678" on="1"/>
        <pt x="842" y="695" on="0"/>
        <pt x="785" y="735" on="0"/>
        <pt x="721" y="773" on="0"/>
        <pt x="690" y="787" on="1"/>
        <pt x="733" y="833" on="1"/>
        <pt x="764" y="820" on="0"/>
        <pt x="829" y="784" on="0"/>
        <pt x="887" y="747" on="0"/>
      </contour>
      <contour>
        <pt x="505" y="156" on="1"/>
        <pt x="511" y="86" on="1"/>
        <pt x="435" y="70" on="0"/>
        <pt x="280" y="36" on="0"/>
        <pt x="137" y="5" on="0"/>
        <pt x="79" y="-8" on="1"/>
        <pt x="65" y="67" on="1"/>
        <pt x="119" y="78" on="0"/>
        <pt x="263" y="106" on="0"/>
        <pt x="424" y="139" on="0"/>
      </contour>
      <contour>
        <pt x="400" y="278" on="1"/>
        <pt x="400" y="451" on="1"/>
        <pt x="197" y="451" on="1"/>
        <pt x="197" y="278" on="1"/>
      </contour>
      <contour>
        <pt x="128" y="516" on="1"/>
        <pt x="473" y="516" on="1"/>
        <pt x="473" y="214" on="1"/>
        <pt x="128" y="214" on="1"/>
      </contour>
      <contour>
        <pt x="819" y="533" on="1"/>
        <pt x="893" y="515" on="1"/>
        <pt x="828" y="313" on="0"/>
        <pt x="716" y="165" on="1"/>
        <pt x="744" y="88" on="0"/>
        <pt x="810" y="0" on="0"/>
        <pt x="847" y="0" on="1"/>
        <pt x="868" y="0" on="0"/>
        <pt x="889" y="85" on="0"/>
        <pt x="893" y="185" on="1"/>
        <pt x="906" y="172" on="0"/>
        <pt x="942" y="148" on="0"/>
        <pt x="958" y="143" on="1"/>
        <pt x="952" y="58" on="0"/>
        <pt x="926" y="-38" on="0"/>
        <pt x="879" y="-77" on="0"/>
        <pt x="840" y="-77" on="1"/>
        <pt x="784" y="-77" on="0"/>
        <pt x="694" y="15" on="0"/>
        <pt x="660" y="96" on="1"/>
        <pt x="567" y="-6" on="0"/>
        <pt x="449" y="-76" on="1"/>
        <pt x="440" y="-65" on="0"/>
        <pt x="404" y="-29" on="0"/>
        <pt x="391" y="-19" on="1"/>
        <pt x="531" y="55" on="0"/>
        <pt x="631" y="177" on="1"/>
        <pt x="605" y="265" on="0"/>
        <pt x="571" y="483" on="0"/>
        <pt x="561" y="604" on="1"/>
        <pt x="70" y="604" on="1"/>
        <pt x="70" y="677" on="1"/>
        <pt x="557" y="677" on="1"/>
        <pt x="555" y="716" on="0"/>
        <pt x="553" y="794" on="0"/>
        <pt x="552" y="834" on="1"/>
        <pt x="630" y="834" on="1"/>
        <pt x="630" y="754" on="0"/>
        <pt x="633" y="677" on="1"/>
        <pt x="933" y="677" on="1"/>
        <pt x="933" y="604" on="1"/>
        <pt x="638" y="604" on="1"/>
        <pt x="646" y="505" on="0"/>
        <pt x="671" y="328" on="0"/>
        <pt x="690" y="255" on="1"/>
        <pt x="772" y="379" on="0"/>
      </contour>
    </TTGlyph>
    <TTGlyph name="cid01156" xMin="40" yMin="-79" xMax="959" yMax="791">
      <contour>
        <pt x="573" y="643" on="1"/>
        <pt x="573" y="727" on="1"/>
        <pt x="419" y="727" on="1"/>
        <pt x="419" y="643" on="1"/>
      </contour>
      <contour>
        <pt x="801" y="582" on="1"/>
        <pt x="644" y="582" on="1"/>
        <pt x="644" y="458" on="1"/>
        <pt x="801" y="458" on="1"/>
      </contour>
      <contour>
        <pt x="419" y="582" on="1"/>
        <pt x="419" y="458" on="1"/>
        <pt x="573" y="458" on="1"/>
        <pt x="573" y="582" on="1"/>
      </contour>
      <contour>
        <pt x="199" y="582" on="1"/>
        <pt x="199" y="458" on="1"/>
        <pt x="348" y="458" on="1"/>
        <pt x="348" y="582" on="1"/>
      </contour>
      <contour>
        <pt x="348" y="643" on="1"/>
        <pt x="348" y="727" on="1"/>
        <pt x="70" y="727" on="1"/>
        <pt x="70" y="791" on="1"/>
        <pt x="929" y="791" on="1"/>
        <pt x="929" y="727" on="1"/>
        <pt x="644" y="727" on="1"/>
        <pt x="644" y="643" on="1"/>
        <pt x="875" y="643" on="1"/>
        <pt x="875" y="397" on="1"/>
        <pt x="127" y="397" on="1"/>
        <pt x="127" y="643" on="1"/>
      </contour>
      <contour>
        <pt x="941" y="172" on="1"/>
        <pt x="607" y="172" on="1"/>
        <pt x="651" y="134" on="0"/>
        <pt x="767" y="68" on="0"/>
        <pt x="896" y="18" on="0"/>
        <pt x="959" y="2" on="1"/>
        <pt x="947" y="-9" on="0"/>
        <pt x="919" y="-46" on="0"/>
        <pt x="910" y="-60" on="1"/>
        <pt x="843" y="-40" on="0"/>
        <pt x="706" y="24" on="0"/>
        <pt x="582" y="107" on="0"/>
        <pt x="535" y="154" on="1"/>
        <pt x="535" y="-79" on="1"/>
        <pt x="461" y="-79" on="1"/>
        <pt x="461" y="156" on="1"/>
        <pt x="415" y="108" on="0"/>
        <pt x="291" y="23" on="0"/>
        <pt x="154" y="-44" on="0"/>
        <pt x="88" y="-65" on="1"/>
        <pt x="80" y="-51" on="0"/>
        <pt x="51" y="-16" on="0"/>
        <pt x="40" y="-5" on="1"/>
        <pt x="101" y="11" on="0"/>
        <pt x="227" y="65" on="0"/>
        <pt x="342" y="134" on="0"/>
        <pt x="386" y="172" on="1"/>
        <pt x="59" y="172" on="1"/>
        <pt x="59" y="238" on="1"/>
        <pt x="286" y="238" on="1"/>
        <pt x="275" y="264" on="0"/>
        <pt x="230" y="329" on="0"/>
        <pt x="205" y="357" on="1"/>
        <pt x="272" y="383" on="1"/>
        <pt x="298" y="357" on="0"/>
        <pt x="348" y="288" on="0"/>
        <pt x="358" y="261" on="1"/>
        <pt x="305" y="238" on="1"/>
        <pt x="461" y="238" on="1"/>
        <pt x="461" y="378" on="1"/>
        <pt x="535" y="378" on="1"/>
        <pt x="535" y="238" on="1"/>
        <pt x="645" y="238" on="1"/>
        <pt x="666" y="271" on="0"/>
        <pt x="712" y="353" on="0"/>
        <pt x="726" y="385" on="1"/>
        <pt x="800" y="360" on="1"/>
        <pt x="781" y="329" on="0"/>
        <pt x="742" y="266" on="0"/>
        <pt x="723" y="238" on="1"/>
        <pt x="941" y="238" on="1"/>
      </contour>
    </TTGlyph>
    <TTGlyph name="cid01157" xMin="30" yMin="-76" xMax="971" yMax="834">
      <contour>
        <pt x="377" y="464" on="1"/>
        <pt x="422" y="430" on="1"/>
        <pt x="402" y="402" on="0"/>
        <pt x="359" y="346" on="0"/>
        <pt x="339" y="323" on="1"/>
        <pt x="360" y="298" on="0"/>
        <pt x="397" y="255" on="0"/>
        <pt x="404" y="245" on="1"/>
        <pt x="360" y="194" on="1"/>
        <pt x="346" y="217" on="0"/>
        <pt x="288" y="296" on="0"/>
        <pt x="260" y="331" on="1"/>
        <pt x="260" y="-76" on="1"/>
        <pt x="189" y="-76" on="1"/>
        <pt x="189" y="295" on="1"/>
        <pt x="129" y="224" on="0"/>
        <pt x="68" y="174" on="1"/>
        <pt x="62" y="187" on="0"/>
        <pt x="38" y="228" on="0"/>
        <pt x="30" y="237" on="1"/>
        <pt x="80" y="275" on="0"/>
        <pt x="180" y="385" on="0"/>
        <pt x="267" y="515" on="0"/>
        <pt x="296" y="583" on="1"/>
        <pt x="57" y="583" on="1"/>
        <pt x="57" y="651" on="1"/>
        <pt x="186" y="651" on="1"/>
        <pt x="186" y="831" on="1"/>
        <pt x="257" y="831" on="1"/>
        <pt x="257" y="651" on="1"/>
        <pt x="329" y="651" on="1"/>
        <pt x="343" y="654" on="1"/>
        <pt x="382" y="628" on="1"/>
        <pt x="362" y="569" on="0"/>
        <pt x="304" y="456" on="0"/>
        <pt x="269" y="403" on="1"/>
        <pt x="277" y="394" on="0"/>
        <pt x="297" y="372" on="0"/>
        <pt x="307" y="360" on="1"/>
        <pt x="326" y="384" on="0"/>
        <pt x="364" y="442" on="0"/>
      </contour>
      <contour>
        <pt x="818" y="258" on="1"/>
        <pt x="527" y="258" on="1"/>
        <pt x="527" y="35" on="1"/>
        <pt x="818" y="35" on="1"/>
      </contour>
      <contour>
        <pt x="457" y="-76" on="1"/>
        <pt x="457" y="326" on="1"/>
        <pt x="891" y="326" on="1"/>
        <pt x="891" y="-73" on="1"/>
        <pt x="818" y="-73" on="1"/>
        <pt x="818" y="-32" on="1"/>
        <pt x="527" y="-32" on="1"/>
        <pt x="527" y="-76" on="1"/>
      </contour>
      <contour>
        <pt x="508" y="504" on="1"/>
        <pt x="832" y="504" on="1"/>
        <pt x="832" y="437" on="1"/>
        <pt x="508" y="437" on="1"/>
      </contour>
      <contour>
        <pt x="629" y="834" on="1"/>
        <pt x="699" y="834" on="1"/>
        <pt x="733" y="776" on="0"/>
        <pt x="822" y="657" on="0"/>
        <pt x="922" y="555" on="0"/>
        <pt x="971" y="520" on="1"/>
        <pt x="961" y="507" on="0"/>
        <pt x="937" y="468" on="0"/>
        <pt x="928" y="453" on="1"/>
        <pt x="880" y="492" on="0"/>
        <pt x="781" y="596" on="0"/>
        <pt x="697" y="708" on="0"/>
        <pt x="668" y="759" on="1"/>
        <pt x="643" y="708" on="0"/>
        <pt x="564" y="596" on="0"/>
        <pt x="467" y="491" on="0"/>
        <pt x="414" y="450" on="1"/>
        <pt x="407" y="464" on="0"/>
        <pt x="383" y="499" on="0"/>
        <pt x="373" y="511" on="1"/>
        <pt x="426" y="551" on="0"/>
        <pt x="525" y="660" on="0"/>
        <pt x="605" y="780" on="0"/>
      </contour>
    </TTGlyph>
    <TTGlyph name="cid01158" xMin="60" yMin="-78" xMax="941" yMax="837">
      <contour>
        <pt x="164" y="662" on="1"/>
        <pt x="164" y="518" on="1"/>
        <pt x="89" y="518" on="1"/>
        <pt x="89" y="731" on="1"/>
        <pt x="459" y="731" on="1"/>
        <pt x="459" y="837" on="1"/>
        <pt x="536" y="837" on="1"/>
        <pt x="536" y="731" on="1"/>
        <pt x="916" y="731" on="1"/>
        <pt x="916" y="518" on="1"/>
        <pt x="839" y="518" on="1"/>
        <pt x="839" y="662" on="1"/>
      </contour>
      <contour>
        <pt x="675" y="386" on="1"/>
        <pt x="389" y="386" on="1"/>
        <pt x="368" y="346" on="0"/>
        <pt x="325" y="266" on="0"/>
        <pt x="305" y="230" on="1"/>
        <pt x="361" y="214" on="0"/>
        <pt x="478" y="174" on="0"/>
        <pt x="536" y="152" on="1"/>
        <pt x="586" y="196" on="0"/>
        <pt x="655" y="311" on="0"/>
      </contour>
      <contour>
        <pt x="941" y="386" on="1"/>
        <pt x="760" y="386" on="1"/>
        <pt x="737" y="302" on="0"/>
        <pt x="662" y="172" on="0"/>
        <pt x="612" y="122" on="1"/>
        <pt x="695" y="88" on="0"/>
        <pt x="841" y="17" on="0"/>
        <pt x="893" y="-16" on="1"/>
        <pt x="839" y="-78" on="1"/>
        <pt x="787" y="-43" on="0"/>
        <pt x="636" y="33" on="0"/>
        <pt x="549" y="70" on="1"/>
        <pt x="470" y="13" on="0"/>
        <pt x="259" y="-57" on="0"/>
        <pt x="128" y="-78" on="1"/>
        <pt x="123" y="-65" on="0"/>
        <pt x="94" y="-23" on="0"/>
        <pt x="83" y="-11" on="1"/>
        <pt x="203" y="4" on="0"/>
        <pt x="396" y="58" on="0"/>
        <pt x="469" y="102" on="1"/>
        <pt x="420" y="122" on="0"/>
        <pt x="320" y="157" on="0"/>
        <pt x="273" y="171" on="1"/>
        <pt x="266" y="160" on="0"/>
        <pt x="254" y="139" on="0"/>
        <pt x="248" y="129" on="1"/>
        <pt x="173" y="149" on="1"/>
        <pt x="202" y="196" on="0"/>
        <pt x="270" y="320" on="0"/>
        <pt x="304" y="386" on="1"/>
        <pt x="60" y="386" on="1"/>
        <pt x="60" y="456" on="1"/>
        <pt x="341" y="456" on="1"/>
        <pt x="362" y="499" on="0"/>
        <pt x="403" y="580" on="0"/>
        <pt x="420" y="617" on="1"/>
        <pt x="496" y="600" on="1"/>
        <pt x="480" y="566" on="0"/>
        <pt x="444" y="494" on="0"/>
        <pt x="425" y="456" on="1"/>
        <pt x="941" y="456" on="1"/>
      </contour>
    </TTGlyph>
    <TTGlyph name="cid01159" xMin="34" yMin="-77" xMax="966" yMax="836">
      <contour>
        <pt x="944" y="683" on="1"/>
        <pt x="184" y="683" on="1"/>
        <pt x="184" y="434" on="1"/>
        <pt x="184" y="378" on="0"/>
        <pt x="178" y="245" on="0"/>
        <pt x="159" y="108" on="0"/>
        <pt x="123" y="-23" on="0"/>
        <pt x="93" y="-77" on="1"/>
        <pt x="84" y="-67" on="0"/>
        <pt x="47" y="-40" on="0"/>
        <pt x="34" y="-34" on="1"/>
        <pt x="71" y="34" on="0"/>
        <pt x="105" y="198" on="0"/>
        <pt x="114" y="364" on="0"/>
        <pt x="114" y="434" on="1"/>
        <pt x="114" y="749" on="1"/>
        <pt x="491" y="749" on="1"/>
        <pt x="491" y="836" on="1"/>
        <pt x="567" y="836" on="1"/>
        <pt x="567" y="749" on="1"/>
        <pt x="944" y="749" on="1"/>
      </contour>
      <contour>
        <pt x="390" y="133" on="1"/>
        <pt x="538" y="133" on="1"/>
        <pt x="538" y="218" on="1"/>
        <pt x="390" y="218" on="1"/>
      </contour>
      <contour>
        <pt x="685" y="513" on="1"/>
        <pt x="482" y="513" on="1"/>
        <pt x="464" y="481" on="0"/>
        <pt x="423" y="421" on="0"/>
        <pt x="400" y="394" on="1"/>
        <pt x="538" y="394" on="1"/>
        <pt x="538" y="477" on="1"/>
        <pt x="605" y="477" on="1"/>
        <pt x="605" y="394" on="1"/>
        <pt x="764" y="394" on="1"/>
        <pt x="742" y="422" on="0"/>
        <pt x="701" y="482" on="0"/>
      </contour>
      <contour>
        <pt x="605" y="340" on="1"/>
        <pt x="605" y="269" on="1"/>
        <pt x="760" y="269" on="1"/>
        <pt x="760" y="340" on="1"/>
      </contour>
      <contour>
        <pt x="390" y="340" on="1"/>
        <pt x="390" y="269" on="1"/>
        <pt x="538" y="269" on="1"/>
        <pt x="538" y="340" on="1"/>
      </contour>
      <contour>
        <pt x="605" y="133" on="1"/>
        <pt x="760" y="133" on="1"/>
        <pt x="760" y="218" on="1"/>
        <pt x="605" y="218" on="1"/>
      </contour>
      <contour>
        <pt x="825" y="81" on="1"/>
        <pt x="605" y="81" on="1"/>
        <pt x="605" y="33" on="1"/>
        <pt x="605" y="6" on="0"/>
        <pt x="627" y="-10" on="0"/>
        <pt x="664" y="-10" on="1"/>
        <pt x="838" y="-10" on="1"/>
        <pt x="859" y="-10" on="0"/>
        <pt x="880" y="8" on="0"/>
        <pt x="889" y="58" on="0"/>
        <pt x="891" y="106" on="1"/>
        <pt x="919" y="87" on="0"/>
        <pt x="953" y="80" on="1"/>
        <pt x="948" y="21" on="0"/>
        <pt x="927" y="-45" on="0"/>
        <pt x="883" y="-71" on="0"/>
        <pt x="842" y="-71" on="1"/>
        <pt x="658" y="-71" on="1"/>
        <pt x="611" y="-71" on="0"/>
        <pt x="559" y="-54" on="0"/>
        <pt x="538" y="-9" on="0"/>
        <pt x="538" y="33" on="1"/>
        <pt x="538" y="81" on="1"/>
        <pt x="390" y="81" on="1"/>
        <pt x="390" y="30" on="1"/>
        <pt x="325" y="30" on="1"/>
        <pt x="325" y="320" on="1"/>
        <pt x="304" y="302" on="0"/>
        <pt x="259" y="270" on="0"/>
        <pt x="236" y="256" on="1"/>
        <pt x="229" y="267" on="0"/>
        <pt x="197" y="301" on="0"/>
        <pt x="186" y="311" on="1"/>
        <pt x="321" y="382" on="0"/>
        <pt x="403" y="513" on="1"/>
        <pt x="226" y="513" on="1"/>
        <pt x="226" y="576" on="1"/>
        <pt x="438" y="576" on="1"/>
        <pt x="449" y="599" on="0"/>
        <pt x="468" y="647" on="0"/>
        <pt x="475" y="672" on="1"/>
        <pt x="544" y="659" on="1"/>
        <pt x="537" y="637" on="0"/>
        <pt x="522" y="596" on="0"/>
        <pt x="513" y="576" on="1"/>
        <pt x="942" y="576" on="1"/>
        <pt x="942" y="513" on="1"/>
        <pt x="756" y="513" on="1"/>
        <pt x="794" y="452" on="0"/>
        <pt x="906" y="346" on="0"/>
        <pt x="966" y="317" on="1"/>
        <pt x="955" y="307" on="0"/>
        <pt x="925" y="274" on="0"/>
        <pt x="917" y="262" on="1"/>
        <pt x="894" y="276" on="0"/>
        <pt x="847" y="310" on="0"/>
        <pt x="825" y="330" on="1"/>
      </contour>
    </TTGlyph>
    <TTGlyph name="cid01160" xMin="33" yMin="-77" xMax="956" yMax="836">
      <contour>
        <pt x="454" y="632" on="1"/>
        <pt x="454" y="505" on="1"/>
        <pt x="384" y="505" on="1"/>
        <pt x="384" y="699" on="1"/>
        <pt x="618" y="699" on="1"/>
        <pt x="618" y="836" on="1"/>
        <pt x="692" y="836" on="1"/>
        <pt x="692" y="699" on="1"/>
        <pt x="945" y="699" on="1"/>
        <pt x="945" y="507" on="1"/>
        <pt x="872" y="507" on="1"/>
        <pt x="872" y="632" on="1"/>
      </contour>
      <contour>
        <pt x="377" y="337" on="1"/>
        <pt x="255" y="299" on="1"/>
        <pt x="255" y="9" on="1"/>
        <pt x="255" y="-21" on="0"/>
        <pt x="239" y="-55" on="0"/>
        <pt x="220" y="-64" on="1"/>
        <pt x="201" y="-71" on="0"/>
        <pt x="138" y="-76" on="0"/>
        <pt x="88" y="-76" on="1"/>
        <pt x="86" y="-62" on="0"/>
        <pt x="74" y="-23" on="0"/>
        <pt x="66" y="-9" on="1"/>
        <pt x="100" y="-10" on="0"/>
        <pt x="155" y="-10" on="0"/>
        <pt x="165" y="-10" on="1"/>
        <pt x="183" y="-10" on="0"/>
        <pt x="183" y="9" on="1"/>
        <pt x="183" y="277" on="1"/>
        <pt x="52" y="236" on="1"/>
        <pt x="33" y="309" on="1"/>
        <pt x="65" y="317" on="0"/>
        <pt x="141" y="338" on="0"/>
        <pt x="183" y="350" on="1"/>
        <pt x="183" y="568" on="1"/>
        <pt x="45" y="568" on="1"/>
        <pt x="45" y="636" on="1"/>
        <pt x="183" y="636" on="1"/>
        <pt x="183" y="836" on="1"/>
        <pt x="255" y="836" on="1"/>
        <pt x="255" y="636" on="1"/>
        <pt x="366" y="636" on="1"/>
        <pt x="366" y="568" on="1"/>
        <pt x="255" y="568" on="1"/>
        <pt x="255" y="371" on="1"/>
        <pt x="367" y="404" on="1"/>
      </contour>
      <contour>
        <pt x="779" y="371" on="1"/>
        <pt x="585" y="371" on="1"/>
        <pt x="572" y="332" on="0"/>
        <pt x="544" y="256" on="0"/>
        <pt x="530" y="221" on="1"/>
        <pt x="611" y="194" on="0"/>
        <pt x="694" y="154" on="1"/>
        <pt x="758" y="236" on="0"/>
      </contour>
      <contour>
        <pt x="956" y="371" on="1"/>
        <pt x="858" y="371" on="1"/>
        <pt x="832" y="217" on="0"/>
        <pt x="758" y="122" on="1"/>
        <pt x="818" y="90" on="0"/>
        <pt x="922" y="20" on="0"/>
        <pt x="956" y="-15" on="1"/>
        <pt x="908" y="-75" on="1"/>
        <pt x="874" y="-40" on="0"/>
        <pt x="769" y="33" on="0"/>
        <pt x="707" y="67" on="1"/>
        <pt x="649" y="14" on="0"/>
        <pt x="485" y="-54" on="0"/>
        <pt x="378" y="-77" on="1"/>
        <pt x="375" y="-65" on="0"/>
        <pt x="351" y="-25" on="0"/>
        <pt x="341" y="-14" on="1"/>
        <pt x="439" y="3" on="0"/>
        <pt x="588" y="58" on="0"/>
        <pt x="641" y="101" on="1"/>
        <pt x="573" y="135" on="0"/>
        <pt x="507" y="159" on="1"/>
        <pt x="494" y="128" on="1"/>
        <pt x="426" y="149" on="1"/>
        <pt x="445" y="193" on="0"/>
        <pt x="488" y="309" on="0"/>
        <pt x="510" y="371" on="1"/>
        <pt x="375" y="371" on="1"/>
        <pt x="375" y="438" on="1"/>
        <pt x="533" y="438" on="1"/>
        <pt x="547" y="480" on="0"/>
        <pt x="573" y="561" on="0"/>
        <pt x="584" y="597" on="1"/>
        <pt x="658" y="586" on="1"/>
        <pt x="647" y="552" on="0"/>
        <pt x="622" y="476" on="0"/>
        <pt x="609" y="438" on="1"/>
        <pt x="956" y="438" on="1"/>
      </contour>
    </TTGlyph>
    <TTGlyph name="cid01161" xMin="80" yMin="-75" xMax="964" yMax="829">
      <contour>
        <pt x="946" y="739" on="1"/>
        <pt x="946" y="673" on="1"/>
        <pt x="394" y="673" on="1"/>
        <pt x="394" y="739" on="1"/>
        <pt x="629" y="739" on="1"/>
        <pt x="629" y="829" on="1"/>
        <pt x="703" y="829" on="1"/>
        <pt x="703" y="739" on="1"/>
      </contour>
      <contour>
        <pt x="802" y="504" on="1"/>
        <pt x="740" y="519" on="1"/>
        <pt x="754" y="549" on="0"/>
        <pt x="783" y="635" on="0"/>
        <pt x="791" y="668" on="1"/>
        <pt x="865" y="652" on="1"/>
        <pt x="849" y="613" on="0"/>
        <pt x="816" y="532" on="0"/>
      </contour>
      <contour>
        <pt x="596" y="520" on="1"/>
        <pt x="528" y="505" on="1"/>
        <pt x="524" y="535" on="0"/>
        <pt x="497" y="619" on="0"/>
        <pt x="480" y="653" on="1"/>
        <pt x="544" y="666" on="1"/>
        <pt x="561" y="632" on="0"/>
        <pt x="591" y="550" on="0"/>
      </contour>
      <contour>
        <pt x="283" y="705" on="1"/>
        <pt x="147" y="705" on="1"/>
        <pt x="147" y="482" on="1"/>
        <pt x="283" y="482" on="1"/>
      </contour>
      <contour>
        <pt x="147" y="187" on="1"/>
        <pt x="283" y="187" on="1"/>
        <pt x="283" y="417" on="1"/>
        <pt x="147" y="417" on="1"/>
      </contour>
      <contour>
        <pt x="351" y="772" on="1"/>
        <pt x="351" y="120" on="1"/>
        <pt x="147" y="120" on="1"/>
        <pt x="147" y="39" on="1"/>
        <pt x="80" y="39" on="1"/>
        <pt x="80" y="772" on="1"/>
      </contour>
      <contour>
        <pt x="825" y="291" on="1"/>
        <pt x="518" y="291" on="1"/>
        <pt x="518" y="192" on="1"/>
        <pt x="825" y="192" on="1"/>
      </contour>
      <contour>
        <pt x="518" y="31" on="1"/>
        <pt x="825" y="31" on="1"/>
        <pt x="825" y="133" on="1"/>
        <pt x="518" y="133" on="1"/>
      </contour>
      <contour>
        <pt x="449" y="-75" on="1"/>
        <pt x="449" y="353" on="1"/>
        <pt x="897" y="353" on="1"/>
        <pt x="897" y="-73" on="1"/>
        <pt x="825" y="-73" on="1"/>
        <pt x="825" y="-33" on="1"/>
        <pt x="518" y="-33" on="1"/>
        <pt x="518" y="-75" on="1"/>
      </contour>
      <contour>
        <pt x="370" y="502" on="1"/>
        <pt x="964" y="502" on="1"/>
        <pt x="964" y="436" on="1"/>
        <pt x="370" y="436" on="1"/>
      </contour>
    </TTGlyph>
    <TTGlyph name="cid01162" xMin="37" yMin="-75" xMax="968" yMax="836">
      <contour>
        <pt x="153" y="699" on="1"/>
        <pt x="153" y="619" on="1"/>
        <pt x="83" y="619" on="1"/>
        <pt x="83" y="762" on="1"/>
        <pt x="462" y="762" on="1"/>
        <pt x="462" y="836" on="1"/>
        <pt x="535" y="836" on="1"/>
        <pt x="535" y="762" on="1"/>
        <pt x="921" y="762" on="1"/>
        <pt x="921" y="619" on="1"/>
        <pt x="850" y="619" on="1"/>
        <pt x="850" y="699" on="1"/>
      </contour>
      <contour>
        <pt x="659" y="534" on="1"/>
        <pt x="379" y="534" on="1"/>
        <pt x="366" y="518" on="0"/>
        <pt x="341" y="485" on="0"/>
        <pt x="329" y="470" on="1"/>
        <pt x="379" y="460" on="0"/>
        <pt x="490" y="437" on="0"/>
        <pt x="545" y="423" on="1"/>
        <pt x="586" y="445" on="0"/>
        <pt x="641" y="500" on="0"/>
      </contour>
      <contour>
        <pt x="271" y="400" on="1"/>
        <pt x="202" y="422" on="1"/>
        <pt x="223" y="445" on="0"/>
        <pt x="270" y="503" on="0"/>
        <pt x="295" y="534" on="1"/>
        <pt x="72" y="534" on="1"/>
        <pt x="72" y="595" on="1"/>
        <pt x="342" y="595" on="1"/>
        <pt x="361" y="619" on="0"/>
        <pt x="395" y="666" on="0"/>
        <pt x="410" y="687" on="1"/>
        <pt x="479" y="667" on="1"/>
        <pt x="467" y="650" on="0"/>
        <pt x="440" y="614" on="0"/>
        <pt x="426" y="595" on="1"/>
        <pt x="932" y="595" on="1"/>
        <pt x="932" y="534" on="1"/>
        <pt x="740" y="534" on="1"/>
        <pt x="721" y="494" on="0"/>
        <pt x="668" y="428" on="0"/>
        <pt x="630" y="401" on="1"/>
        <pt x="703" y="382" on="0"/>
        <pt x="835" y="342" on="0"/>
        <pt x="884" y="324" on="1"/>
        <pt x="839" y="270" on="1"/>
        <pt x="788" y="291" on="0"/>
        <pt x="639" y="338" on="0"/>
        <pt x="556" y="360" on="1"/>
        <pt x="483" y="327" on="0"/>
        <pt x="271" y="287" on="0"/>
        <pt x="123" y="276" on="1"/>
        <pt x="121" y="288" on="0"/>
        <pt x="106" y="324" on="0"/>
        <pt x="99" y="335" on="1"/>
        <pt x="215" y="343" on="0"/>
        <pt x="389" y="367" on="0"/>
        <pt x="452" y="386" on="1"/>
        <pt x="411" y="397" on="0"/>
        <pt x="329" y="415" on="0"/>
        <pt x="290" y="423" on="1"/>
      </contour>
      <contour>
        <pt x="946" y="169" on="1"/>
        <pt x="597" y="169" on="1"/>
        <pt x="643" y="131" on="0"/>
        <pt x="765" y="63" on="0"/>
        <pt x="901" y="13" on="0"/>
        <pt x="968" y="-2" on="1"/>
        <pt x="956" y="-13" on="0"/>
        <pt x="928" y="-50" on="0"/>
        <pt x="920" y="-64" on="1"/>
        <pt x="851" y="-45" on="0"/>
        <pt x="709" y="18" on="0"/>
        <pt x="582" y="101" on="0"/>
        <pt x="534" y="149" on="1"/>
        <pt x="534" y="-75" on="1"/>
        <pt x="461" y="-75" on="1"/>
        <pt x="461" y="145" on="1"/>
        <pt x="415" y="99" on="0"/>
        <pt x="291" y="18" on="0"/>
        <pt x="153" y="-44" on="0"/>
        <pt x="84" y="-63" on="1"/>
        <pt x="77" y="-49" on="0"/>
        <pt x="49" y="-13" on="0"/>
        <pt x="37" y="-3" on="1"/>
        <pt x="104" y="12" on="0"/>
        <pt x="239" y="64" on="0"/>
        <pt x="359" y="131" on="0"/>
        <pt x="403" y="169" on="1"/>
        <pt x="56" y="169" on="1"/>
        <pt x="56" y="231" on="1"/>
        <pt x="461" y="231" on="1"/>
        <pt x="461" y="314" on="1"/>
        <pt x="534" y="314" on="1"/>
        <pt x="534" y="231" on="1"/>
        <pt x="946" y="231" on="1"/>
      </contour>
    </TTGlyph>
    <TTGlyph name="cid01163" xMin="90" yMin="-77" xMax="916" yMax="794">
      <contour>
        <pt x="384" y="740" on="1"/>
        <pt x="161" y="740" on="1"/>
        <pt x="161" y="666" on="1"/>
        <pt x="384" y="666" on="1"/>
      </contour>
      <contour>
        <pt x="161" y="544" on="1"/>
        <pt x="384" y="544" on="1"/>
        <pt x="384" y="616" on="1"/>
        <pt x="161" y="616" on="1"/>
      </contour>
      <contour>
        <pt x="454" y="489" on="1"/>
        <pt x="161" y="489" on="1"/>
        <pt x="161" y="-77" on="1"/>
        <pt x="90" y="-77" on="1"/>
        <pt x="90" y="794" on="1"/>
        <pt x="454" y="794" on="1"/>
      </contour>
      <contour>
        <pt x="592" y="385" on="1"/>
        <pt x="402" y="385" on="1"/>
        <pt x="413" y="366" on="0"/>
        <pt x="430" y="325" on="0"/>
        <pt x="433" y="310" on="1"/>
        <pt x="558" y="310" on="1"/>
        <pt x="566" y="326" on="0"/>
        <pt x="585" y="367" on="0"/>
      </contour>
      <contour>
        <pt x="769" y="310" on="1"/>
        <pt x="769" y="258" on="1"/>
        <pt x="228" y="258" on="1"/>
        <pt x="228" y="310" on="1"/>
        <pt x="373" y="310" on="1"/>
        <pt x="368" y="328" on="0"/>
        <pt x="349" y="368" on="0"/>
        <pt x="339" y="385" on="1"/>
        <pt x="256" y="385" on="1"/>
        <pt x="256" y="435" on="1"/>
        <pt x="460" y="435" on="1"/>
        <pt x="460" y="482" on="1"/>
        <pt x="528" y="482" on="1"/>
        <pt x="528" y="435" on="1"/>
        <pt x="744" y="435" on="1"/>
        <pt x="744" y="385" on="1"/>
        <pt x="656" y="385" on="1"/>
        <pt x="660" y="384" on="1"/>
        <pt x="650" y="364" on="0"/>
        <pt x="628" y="327" on="0"/>
        <pt x="619" y="310" on="1"/>
      </contour>
      <contour>
        <pt x="627" y="168" on="1"/>
        <pt x="378" y="168" on="1"/>
        <pt x="378" y="112" on="1"/>
        <pt x="627" y="112" on="1"/>
      </contour>
      <contour>
        <pt x="378" y="6" on="1"/>
        <pt x="627" y="6" on="1"/>
        <pt x="627" y="68" on="1"/>
        <pt x="378" y="68" on="1"/>
      </contour>
      <contour>
        <pt x="691" y="213" on="1"/>
        <pt x="691" y="-39" on="1"/>
        <pt x="378" y="-39" on="1"/>
        <pt x="378" y="-67" on="1"/>
        <pt x="314" y="-67" on="1"/>
        <pt x="314" y="213" on="1"/>
      </contour>
      <contour>
        <pt x="614" y="544" on="1"/>
        <pt x="844" y="544" on="1"/>
        <pt x="844" y="616" on="1"/>
        <pt x="614" y="616" on="1"/>
      </contour>
      <contour>
        <pt x="844" y="740" on="1"/>
        <pt x="614" y="740" on="1"/>
        <pt x="614" y="666" on="1"/>
        <pt x="844" y="666" on="1"/>
      </contour>
      <contour>
        <pt x="916" y="794" on="1"/>
        <pt x="916" y="17" on="1"/>
        <pt x="916" y="-14" on="0"/>
        <pt x="901" y="-50" on="0"/>
        <pt x="881" y="-60" on="1"/>
        <pt x="862" y="-69" on="0"/>
        <pt x="798" y="-74" on="0"/>
        <pt x="751" y="-74" on="1"/>
        <pt x="748" y="-59" on="0"/>
        <pt x="735" y="-14" on="0"/>
        <pt x="727" y="0" on="1"/>
        <pt x="760" y="-1" on="0"/>
        <pt x="817" y="-2" on="0"/>
        <pt x="827" y="-1" on="1"/>
        <pt x="844" y="-1" on="0"/>
        <pt x="844" y="17" on="1"/>
        <pt x="844" y="489" on="1"/>
        <pt x="543" y="489" on="1"/>
        <pt x="543" y="794" on="1"/>
      </contour>
    </TTGlyph>
    <TTGlyph name="cid01164" xMin="43" yMin="-79" xMax="960" yMax="835">
      <contour>
        <pt x="534" y="645" on="1"/>
        <pt x="534" y="536" on="1"/>
        <pt x="468" y="536" on="1"/>
        <pt x="468" y="707" on="1"/>
        <pt x="664" y="707" on="1"/>
        <pt x="664" y="835" on="1"/>
        <pt x="736" y="835" on="1"/>
        <pt x="736" y="707" on="1"/>
        <pt x="943" y="707" on="1"/>
        <pt x="943" y="536" on="1"/>
        <pt x="874" y="536" on="1"/>
        <pt x="874" y="645" on="1"/>
      </contour>
      <contour>
        <pt x="136" y="423" on="1"/>
        <pt x="136" y="297" on="1"/>
        <pt x="224" y="297" on="1"/>
        <pt x="224" y="423" on="1"/>
      </contour>
      <contour>
        <pt x="374" y="297" on="1"/>
        <pt x="374" y="423" on="1"/>
        <pt x="282" y="423" on="1"/>
        <pt x="282" y="297" on="1"/>
      </contour>
      <contour>
        <pt x="187" y="681" on="1"/>
        <pt x="187" y="605" on="1"/>
        <pt x="320" y="605" on="1"/>
        <pt x="320" y="681" on="1"/>
      </contour>
      <contour>
        <pt x="469" y="104" on="1"/>
        <pt x="287" y="104" on="1"/>
        <pt x="287" y="-77" on="1"/>
        <pt x="219" y="-77" on="1"/>
        <pt x="219" y="104" on="1"/>
        <pt x="43" y="104" on="1"/>
        <pt x="43" y="168" on="1"/>
        <pt x="219" y="168" on="1"/>
        <pt x="219" y="239" on="1"/>
        <pt x="74" y="239" on="1"/>
        <pt x="74" y="480" on="1"/>
        <pt x="219" y="480" on="1"/>
        <pt x="219" y="546" on="1"/>
        <pt x="122" y="546" on="1"/>
        <pt x="122" y="681" on="1"/>
        <pt x="49" y="681" on="1"/>
        <pt x="49" y="743" on="1"/>
        <pt x="122" y="743" on="1"/>
        <pt x="122" y="835" on="1"/>
        <pt x="187" y="835" on="1"/>
        <pt x="187" y="743" on="1"/>
        <pt x="320" y="743" on="1"/>
        <pt x="320" y="835" on="1"/>
        <pt x="387" y="835" on="1"/>
        <pt x="387" y="743" on="1"/>
        <pt x="460" y="743" on="1"/>
        <pt x="460" y="681" on="1"/>
        <pt x="387" y="681" on="1"/>
        <pt x="387" y="546" on="1"/>
        <pt x="287" y="546" on="1"/>
        <pt x="287" y="480" on="1"/>
        <pt x="437" y="480" on="1"/>
        <pt x="437" y="239" on="1"/>
        <pt x="287" y="239" on="1"/>
        <pt x="287" y="168" on="1"/>
        <pt x="469" y="168" on="1"/>
      </contour>
      <contour>
        <pt x="798" y="370" on="1"/>
        <pt x="642" y="370" on="1"/>
        <pt x="630" y="332" on="0"/>
        <pt x="606" y="257" on="0"/>
        <pt x="594" y="222" on="1"/>
        <pt x="626" y="207" on="0"/>
        <pt x="690" y="172" on="0"/>
        <pt x="723" y="153" on="1"/>
        <pt x="780" y="237" on="0"/>
      </contour>
      <contour>
        <pt x="960" y="-16" on="1"/>
        <pt x="913" y="-76" on="1"/>
        <pt x="882" y="-45" on="0"/>
        <pt x="789" y="26" on="0"/>
        <pt x="735" y="62" on="1"/>
        <pt x="686" y="13" on="0"/>
        <pt x="552" y="-55" on="0"/>
        <pt x="465" y="-79" on="1"/>
        <pt x="461" y="-68" on="0"/>
        <pt x="437" y="-29" on="0"/>
        <pt x="427" y="-18" on="1"/>
        <pt x="509" y="0" on="0"/>
        <pt x="632" y="57" on="0"/>
        <pt x="677" y="99" on="1"/>
        <pt x="651" y="116" on="0"/>
        <pt x="599" y="146" on="0"/>
        <pt x="573" y="160" on="1"/>
        <pt x="564" y="135" on="1"/>
        <pt x="501" y="156" on="1"/>
        <pt x="517" y="199" on="0"/>
        <pt x="554" y="310" on="0"/>
        <pt x="572" y="370" on="1"/>
        <pt x="460" y="370" on="1"/>
        <pt x="460" y="436" on="1"/>
        <pt x="592" y="436" on="1"/>
        <pt x="604" y="477" on="0"/>
        <pt x="626" y="555" on="0"/>
        <pt x="635" y="589" on="1"/>
        <pt x="703" y="580" on="1"/>
        <pt x="694" y="546" on="0"/>
        <pt x="673" y="474" on="0"/>
        <pt x="662" y="436" on="1"/>
        <pt x="957" y="436" on="1"/>
        <pt x="957" y="370" on="1"/>
        <pt x="871" y="370" on="1"/>
        <pt x="847" y="212" on="0"/>
        <pt x="781" y="117" on="1"/>
        <pt x="834" y="83" on="0"/>
        <pt x="929" y="14" on="0"/>
      </contour>
    </TTGlyph>
    <TTGlyph name="cid01165" xMin="39" yMin="-78" xMax="960" yMax="837">
      <contour>
        <pt x="726" y="222" on="1"/>
        <pt x="272" y="222" on="1"/>
        <pt x="272" y="31" on="1"/>
        <pt x="726" y="31" on="1"/>
      </contour>
      <contour>
        <pt x="200" y="-78" on="1"/>
        <pt x="200" y="292" on="1"/>
        <pt x="800" y="292" on="1"/>
        <pt x="800" y="-74" on="1"/>
        <pt x="726" y="-74" on="1"/>
        <pt x="726" y="-38" on="1"/>
        <pt x="272" y="-38" on="1"/>
        <pt x="272" y="-78" on="1"/>
      </contour>
      <contour>
        <pt x="941" y="622" on="1"/>
        <pt x="607" y="622" on="1"/>
        <pt x="650" y="569" on="0"/>
        <pt x="765" y="472" on="0"/>
        <pt x="895" y="396" on="0"/>
        <pt x="960" y="372" on="1"/>
        <pt x="947" y="362" on="0"/>
        <pt x="918" y="325" on="0"/>
        <pt x="909" y="311" on="1"/>
        <pt x="841" y="339" on="0"/>
        <pt x="704" y="430" on="0"/>
        <pt x="582" y="544" on="0"/>
        <pt x="536" y="607" on="1"/>
        <pt x="536" y="316" on="1"/>
        <pt x="461" y="316" on="1"/>
        <pt x="461" y="610" on="1"/>
        <pt x="416" y="545" on="0"/>
        <pt x="295" y="426" on="0"/>
        <pt x="158" y="332" on="0"/>
        <pt x="89" y="301" on="1"/>
        <pt x="80" y="315" on="0"/>
        <pt x="52" y="350" on="0"/>
        <pt x="39" y="361" on="1"/>
        <pt x="103" y="386" on="0"/>
        <pt x="231" y="466" on="0"/>
        <pt x="345" y="567" on="0"/>
        <pt x="388" y="622" on="1"/>
        <pt x="61" y="622" on="1"/>
        <pt x="61" y="691" on="1"/>
        <pt x="461" y="691" on="1"/>
        <pt x="461" y="837" on="1"/>
        <pt x="536" y="837" on="1"/>
        <pt x="536" y="691" on="1"/>
        <pt x="941" y="691" on="1"/>
      </contour>
    </TTGlyph>
    <TTGlyph name="cid01166" xMin="39" yMin="-79" xMax="967" yMax="786">
      <contour>
        <pt x="590" y="474" on="1"/>
        <pt x="520" y="436" on="1"/>
        <pt x="507" y="471" on="0"/>
        <pt x="458" y="556" on="0"/>
        <pt x="398" y="644" on="0"/>
        <pt x="366" y="680" on="1"/>
        <pt x="432" y="713" on="1"/>
        <pt x="465" y="677" on="0"/>
        <pt x="527" y="591" on="0"/>
        <pt x="576" y="508" on="0"/>
      </contour>
      <contour>
        <pt x="448" y="280" on="1"/>
        <pt x="465" y="209" on="1"/>
        <pt x="396" y="178" on="0"/>
        <pt x="254" y="114" on="0"/>
        <pt x="121" y="56" on="0"/>
        <pt x="66" y="32" on="1"/>
        <pt x="39" y="109" on="1"/>
        <pt x="68" y="120" on="0"/>
        <pt x="138" y="149" on="0"/>
        <pt x="177" y="165" on="1"/>
        <pt x="160" y="783" on="1"/>
        <pt x="236" y="786" on="1"/>
        <pt x="251" y="196" on="1"/>
        <pt x="299" y="216" on="0"/>
        <pt x="399" y="259" on="0"/>
      </contour>
      <contour>
        <pt x="967" y="-16" on="1"/>
        <pt x="905" y="-73" on="1"/>
        <pt x="882" y="-38" on="0"/>
        <pt x="809" y="50" on="0"/>
        <pt x="724" y="146" on="0"/>
        <pt x="681" y="191" on="1"/>
        <pt x="623" y="103" on="0"/>
        <pt x="455" y="-30" on="0"/>
        <pt x="338" y="-79" on="1"/>
        <pt x="331" y="-68" on="0"/>
        <pt x="293" y="-26" on="0"/>
        <pt x="279" y="-15" on="1"/>
        <pt x="408" y="32" on="0"/>
        <pt x="582" y="173" on="0"/>
        <pt x="693" y="368" on="0"/>
        <pt x="756" y="623" on="0"/>
        <pt x="772" y="785" on="1"/>
        <pt x="853" y="777" on="1"/>
        <pt x="835" y="617" on="0"/>
        <pt x="774" y="360" on="0"/>
        <pt x="721" y="259" on="1"/>
        <pt x="766" y="214" on="0"/>
        <pt x="860" y="115" on="0"/>
        <pt x="942" y="21" on="0"/>
      </contour>
    </TTGlyph>
    <TTGlyph name="cid01167" xMin="22" yMin="-79" xMax="956" yMax="834">
      <contour>
        <pt x="278" y="834" on="1"/>
        <pt x="348" y="812" on="1"/>
        <pt x="304" y="704" on="0"/>
        <pt x="246" y="606" on="1"/>
        <pt x="246" y="-76" on="1"/>
        <pt x="175" y="-76" on="1"/>
        <pt x="175" y="499" on="1"/>
        <pt x="149" y="462" on="0"/>
        <pt x="93" y="396" on="0"/>
        <pt x="64" y="367" on="1"/>
        <pt x="59" y="380" on="0"/>
        <pt x="33" y="427" on="0"/>
        <pt x="22" y="440" on="1"/>
        <pt x="73" y="488" on="0"/>
        <pt x="168" y="613" on="0"/>
        <pt x="249" y="758" on="0"/>
      </contour>
      <contour>
        <pt x="810" y="300" on="1"/>
        <pt x="810" y="466" on="1"/>
        <pt x="611" y="466" on="1"/>
        <pt x="611" y="416" on="1"/>
        <pt x="611" y="388" on="0"/>
        <pt x="609" y="329" on="0"/>
        <pt x="605" y="300" on="1"/>
      </contour>
      <contour>
        <pt x="611" y="698" on="1"/>
        <pt x="611" y="535" on="1"/>
        <pt x="810" y="535" on="1"/>
        <pt x="810" y="698" on="1"/>
      </contour>
      <contour>
        <pt x="956" y="535" on="1"/>
        <pt x="956" y="466" on="1"/>
        <pt x="882" y="466" on="1"/>
        <pt x="882" y="179" on="1"/>
        <pt x="810" y="179" on="1"/>
        <pt x="810" y="231" on="1"/>
        <pt x="593" y="231" on="1"/>
        <pt x="580" y="172" on="0"/>
        <pt x="522" y="60" on="0"/>
        <pt x="420" y="-39" on="0"/>
        <pt x="339" y="-79" on="1"/>
        <pt x="332" y="-67" on="0"/>
        <pt x="303" y="-33" on="0"/>
        <pt x="290" y="-22" on="1"/>
        <pt x="397" y="25" on="0"/>
        <pt x="500" y="158" on="0"/>
        <pt x="519" y="231" on="1"/>
        <pt x="348" y="231" on="1"/>
        <pt x="348" y="300" on="1"/>
        <pt x="532" y="300" on="1"/>
        <pt x="536" y="330" on="0"/>
        <pt x="538" y="388" on="0"/>
        <pt x="538" y="416" on="1"/>
        <pt x="538" y="466" on="1"/>
        <pt x="292" y="466" on="1"/>
        <pt x="292" y="535" on="1"/>
        <pt x="538" y="535" on="1"/>
        <pt x="538" y="698" on="1"/>
        <pt x="362" y="698" on="1"/>
        <pt x="362" y="768" on="1"/>
        <pt x="882" y="768" on="1"/>
        <pt x="882" y="535" on="1"/>
      </contour>
    </TTGlyph>
    <TTGlyph name="cid01168" xMin="23" yMin="-73" xMax="961" yMax="834">
      <contour>
        <pt x="329" y="641" on="1"/>
        <pt x="588" y="641" on="1"/>
        <pt x="588" y="825" on="1"/>
        <pt x="663" y="825" on="1"/>
        <pt x="663" y="641" on="1"/>
        <pt x="936" y="641" on="1"/>
        <pt x="936" y="571" on="1"/>
        <pt x="329" y="571" on="1"/>
      </contour>
      <contour>
        <pt x="559" y="103" on="1"/>
        <pt x="486" y="87" on="1"/>
        <pt x="483" y="137" on="0"/>
        <pt x="461" y="276" on="0"/>
        <pt x="430" y="426" on="0"/>
        <pt x="412" y="492" on="1"/>
        <pt x="478" y="504" on="1"/>
        <pt x="497" y="438" on="0"/>
        <pt x="531" y="290" on="0"/>
        <pt x="555" y="153" on="0"/>
      </contour>
      <contour>
        <pt x="279" y="834" on="1"/>
        <pt x="348" y="812" on="1"/>
        <pt x="327" y="760" on="0"/>
        <pt x="275" y="656" on="0"/>
        <pt x="246" y="606" on="1"/>
        <pt x="246" y="-73" on="1"/>
        <pt x="176" y="-73" on="1"/>
        <pt x="176" y="499" on="1"/>
        <pt x="150" y="463" on="0"/>
        <pt x="95" y="397" on="0"/>
        <pt x="66" y="369" on="1"/>
        <pt x="60" y="382" on="0"/>
        <pt x="33" y="429" on="0"/>
        <pt x="23" y="442" on="1"/>
        <pt x="74" y="489" on="0"/>
        <pt x="169" y="614" on="0"/>
        <pt x="250" y="759" on="0"/>
      </contour>
      <contour>
        <pt x="722" y="40" on="1"/>
        <pt x="961" y="40" on="1"/>
        <pt x="961" y="-30" on="1"/>
        <pt x="305" y="-30" on="1"/>
        <pt x="305" y="40" on="1"/>
        <pt x="650" y="40" on="1"/>
        <pt x="667" y="87" on="0"/>
        <pt x="703" y="205" on="0"/>
        <pt x="736" y="333" on="0"/>
        <pt x="764" y="459" on="0"/>
        <pt x="774" y="513" on="1"/>
        <pt x="854" y="499" on="1"/>
        <pt x="837" y="425" on="0"/>
        <pt x="793" y="260" on="0"/>
        <pt x="745" y="102" on="0"/>
      </contour>
    </TTGlyph>
    <TTGlyph name="cid01169" xMin="18" yMin="-73" xMax="977" yMax="834">
      <contour>
        <pt x="271" y="834" on="1"/>
        <pt x="340" y="813" on="1"/>
        <pt x="297" y="703" on="0"/>
        <pt x="237" y="602" on="1"/>
        <pt x="237" y="-73" on="1"/>
        <pt x="167" y="-73" on="1"/>
        <pt x="167" y="495" on="1"/>
        <pt x="115" y="423" on="0"/>
        <pt x="61" y="369" on="1"/>
        <pt x="55" y="382" on="0"/>
        <pt x="29" y="429" on="0"/>
        <pt x="18" y="442" on="1"/>
        <pt x="68" y="489" on="0"/>
        <pt x="162" y="615" on="0"/>
        <pt x="242" y="759" on="0"/>
      </contour>
      <contour>
        <pt x="899" y="489" on="1"/>
        <pt x="954" y="437" on="1"/>
        <pt x="908" y="397" on="0"/>
        <pt x="798" y="314" on="0"/>
        <pt x="749" y="282" on="1"/>
        <pt x="788" y="186" on="0"/>
        <pt x="901" y="38" on="0"/>
        <pt x="977" y="-4" on="1"/>
        <pt x="964" y="-14" on="0"/>
        <pt x="933" y="-51" on="0"/>
        <pt x="924" y="-66" on="1"/>
        <pt x="836" y="-13" on="0"/>
        <pt x="713" y="166" on="0"/>
        <pt x="633" y="402" on="0"/>
        <pt x="608" y="539" on="1"/>
        <pt x="582" y="500" on="0"/>
        <pt x="521" y="427" on="0"/>
        <pt x="487" y="393" on="1"/>
        <pt x="487" y="52" on="1"/>
        <pt x="542" y="64" on="0"/>
        <pt x="657" y="91" on="0"/>
        <pt x="715" y="104" on="1"/>
        <pt x="721" y="36" on="1"/>
        <pt x="650" y="19" on="0"/>
        <pt x="505" y="-16" on="0"/>
        <pt x="372" y="-48" on="0"/>
        <pt x="317" y="-61" on="1"/>
        <pt x="294" y="11" on="1"/>
        <pt x="320" y="16" on="0"/>
        <pt x="383" y="30" on="0"/>
        <pt x="417" y="37" on="1"/>
        <pt x="417" y="329" on="1"/>
        <pt x="357" y="278" on="0"/>
        <pt x="294" y="239" on="1"/>
        <pt x="286" y="250" on="0"/>
        <pt x="255" y="289" on="0"/>
        <pt x="243" y="300" on="1"/>
        <pt x="333" y="350" on="0"/>
        <pt x="497" y="497" on="0"/>
        <pt x="553" y="584" on="1"/>
        <pt x="282" y="584" on="1"/>
        <pt x="282" y="654" on="1"/>
        <pt x="581" y="654" on="1"/>
        <pt x="581" y="825" on="1"/>
        <pt x="656" y="825" on="1"/>
        <pt x="656" y="654" on="1"/>
        <pt x="940" y="654" on="1"/>
        <pt x="940" y="584" on="1"/>
        <pt x="668" y="584" on="1"/>
        <pt x="679" y="520" on="0"/>
        <pt x="708" y="396" on="0"/>
        <pt x="727" y="340" on="1"/>
        <pt x="772" y="374" on="0"/>
        <pt x="867" y="455" on="0"/>
      </contour>
    </TTGlyph>
    <TTGlyph name="cid01170" xMin="21" yMin="-75" xMax="960" yMax="837">
      <contour>
        <pt x="272" y="834" on="1"/>
        <pt x="340" y="813" on="1"/>
        <pt x="318" y="758" on="0"/>
        <pt x="265" y="651" on="0"/>
        <pt x="235" y="600" on="1"/>
        <pt x="235" y="-75" on="1"/>
        <pt x="164" y="-75" on="1"/>
        <pt x="164" y="492" on="1"/>
        <pt x="116" y="426" on="0"/>
        <pt x="63" y="373" on="1"/>
        <pt x="57" y="385" on="0"/>
        <pt x="31" y="432" on="0"/>
        <pt x="21" y="445" on="1"/>
        <pt x="71" y="492" on="0"/>
        <pt x="164" y="616" on="0"/>
        <pt x="244" y="760" on="0"/>
      </contour>
      <contour>
        <pt x="486" y="91" on="1"/>
        <pt x="644" y="91" on="1"/>
        <pt x="644" y="182" on="1"/>
        <pt x="486" y="182" on="1"/>
      </contour>
      <contour>
        <pt x="445" y="450" on="1"/>
        <pt x="445" y="356" on="1"/>
        <pt x="809" y="356" on="1"/>
        <pt x="809" y="450" on="1"/>
      </contour>
      <contour>
        <pt x="717" y="182" on="1"/>
        <pt x="717" y="91" on="1"/>
        <pt x="957" y="91" on="1"/>
        <pt x="957" y="32" on="1"/>
        <pt x="717" y="32" on="1"/>
        <pt x="717" y="-75" on="1"/>
        <pt x="644" y="-75" on="1"/>
        <pt x="644" y="32" on="1"/>
        <pt x="296" y="32" on="1"/>
        <pt x="296" y="91" on="1"/>
        <pt x="415" y="91" on="1"/>
        <pt x="415" y="182" on="1"/>
        <pt x="328" y="182" on="1"/>
        <pt x="328" y="240" on="1"/>
        <pt x="644" y="240" on="1"/>
        <pt x="644" y="300" on="1"/>
        <pt x="376" y="300" on="1"/>
        <pt x="376" y="506" on="1"/>
        <pt x="881" y="506" on="1"/>
        <pt x="881" y="300" on="1"/>
        <pt x="717" y="300" on="1"/>
        <pt x="717" y="240" on="1"/>
        <pt x="936" y="240" on="1"/>
        <pt x="936" y="182" on="1"/>
      </contour>
      <contour>
        <pt x="788" y="703" on="1"/>
        <pt x="597" y="703" on="1"/>
        <pt x="592" y="680" on="0"/>
        <pt x="580" y="636" on="0"/>
        <pt x="575" y="616" on="1"/>
        <pt x="788" y="616" on="1"/>
      </contour>
      <contour>
        <pt x="860" y="616" on="1"/>
        <pt x="960" y="616" on="1"/>
        <pt x="960" y="555" on="1"/>
        <pt x="292" y="555" on="1"/>
        <pt x="292" y="616" on="1"/>
        <pt x="501" y="616" on="1"/>
        <pt x="512" y="657" on="0"/>
        <pt x="522" y="703" on="1"/>
        <pt x="366" y="703" on="1"/>
        <pt x="366" y="762" on="1"/>
        <pt x="535" y="762" on="1"/>
        <pt x="540" y="782" on="0"/>
        <pt x="547" y="819" on="0"/>
        <pt x="551" y="837" on="1"/>
        <pt x="624" y="829" on="1"/>
        <pt x="621" y="813" on="0"/>
        <pt x="614" y="779" on="0"/>
        <pt x="610" y="762" on="1"/>
        <pt x="860" y="762" on="1"/>
      </contour>
    </TTGlyph>
    <TTGlyph name="cid01171" xMin="87" yMin="-78" xMax="915" yMax="790">
      <contour>
        <pt x="423" y="354" on="1"/>
        <pt x="586" y="354" on="1"/>
        <pt x="586" y="488" on="1"/>
        <pt x="425" y="488" on="1"/>
        <pt x="425" y="417" on="1"/>
        <pt x="425" y="401" on="0"/>
        <pt x="425" y="370" on="0"/>
      </contour>
      <contour>
        <pt x="788" y="354" on="1"/>
        <pt x="788" y="291" on="1"/>
        <pt x="652" y="291" on="1"/>
        <pt x="652" y="85" on="1"/>
        <pt x="586" y="85" on="1"/>
        <pt x="586" y="291" on="1"/>
        <pt x="416" y="291" on="1"/>
        <pt x="405" y="227" on="0"/>
        <pt x="341" y="116" on="0"/>
        <pt x="273" y="72" on="1"/>
        <pt x="266" y="83" on="0"/>
        <pt x="237" y="112" on="0"/>
        <pt x="226" y="120" on="1"/>
        <pt x="281" y="155" on="0"/>
        <pt x="337" y="242" on="0"/>
        <pt x="348" y="291" on="1"/>
        <pt x="217" y="291" on="1"/>
        <pt x="217" y="354" on="1"/>
        <pt x="358" y="354" on="1"/>
        <pt x="359" y="370" on="0"/>
        <pt x="360" y="402" on="0"/>
        <pt x="360" y="418" on="1"/>
        <pt x="360" y="488" on="1"/>
        <pt x="228" y="488" on="1"/>
        <pt x="228" y="550" on="1"/>
        <pt x="360" y="550" on="1"/>
        <pt x="360" y="674" on="1"/>
        <pt x="425" y="674" on="1"/>
        <pt x="425" y="550" on="1"/>
        <pt x="586" y="550" on="1"/>
        <pt x="586" y="674" on="1"/>
        <pt x="652" y="674" on="1"/>
        <pt x="652" y="550" on="1"/>
        <pt x="785" y="550" on="1"/>
        <pt x="785" y="488" on="1"/>
        <pt x="652" y="488" on="1"/>
        <pt x="652" y="354" on="1"/>
      </contour>
      <contour>
        <pt x="161" y="37" on="1"/>
        <pt x="839" y="37" on="1"/>
        <pt x="839" y="720" on="1"/>
        <pt x="161" y="720" on="1"/>
      </contour>
      <contour>
        <pt x="87" y="790" on="1"/>
        <pt x="915" y="790" on="1"/>
        <pt x="915" y="-78" on="1"/>
        <pt x="839" y="-78" on="1"/>
        <pt x="839" y="-31" on="1"/>
        <pt x="161" y="-31" on="1"/>
        <pt x="161" y="-78" on="1"/>
        <pt x="87" y="-78" on="1"/>
      </contour>
    </TTGlyph>
    <TTGlyph name="cid01172" xMin="48" yMin="-78" xMax="964" yMax="835">
      <contour>
        <pt x="193" y="303" on="1"/>
        <pt x="451" y="303" on="1"/>
        <pt x="456" y="341" on="0"/>
        <pt x="457" y="381" on="1"/>
        <pt x="212" y="381" on="1"/>
        <pt x="208" y="362" on="0"/>
        <pt x="198" y="322" on="0"/>
      </contour>
      <contour>
        <pt x="531" y="534" on="1"/>
        <pt x="531" y="442" on="1"/>
        <pt x="786" y="442" on="1"/>
        <pt x="786" y="534" on="1"/>
      </contour>
      <contour>
        <pt x="848" y="239" on="1"/>
        <pt x="556" y="239" on="1"/>
        <pt x="600" y="127" on="0"/>
        <pt x="798" y="6" on="0"/>
        <pt x="964" y="-11" on="1"/>
        <pt x="952" y="-22" on="0"/>
        <pt x="927" y="-62" on="0"/>
        <pt x="920" y="-78" on="1"/>
        <pt x="754" y="-55" on="0"/>
        <pt x="553" y="79" on="0"/>
        <pt x="500" y="201" on="1"/>
        <pt x="478" y="142" on="0"/>
        <pt x="383" y="38" on="0"/>
        <pt x="219" y="-47" on="0"/>
        <pt x="91" y="-78" on="1"/>
        <pt x="85" y="-65" on="0"/>
        <pt x="59" y="-26" on="0"/>
        <pt x="48" y="-14" on="1"/>
        <pt x="176" y="14" on="0"/>
        <pt x="334" y="91" on="0"/>
        <pt x="418" y="186" on="0"/>
        <pt x="436" y="239" on="1"/>
        <pt x="177" y="239" on="1"/>
        <pt x="167" y="202" on="1"/>
        <pt x="93" y="207" on="1"/>
        <pt x="109" y="254" on="0"/>
        <pt x="141" y="385" on="0"/>
        <pt x="153" y="442" on="1"/>
        <pt x="457" y="442" on="1"/>
        <pt x="457" y="534" on="1"/>
        <pt x="119" y="534" on="1"/>
        <pt x="119" y="595" on="1"/>
        <pt x="457" y="595" on="1"/>
        <pt x="457" y="672" on="1"/>
        <pt x="64" y="672" on="1"/>
        <pt x="64" y="740" on="1"/>
        <pt x="457" y="740" on="1"/>
        <pt x="457" y="835" on="1"/>
        <pt x="531" y="835" on="1"/>
        <pt x="531" y="740" on="1"/>
        <pt x="938" y="740" on="1"/>
        <pt x="938" y="672" on="1"/>
        <pt x="531" y="672" on="1"/>
        <pt x="531" y="595" on="1"/>
        <pt x="859" y="595" on="1"/>
        <pt x="859" y="381" on="1"/>
        <pt x="531" y="381" on="1"/>
        <pt x="530" y="342" on="0"/>
        <pt x="525" y="303" on="1"/>
        <pt x="927" y="303" on="1"/>
        <pt x="927" y="303" on="0"/>
        <pt x="926" y="282" on="0"/>
        <pt x="924" y="274" on="1"/>
        <pt x="915" y="188" on="0"/>
        <pt x="894" y="104" on="0"/>
        <pt x="877" y="88" on="1"/>
        <pt x="867" y="78" on="0"/>
        <pt x="841" y="70" on="0"/>
        <pt x="823" y="68" on="1"/>
        <pt x="809" y="67" on="0"/>
        <pt x="756" y="68" on="0"/>
        <pt x="724" y="69" on="1"/>
        <pt x="723" y="82" on="0"/>
        <pt x="716" y="116" on="0"/>
        <pt x="708" y="129" on="1"/>
        <pt x="736" y="125" on="0"/>
        <pt x="781" y="124" on="0"/>
        <pt x="791" y="124" on="1"/>
        <pt x="812" y="124" on="0"/>
        <pt x="819" y="131" on="1"/>
        <pt x="827" y="139" on="0"/>
        <pt x="842" y="190" on="0"/>
      </contour>
    </TTGlyph>
    <TTGlyph name="cid01173" xMin="39" yMin="-77" xMax="959" yMax="835">
      <contour>
        <pt x="660" y="232" on="1"/>
        <pt x="366" y="232" on="1"/>
        <pt x="352" y="211" on="0"/>
        <pt x="323" y="170" on="0"/>
        <pt x="309" y="150" on="1"/>
        <pt x="367" y="140" on="0"/>
        <pt x="483" y="115" on="0"/>
        <pt x="538" y="101" on="1"/>
        <pt x="617" y="152" on="0"/>
      </contour>
      <contour>
        <pt x="462" y="371" on="1"/>
        <pt x="462" y="377" on="1"/>
        <pt x="450" y="358" on="0"/>
        <pt x="423" y="317" on="0"/>
        <pt x="409" y="296" on="1"/>
        <pt x="951" y="296" on="1"/>
        <pt x="951" y="232" on="1"/>
        <pt x="743" y="232" on="1"/>
        <pt x="701" y="140" on="0"/>
        <pt x="627" y="79" on="1"/>
        <pt x="713" y="56" on="0"/>
        <pt x="863" y="8" on="0"/>
        <pt x="921" y="-15" on="1"/>
        <pt x="876" y="-76" on="1"/>
        <pt x="813" y="-50" on="0"/>
        <pt x="648" y="5" on="0"/>
        <pt x="553" y="30" on="1"/>
        <pt x="470" y="-15" on="0"/>
        <pt x="242" y="-65" on="0"/>
        <pt x="93" y="-77" on="1"/>
        <pt x="89" y="-61" on="0"/>
        <pt x="74" y="-24" on="0"/>
        <pt x="64" y="-11" on="1"/>
        <pt x="184" y="-4" on="0"/>
        <pt x="375" y="28" on="0"/>
        <pt x="448" y="56" on="1"/>
        <pt x="405" y="67" on="0"/>
        <pt x="315" y="86" on="0"/>
        <pt x="269" y="95" on="1"/>
        <pt x="248" y="67" on="1"/>
        <pt x="179" y="91" on="1"/>
        <pt x="201" y="120" on="0"/>
        <pt x="253" y="193" on="0"/>
        <pt x="280" y="232" on="1"/>
        <pt x="50" y="232" on="1"/>
        <pt x="50" y="296" on="1"/>
        <pt x="323" y="296" on="1"/>
        <pt x="342" y="324" on="0"/>
        <pt x="376" y="377" on="0"/>
        <pt x="391" y="402" on="1"/>
        <pt x="462" y="383" on="1"/>
        <pt x="462" y="566" on="1"/>
        <pt x="416" y="517" on="0"/>
        <pt x="291" y="429" on="0"/>
        <pt x="152" y="360" on="0"/>
        <pt x="85" y="339" on="1"/>
        <pt x="78" y="353" on="0"/>
        <pt x="50" y="387" on="0"/>
        <pt x="39" y="397" on="1"/>
        <pt x="99" y="413" on="0"/>
        <pt x="221" y="466" on="0"/>
        <pt x="334" y="533" on="0"/>
        <pt x="378" y="571" on="1"/>
        <pt x="61" y="571" on="1"/>
        <pt x="61" y="632" on="1"/>
        <pt x="462" y="632" on="1"/>
        <pt x="462" y="732" on="1"/>
        <pt x="383" y="726" on="0"/>
        <pt x="221" y="719" on="0"/>
        <pt x="146" y="717" on="1"/>
        <pt x="145" y="729" on="0"/>
        <pt x="135" y="764" on="0"/>
        <pt x="130" y="775" on="1"/>
        <pt x="216" y="777" on="0"/>
        <pt x="399" y="787" on="0"/>
        <pt x="575" y="802" on="0"/>
        <pt x="728" y="823" on="0"/>
        <pt x="783" y="835" on="1"/>
        <pt x="838" y="782" on="1"/>
        <pt x="776" y="768" on="0"/>
        <pt x="620" y="746" on="0"/>
        <pt x="534" y="738" on="1"/>
        <pt x="534" y="632" on="1"/>
        <pt x="938" y="632" on="1"/>
        <pt x="938" y="571" on="1"/>
        <pt x="621" y="571" on="1"/>
        <pt x="665" y="535" on="0"/>
        <pt x="777" y="472" on="0"/>
        <pt x="900" y="423" on="0"/>
        <pt x="959" y="408" on="1"/>
        <pt x="947" y="396" on="0"/>
        <pt x="919" y="360" on="0"/>
        <pt x="912" y="346" on="1"/>
        <pt x="845" y="367" on="0"/>
        <pt x="706" y="433" on="0"/>
        <pt x="581" y="518" on="0"/>
        <pt x="534" y="566" on="1"/>
        <pt x="534" y="371" on="1"/>
      </contour>
    </TTGlyph>
    <TTGlyph name="cid01174" xMin="34" yMin="-78" xMax="965" yMax="839">
      <contour>
        <pt x="919" y="745" on="1"/>
        <pt x="876" y="697" on="1"/>
        <pt x="854" y="719" on="0"/>
        <pt x="774" y="776" on="0"/>
        <pt x="737" y="797" on="1"/>
        <pt x="778" y="839" on="1"/>
        <pt x="815" y="820" on="0"/>
        <pt x="897" y="767" on="0"/>
      </contour>
      <contour>
        <pt x="487" y="329" on="1"/>
        <pt x="368" y="329" on="1"/>
        <pt x="357" y="297" on="0"/>
        <pt x="334" y="233" on="0"/>
        <pt x="323" y="204" on="1"/>
        <pt x="349" y="191" on="0"/>
        <pt x="403" y="161" on="0"/>
        <pt x="428" y="145" on="1"/>
        <pt x="453" y="186" on="0"/>
        <pt x="480" y="280" on="0"/>
      </contour>
      <contour>
        <pt x="550" y="57" on="1"/>
        <pt x="515" y="-1" on="1"/>
        <pt x="502" y="12" on="0"/>
        <pt x="465" y="42" on="0"/>
        <pt x="443" y="57" on="1"/>
        <pt x="409" y="17" on="0"/>
        <pt x="309" y="-50" on="0"/>
        <pt x="240" y="-74" on="1"/>
        <pt x="235" y="-63" on="0"/>
        <pt x="213" y="-32" on="0"/>
        <pt x="202" y="-23" on="1"/>
        <pt x="267" y="-3" on="0"/>
        <pt x="359" y="56" on="0"/>
        <pt x="391" y="92" on="1"/>
        <pt x="369" y="107" on="0"/>
        <pt x="323" y="134" on="0"/>
        <pt x="301" y="146" on="1"/>
        <pt x="289" y="117" on="1"/>
        <pt x="235" y="146" on="1"/>
        <pt x="250" y="182" on="0"/>
        <pt x="285" y="278" on="0"/>
        <pt x="303" y="329" on="1"/>
        <pt x="219" y="329" on="1"/>
        <pt x="219" y="390" on="1"/>
        <pt x="323" y="390" on="1"/>
        <pt x="331" y="416" on="0"/>
        <pt x="346" y="465" on="0"/>
        <pt x="353" y="487" on="1"/>
        <pt x="235" y="487" on="1"/>
        <pt x="235" y="547" on="1"/>
        <pt x="592" y="547" on="1"/>
        <pt x="592" y="487" on="1"/>
        <pt x="420" y="487" on="1"/>
        <pt x="413" y="464" on="0"/>
        <pt x="397" y="415" on="0"/>
        <pt x="388" y="390" on="1"/>
        <pt x="611" y="390" on="1"/>
        <pt x="611" y="329" on="1"/>
        <pt x="552" y="329" on="1"/>
        <pt x="542" y="270" on="0"/>
        <pt x="510" y="160" on="0"/>
        <pt x="481" y="111" on="1"/>
        <pt x="501" y="97" on="0"/>
        <pt x="537" y="70" on="0"/>
      </contour>
      <contour>
        <pt x="840" y="531" on="1"/>
        <pt x="911" y="521" on="1"/>
        <pt x="887" y="407" on="0"/>
        <pt x="814" y="216" on="0"/>
        <pt x="763" y="138" on="1"/>
        <pt x="784" y="71" on="0"/>
        <pt x="836" y="-5" on="0"/>
        <pt x="866" y="-5" on="1"/>
        <pt x="883" y="-5" on="0"/>
        <pt x="901" y="79" on="0"/>
        <pt x="905" y="174" on="1"/>
        <pt x="916" y="162" on="0"/>
        <pt x="951" y="139" on="0"/>
        <pt x="965" y="133" on="1"/>
        <pt x="959" y="52" on="0"/>
        <pt x="936" y="-40" on="0"/>
        <pt x="893" y="-78" on="0"/>
        <pt x="858" y="-78" on="1"/>
        <pt x="810" y="-78" on="0"/>
        <pt x="737" y="-1" on="0"/>
        <pt x="710" y="66" on="1"/>
        <pt x="675" y="25" on="0"/>
        <pt x="594" y="-47" on="0"/>
        <pt x="547" y="-77" on="1"/>
        <pt x="539" y="-67" on="0"/>
        <pt x="506" y="-32" on="0"/>
        <pt x="494" y="-22" on="1"/>
        <pt x="551" y="10" on="0"/>
        <pt x="646" y="95" on="0"/>
        <pt x="684" y="147" on="1"/>
        <pt x="659" y="240" on="0"/>
        <pt x="630" y="485" on="0"/>
        <pt x="625" y="624" on="1"/>
        <pt x="188" y="624" on="1"/>
        <pt x="188" y="408" on="1"/>
        <pt x="188" y="354" on="0"/>
        <pt x="181" y="229" on="0"/>
        <pt x="161" y="98" on="0"/>
        <pt x="123" y="-25" on="0"/>
        <pt x="91" y="-76" on="1"/>
        <pt x="83" y="-66" on="0"/>
        <pt x="46" y="-37" on="0"/>
        <pt x="34" y="-32" on="1"/>
        <pt x="73" y="32" on="0"/>
        <pt x="109" y="186" on="0"/>
        <pt x="119" y="342" on="0"/>
        <pt x="119" y="408" on="1"/>
        <pt x="119" y="692" on="1"/>
        <pt x="622" y="692" on="1"/>
        <pt x="621" y="727" on="0"/>
        <pt x="620" y="799" on="0"/>
        <pt x="620" y="835" on="1"/>
        <pt x="694" y="835" on="1"/>
        <pt x="694" y="798" on="0"/>
        <pt x="694" y="727" on="0"/>
        <pt x="695" y="692" on="1"/>
        <pt x="945" y="692" on="1"/>
        <pt x="945" y="624" on="1"/>
        <pt x="697" y="624" on="1"/>
        <pt x="702" y="511" on="0"/>
        <pt x="723" y="313" on="0"/>
        <pt x="739" y="234" on="1"/>
        <pt x="774" y="298" on="0"/>
        <pt x="824" y="447" on="0"/>
      </contour>
    </TTGlyph>
    <TTGlyph name="cid01175" xMin="33" yMin="-76" xMax="958" yMax="830">
      <contour>
        <pt x="481" y="730" on="1"/>
        <pt x="174" y="730" on="1"/>
        <pt x="174" y="610" on="1"/>
        <pt x="481" y="610" on="1"/>
      </contour>
      <contour>
        <pt x="174" y="545" on="1"/>
        <pt x="174" y="444" on="1"/>
        <pt x="174" y="389" on="0"/>
        <pt x="168" y="261" on="0"/>
        <pt x="152" y="128" on="0"/>
        <pt x="119" y="3" on="0"/>
        <pt x="92" y="-48" on="1"/>
        <pt x="83" y="-39" on="0"/>
        <pt x="46" y="-16" on="0"/>
        <pt x="33" y="-11" on="1"/>
        <pt x="67" y="55" on="0"/>
        <pt x="97" y="213" on="0"/>
        <pt x="106" y="374" on="0"/>
        <pt x="106" y="443" on="1"/>
        <pt x="106" y="795" on="1"/>
        <pt x="550" y="795" on="1"/>
        <pt x="550" y="545" on="1"/>
      </contour>
      <contour>
        <pt x="528" y="413" on="1"/>
        <pt x="217" y="413" on="1"/>
        <pt x="217" y="475" on="1"/>
        <pt x="528" y="475" on="1"/>
      </contour>
      <contour>
        <pt x="231" y="212" on="1"/>
        <pt x="290" y="200" on="1"/>
        <pt x="276" y="145" on="0"/>
        <pt x="227" y="38" on="0"/>
        <pt x="198" y="1" on="1"/>
        <pt x="190" y="8" on="0"/>
        <pt x="157" y="28" on="0"/>
        <pt x="146" y="32" on="1"/>
        <pt x="176" y="67" on="0"/>
        <pt x="219" y="161" on="0"/>
      </contour>
      <contour>
        <pt x="564" y="267" on="1"/>
        <pt x="408" y="267" on="1"/>
        <pt x="408" y="-7" on="1"/>
        <pt x="408" y="-31" on="0"/>
        <pt x="396" y="-58" on="0"/>
        <pt x="378" y="-66" on="1"/>
        <pt x="362" y="-73" on="0"/>
        <pt x="306" y="-76" on="0"/>
        <pt x="264" y="-76" on="1"/>
        <pt x="263" y="-63" on="0"/>
        <pt x="250" y="-30" on="0"/>
        <pt x="244" y="-17" on="1"/>
        <pt x="273" y="-18" on="0"/>
        <pt x="322" y="-18" on="0"/>
        <pt x="329" y="-18" on="1"/>
        <pt x="343" y="-18" on="0"/>
        <pt x="343" y="-6" on="1"/>
        <pt x="343" y="267" on="1"/>
        <pt x="181" y="267" on="1"/>
        <pt x="181" y="331" on="1"/>
        <pt x="564" y="331" on="1"/>
      </contour>
      <contour>
        <pt x="458" y="196" on="1"/>
        <pt x="513" y="217" on="1"/>
        <pt x="538" y="175" on="0"/>
        <pt x="582" y="75" on="0"/>
        <pt x="591" y="40" on="1"/>
        <pt x="532" y="16" on="1"/>
        <pt x="524" y="52" on="0"/>
        <pt x="482" y="153" on="0"/>
      </contour>
      <contour>
        <pt x="743" y="211" on="1"/>
        <pt x="676" y="186" on="1"/>
        <pt x="672" y="217" on="0"/>
        <pt x="645" y="296" on="0"/>
        <pt x="609" y="379" on="0"/>
        <pt x="588" y="415" on="1"/>
        <pt x="651" y="436" on="1"/>
        <pt x="672" y="401" on="0"/>
        <pt x="710" y="319" on="0"/>
        <pt x="738" y="242" on="0"/>
      </contour>
      <contour>
        <pt x="958" y="602" on="1"/>
        <pt x="958" y="532" on="1"/>
        <pt x="866" y="532" on="1"/>
        <pt x="866" y="18" on="1"/>
        <pt x="866" y="-16" on="0"/>
        <pt x="848" y="-52" on="0"/>
        <pt x="825" y="-60" on="1"/>
        <pt x="804" y="-69" on="0"/>
        <pt x="731" y="-74" on="0"/>
        <pt x="672" y="-74" on="1"/>
        <pt x="670" y="-60" on="0"/>
        <pt x="654" y="-18" on="0"/>
        <pt x="646" y="-4" on="1"/>
        <pt x="690" y="-5" on="0"/>
        <pt x="760" y="-6" on="0"/>
        <pt x="771" y="-6" on="1"/>
        <pt x="784" y="-5" on="0"/>
        <pt x="794" y="5" on="0"/>
        <pt x="794" y="18" on="1"/>
        <pt x="794" y="532" on="1"/>
        <pt x="573" y="532" on="1"/>
        <pt x="573" y="602" on="1"/>
        <pt x="794" y="602" on="1"/>
        <pt x="794" y="830" on="1"/>
        <pt x="866" y="830" on="1"/>
        <pt x="866" y="602" on="1"/>
      </contour>
    </TTGlyph>
    <TTGlyph name="cid01176" xMin="31" yMin="-75" xMax="951" yMax="838">
      <contour>
        <pt x="82" y="367" on="1"/>
        <pt x="31" y="390" on="1"/>
        <pt x="48" y="420" on="0"/>
        <pt x="70" y="506" on="0"/>
        <pt x="82" y="602" on="0"/>
        <pt x="83" y="645" on="1"/>
        <pt x="135" y="638" on="1"/>
        <pt x="135" y="593" on="0"/>
        <pt x="124" y="493" on="0"/>
        <pt x="101" y="401" on="0"/>
      </contour>
      <contour>
        <pt x="181" y="-75" on="1"/>
        <pt x="181" y="837" on="1"/>
        <pt x="252" y="837" on="1"/>
        <pt x="252" y="-75" on="1"/>
      </contour>
      <contour>
        <pt x="507" y="194" on="1"/>
        <pt x="507" y="49" on="1"/>
        <pt x="676" y="49" on="1"/>
        <pt x="676" y="194" on="1"/>
      </contour>
      <contour>
        <pt x="676" y="457" on="1"/>
        <pt x="676" y="585" on="1"/>
        <pt x="507" y="585" on="1"/>
        <pt x="507" y="457" on="1"/>
      </contour>
      <contour>
        <pt x="676" y="262" on="1"/>
        <pt x="676" y="388" on="1"/>
        <pt x="507" y="388" on="1"/>
        <pt x="507" y="262" on="1"/>
      </contour>
      <contour>
        <pt x="951" y="49" on="1"/>
        <pt x="951" y="-19" on="1"/>
        <pt x="507" y="-19" on="1"/>
        <pt x="507" y="-74" on="1"/>
        <pt x="435" y="-74" on="1"/>
        <pt x="435" y="497" on="1"/>
        <pt x="419" y="475" on="0"/>
        <pt x="387" y="434" on="0"/>
        <pt x="370" y="416" on="1"/>
        <pt x="360" y="425" on="0"/>
        <pt x="321" y="454" on="0"/>
        <pt x="307" y="461" on="1"/>
        <pt x="324" y="478" on="0"/>
        <pt x="357" y="516" on="0"/>
        <pt x="372" y="536" on="1"/>
        <pt x="331" y="516" on="1"/>
        <pt x="324" y="550" on="0"/>
        <pt x="284" y="649" on="0"/>
        <pt x="262" y="690" on="1"/>
        <pt x="310" y="712" on="1"/>
        <pt x="332" y="673" on="0"/>
        <pt x="372" y="581" on="0"/>
        <pt x="380" y="547" on="1"/>
        <pt x="424" y="609" on="0"/>
        <pt x="494" y="759" on="0"/>
        <pt x="517" y="838" on="1"/>
        <pt x="589" y="821" on="1"/>
        <pt x="576" y="778" on="0"/>
        <pt x="544" y="695" on="0"/>
        <pt x="526" y="656" on="1"/>
        <pt x="682" y="656" on="1"/>
        <pt x="701" y="697" on="0"/>
        <pt x="738" y="794" on="0"/>
        <pt x="749" y="833" on="1"/>
        <pt x="827" y="812" on="1"/>
        <pt x="811" y="775" on="0"/>
        <pt x="774" y="692" on="0"/>
        <pt x="755" y="656" on="1"/>
        <pt x="941" y="656" on="1"/>
        <pt x="941" y="585" on="1"/>
        <pt x="747" y="585" on="1"/>
        <pt x="747" y="457" on="1"/>
        <pt x="917" y="457" on="1"/>
        <pt x="917" y="388" on="1"/>
        <pt x="747" y="388" on="1"/>
        <pt x="747" y="262" on="1"/>
        <pt x="917" y="262" on="1"/>
        <pt x="917" y="194" on="1"/>
        <pt x="747" y="194" on="1"/>
        <pt x="747" y="49" on="1"/>
      </contour>
    </TTGlyph>
    <TTGlyph name="cid01177" xMin="46" yMin="-67" xMax="957" yMax="837">
      <contour>
        <pt x="659" y="710" on="1"/>
        <pt x="343" y="710" on="1"/>
        <pt x="357" y="686" on="0"/>
        <pt x="381" y="631" on="0"/>
        <pt x="386" y="611" on="1"/>
        <pt x="357" y="603" on="1"/>
        <pt x="635" y="603" on="1"/>
        <pt x="610" y="610" on="1"/>
        <pt x="622" y="631" on="0"/>
        <pt x="649" y="687" on="0"/>
      </contour>
      <contour>
        <pt x="929" y="603" on="1"/>
        <pt x="929" y="542" on="1"/>
        <pt x="76" y="542" on="1"/>
        <pt x="76" y="603" on="1"/>
        <pt x="313" y="603" on="1"/>
        <pt x="307" y="625" on="0"/>
        <pt x="284" y="680" on="0"/>
        <pt x="271" y="702" on="1"/>
        <pt x="305" y="710" on="1"/>
        <pt x="121" y="710" on="1"/>
        <pt x="121" y="770" on="1"/>
        <pt x="462" y="770" on="1"/>
        <pt x="462" y="837" on="1"/>
        <pt x="535" y="837" on="1"/>
        <pt x="535" y="770" on="1"/>
        <pt x="878" y="770" on="1"/>
        <pt x="878" y="710" on="1"/>
        <pt x="700" y="710" on="1"/>
        <pt x="738" y="702" on="1"/>
        <pt x="724" y="675" on="0"/>
        <pt x="695" y="624" on="0"/>
        <pt x="681" y="603" on="1"/>
      </contour>
      <contour>
        <pt x="747" y="377" on="1"/>
        <pt x="747" y="436" on="1"/>
        <pt x="259" y="436" on="1"/>
        <pt x="259" y="377" on="1"/>
      </contour>
      <contour>
        <pt x="747" y="264" on="1"/>
        <pt x="747" y="325" on="1"/>
        <pt x="259" y="325" on="1"/>
        <pt x="259" y="264" on="1"/>
      </contour>
      <contour>
        <pt x="819" y="492" on="1"/>
        <pt x="819" y="208" on="1"/>
        <pt x="447" y="208" on="1"/>
        <pt x="491" y="189" on="0"/>
        <pt x="579" y="138" on="0"/>
        <pt x="604" y="115" on="1"/>
        <pt x="558" y="68" on="1"/>
        <pt x="541" y="84" on="0"/>
        <pt x="486" y="122" on="0"/>
        <pt x="423" y="158" on="0"/>
        <pt x="392" y="171" on="1"/>
        <pt x="430" y="208" on="1"/>
        <pt x="188" y="208" on="1"/>
        <pt x="188" y="492" on="1"/>
      </contour>
      <contour>
        <pt x="103" y="-54" on="1"/>
        <pt x="46" y="-15" on="1"/>
        <pt x="98" y="15" on="0"/>
        <pt x="168" y="109" on="0"/>
        <pt x="186" y="158" on="1"/>
        <pt x="249" y="135" on="1"/>
        <pt x="227" y="81" on="0"/>
        <pt x="159" y="-21" on="0"/>
      </contour>
      <contour>
        <pt x="432" y="-6" on="1"/>
        <pt x="608" y="-6" on="1"/>
        <pt x="630" y="-6" on="0"/>
        <pt x="651" y="7" on="0"/>
        <pt x="660" y="50" on="0"/>
        <pt x="662" y="95" on="1"/>
        <pt x="673" y="87" on="0"/>
        <pt x="712" y="74" on="0"/>
        <pt x="725" y="70" on="1"/>
        <pt x="722" y="15" on="0"/>
        <pt x="700" y="-45" on="0"/>
        <pt x="655" y="-67" on="0"/>
        <pt x="615" y="-67" on="1"/>
        <pt x="426" y="-67" on="1"/>
        <pt x="376" y="-67" on="0"/>
        <pt x="321" y="-52" on="0"/>
        <pt x="299" y="-13" on="0"/>
        <pt x="299" y="23" on="1"/>
        <pt x="299" y="151" on="1"/>
        <pt x="372" y="151" on="1"/>
        <pt x="372" y="23" on="1"/>
        <pt x="372" y="5" on="0"/>
        <pt x="393" y="-6" on="0"/>
      </contour>
      <contour>
        <pt x="722" y="132" on="1"/>
        <pt x="779" y="167" on="1"/>
        <pt x="813" y="142" on="0"/>
        <pt x="882" y="80" on="0"/>
        <pt x="940" y="17" on="0"/>
        <pt x="957" y="-10" on="1"/>
        <pt x="897" y="-47" on="1"/>
        <pt x="881" y="-20" on="0"/>
        <pt x="825" y="43" on="0"/>
        <pt x="756" y="107" on="0"/>
      </contour>
    </TTGlyph>
    <TTGlyph name="cid01178" xMin="37" yMin="-68" xMax="957" yMax="832">
      <contour>
        <pt x="770" y="290" on="1"/>
        <pt x="770" y="606" on="1"/>
        <pt x="547" y="606" on="1"/>
        <pt x="547" y="671" on="1"/>
        <pt x="770" y="671" on="1"/>
        <pt x="770" y="832" on="1"/>
        <pt x="840" y="832" on="1"/>
        <pt x="840" y="671" on="1"/>
        <pt x="949" y="671" on="1"/>
        <pt x="949" y="606" on="1"/>
        <pt x="840" y="606" on="1"/>
        <pt x="840" y="290" on="1"/>
        <pt x="840" y="262" on="0"/>
        <pt x="826" y="230" on="0"/>
        <pt x="806" y="222" on="1"/>
        <pt x="787" y="214" on="0"/>
        <pt x="723" y="209" on="0"/>
        <pt x="675" y="210" on="1"/>
        <pt x="673" y="224" on="0"/>
        <pt x="659" y="261" on="0"/>
        <pt x="651" y="275" on="1"/>
        <pt x="686" y="274" on="0"/>
        <pt x="743" y="274" on="0"/>
        <pt x="753" y="274" on="1"/>
        <pt x="764" y="275" on="0"/>
        <pt x="770" y="280" on="0"/>
      </contour>
      <contour>
        <pt x="603" y="125" on="1"/>
        <pt x="553" y="81" on="1"/>
        <pt x="538" y="99" on="0"/>
        <pt x="486" y="141" on="0"/>
        <pt x="425" y="180" on="0"/>
        <pt x="396" y="195" on="1"/>
        <pt x="443" y="236" on="1"/>
        <pt x="473" y="222" on="0"/>
        <pt x="534" y="183" on="0"/>
        <pt x="587" y="143" on="0"/>
      </contour>
      <contour>
        <pt x="552" y="287" on="1"/>
        <pt x="502" y="263" on="1"/>
        <pt x="492" y="288" on="0"/>
        <pt x="448" y="354" on="0"/>
        <pt x="425" y="380" on="1"/>
        <pt x="473" y="401" on="1"/>
        <pt x="496" y="376" on="0"/>
        <pt x="542" y="312" on="0"/>
      </contour>
      <contour>
        <pt x="726" y="391" on="1"/>
        <pt x="666" y="365" on="1"/>
        <pt x="656" y="400" on="0"/>
        <pt x="603" y="492" on="0"/>
        <pt x="573" y="530" on="1"/>
        <pt x="629" y="554" on="1"/>
        <pt x="661" y="517" on="0"/>
        <pt x="716" y="426" on="0"/>
      </contour>
      <contour>
        <pt x="103" y="-51" on="1"/>
        <pt x="44" y="-10" on="1"/>
        <pt x="95" y="19" on="0"/>
        <pt x="164" y="112" on="0"/>
        <pt x="181" y="163" on="1"/>
        <pt x="245" y="139" on="1"/>
        <pt x="226" y="84" on="0"/>
        <pt x="159" y="-19" on="0"/>
      </contour>
      <contour>
        <pt x="222" y="398" on="1"/>
        <pt x="274" y="385" on="1"/>
        <pt x="259" y="348" on="0"/>
        <pt x="211" y="274" on="0"/>
        <pt x="184" y="248" on="1"/>
        <pt x="178" y="255" on="0"/>
        <pt x="151" y="274" on="0"/>
        <pt x="140" y="279" on="1"/>
        <pt x="167" y="303" on="0"/>
        <pt x="209" y="365" on="0"/>
      </contour>
      <contour>
        <pt x="449" y="752" on="1"/>
        <pt x="180" y="752" on="1"/>
        <pt x="180" y="681" on="1"/>
        <pt x="449" y="681" on="1"/>
      </contour>
      <contour>
        <pt x="384" y="427" on="1"/>
        <pt x="384" y="273" on="1"/>
        <pt x="384" y="250" on="0"/>
        <pt x="375" y="226" on="0"/>
        <pt x="359" y="219" on="1"/>
        <pt x="343" y="212" on="0"/>
        <pt x="295" y="209" on="0"/>
        <pt x="260" y="209" on="1"/>
        <pt x="258" y="222" on="0"/>
        <pt x="246" y="251" on="0"/>
        <pt x="240" y="263" on="1"/>
        <pt x="265" y="262" on="0"/>
        <pt x="302" y="262" on="0"/>
        <pt x="309" y="262" on="1"/>
        <pt x="321" y="263" on="0"/>
        <pt x="321" y="273" on="1"/>
        <pt x="321" y="427" on="1"/>
        <pt x="169" y="427" on="1"/>
        <pt x="169" y="459" on="1"/>
        <pt x="160" y="397" on="0"/>
        <pt x="125" y="275" on="0"/>
        <pt x="93" y="225" on="1"/>
        <pt x="85" y="233" on="0"/>
        <pt x="49" y="261" on="0"/>
        <pt x="37" y="266" on="1"/>
        <pt x="71" y="321" on="0"/>
        <pt x="103" y="448" on="0"/>
        <pt x="113" y="576" on="0"/>
        <pt x="113" y="629" on="1"/>
        <pt x="113" y="804" on="1"/>
        <pt x="517" y="804" on="1"/>
        <pt x="517" y="629" on="1"/>
        <pt x="180" y="629" on="1"/>
        <pt x="180" y="628" on="1"/>
        <pt x="180" y="595" on="0"/>
        <pt x="177" y="519" on="0"/>
        <pt x="172" y="478" on="1"/>
        <pt x="549" y="478" on="1"/>
        <pt x="549" y="427" on="1"/>
      </contour>
      <contour>
        <pt x="490" y="528" on="1"/>
        <pt x="218" y="528" on="1"/>
        <pt x="218" y="578" on="1"/>
        <pt x="490" y="578" on="1"/>
      </contour>
      <contour>
        <pt x="441" y="-4" on="1"/>
        <pt x="623" y="-4" on="1"/>
        <pt x="645" y="-4" on="0"/>
        <pt x="666" y="9" on="0"/>
        <pt x="674" y="50" on="0"/>
        <pt x="676" y="92" on="1"/>
        <pt x="689" y="84" on="0"/>
        <pt x="727" y="70" on="0"/>
        <pt x="743" y="66" on="1"/>
        <pt x="738" y="12" on="0"/>
        <pt x="716" y="-46" on="0"/>
        <pt x="671" y="-68" on="0"/>
        <pt x="630" y="-68" on="1"/>
        <pt x="435" y="-68" on="1"/>
        <pt x="384" y="-68" on="0"/>
        <pt x="328" y="-53" on="0"/>
        <pt x="306" y="-12" on="0"/>
        <pt x="306" y="25" on="1"/>
        <pt x="306" y="161" on="1"/>
        <pt x="379" y="161" on="1"/>
        <pt x="379" y="26" on="1"/>
        <pt x="379" y="7" on="0"/>
        <pt x="401" y="-4" on="0"/>
      </contour>
      <contour>
        <pt x="718" y="145" on="1"/>
        <pt x="775" y="180" on="1"/>
        <pt x="812" y="155" on="0"/>
        <pt x="883" y="89" on="0"/>
        <pt x="941" y="21" on="0"/>
        <pt x="957" y="-8" on="1"/>
        <pt x="894" y="-46" on="1"/>
        <pt x="879" y="-17" on="0"/>
        <pt x="823" y="51" on="0"/>
        <pt x="754" y="118" on="0"/>
      </contour>
    </TTGlyph>
    <TTGlyph name="cid01179" xMin="42" yMin="-82" xMax="895" yMax="791">
      <contour>
        <pt x="261" y="571" on="1"/>
        <pt x="261" y="472" on="1"/>
        <pt x="752" y="472" on="1"/>
        <pt x="752" y="571" on="1"/>
      </contour>
      <contour>
        <pt x="261" y="729" on="1"/>
        <pt x="261" y="630" on="1"/>
        <pt x="752" y="630" on="1"/>
        <pt x="752" y="729" on="1"/>
      </contour>
      <contour>
        <pt x="324" y="325" on="1"/>
        <pt x="895" y="325" on="1"/>
        <pt x="895" y="325" on="0"/>
        <pt x="894" y="299" on="0"/>
        <pt x="892" y="291" on="1"/>
        <pt x="883" y="180" on="0"/>
        <pt x="862" y="41" on="0"/>
        <pt x="838" y="-33" on="0"/>
        <pt x="823" y="-49" on="1"/>
        <pt x="809" y="-64" on="0"/>
        <pt x="778" y="-76" on="0"/>
        <pt x="756" y="-77" on="1"/>
        <pt x="737" y="-78" on="0"/>
        <pt x="671" y="-78" on="0"/>
        <pt x="633" y="-76" on="1"/>
        <pt x="632" y="-61" on="0"/>
        <pt x="621" y="-24" on="0"/>
        <pt x="613" y="-11" on="1"/>
        <pt x="649" y="-15" on="0"/>
        <pt x="712" y="-16" on="0"/>
        <pt x="725" y="-16" on="1"/>
        <pt x="738" y="-16" on="0"/>
        <pt x="754" y="-12" on="0"/>
        <pt x="761" y="-5" on="1"/>
        <pt x="778" y="10" on="0"/>
        <pt x="804" y="129" on="0"/>
        <pt x="816" y="258" on="1"/>
        <pt x="694" y="258" on="1"/>
        <pt x="654" y="153" on="0"/>
        <pt x="533" y="-23" on="0"/>
        <pt x="462" y="-82" on="1"/>
        <pt x="452" y="-73" on="0"/>
        <pt x="416" y="-43" on="0"/>
        <pt x="402" y="-36" on="1"/>
        <pt x="471" y="16" on="0"/>
        <pt x="582" y="169" on="0"/>
        <pt x="618" y="258" on="1"/>
        <pt x="483" y="258" on="1"/>
        <pt x="428" y="161" on="0"/>
        <pt x="269" y="-1" on="0"/>
        <pt x="183" y="-56" on="1"/>
        <pt x="174" y="-46" on="0"/>
        <pt x="139" y="-13" on="0"/>
        <pt x="126" y="-3" on="1"/>
        <pt x="206" y="42" on="0"/>
        <pt x="352" y="178" on="0"/>
        <pt x="401" y="258" on="1"/>
        <pt x="262" y="258" on="1"/>
        <pt x="184" y="180" on="0"/>
        <pt x="100" y="128" on="1"/>
        <pt x="91" y="139" on="0"/>
        <pt x="56" y="171" on="0"/>
        <pt x="42" y="180" on="1"/>
        <pt x="115" y="221" on="0"/>
        <pt x="251" y="340" on="0"/>
        <pt x="298" y="409" on="1"/>
        <pt x="188" y="409" on="1"/>
        <pt x="188" y="791" on="1"/>
        <pt x="827" y="791" on="1"/>
        <pt x="827" y="409" on="1"/>
        <pt x="384" y="409" on="1"/>
        <pt x="371" y="387" on="0"/>
        <pt x="340" y="345" on="0"/>
      </contour>
    </TTGlyph>
    <TTGlyph name="cid01180" xMin="36" yMin="-77" xMax="954" yMax="837">
      <contour>
        <pt x="257" y="575" on="1"/>
        <pt x="257" y="532" on="1"/>
        <pt x="267" y="518" on="0"/>
        <pt x="300" y="468" on="0"/>
        <pt x="335" y="412" on="0"/>
        <pt x="364" y="366" on="0"/>
        <pt x="370" y="355" on="1"/>
        <pt x="323" y="301" on="1"/>
        <pt x="313" y="324" on="0"/>
        <pt x="276" y="398" on="0"/>
        <pt x="257" y="434" on="1"/>
        <pt x="257" y="-76" on="1"/>
        <pt x="189" y="-76" on="1"/>
        <pt x="189" y="408" on="1"/>
        <pt x="166" y="326" on="0"/>
        <pt x="107" y="176" on="0"/>
        <pt x="75" y="126" on="1"/>
        <pt x="68" y="142" on="0"/>
        <pt x="46" y="185" on="0"/>
        <pt x="36" y="198" on="1"/>
        <pt x="65" y="240" on="0"/>
        <pt x="120" y="365" on="0"/>
        <pt x="166" y="507" on="0"/>
        <pt x="179" y="575" on="1"/>
        <pt x="52" y="575" on="1"/>
        <pt x="52" y="645" on="1"/>
        <pt x="189" y="645" on="1"/>
        <pt x="189" y="837" on="1"/>
        <pt x="257" y="837" on="1"/>
        <pt x="257" y="645" on="1"/>
        <pt x="367" y="645" on="1"/>
        <pt x="367" y="575" on="1"/>
      </contour>
      <contour>
        <pt x="649" y="277" on="1"/>
        <pt x="506" y="277" on="1"/>
        <pt x="506" y="154" on="1"/>
        <pt x="649" y="154" on="1"/>
      </contour>
      <contour>
        <pt x="714" y="98" on="1"/>
        <pt x="506" y="98" on="1"/>
        <pt x="506" y="42" on="1"/>
        <pt x="442" y="42" on="1"/>
        <pt x="442" y="332" on="1"/>
        <pt x="714" y="332" on="1"/>
      </contour>
      <contour>
        <pt x="954" y="469" on="1"/>
        <pt x="954" y="406" on="1"/>
        <pt x="880" y="406" on="1"/>
        <pt x="880" y="8" on="1"/>
        <pt x="880" y="-23" on="0"/>
        <pt x="863" y="-56" on="0"/>
        <pt x="839" y="-65" on="1"/>
        <pt x="815" y="-73" on="0"/>
        <pt x="736" y="-77" on="0"/>
        <pt x="675" y="-77" on="1"/>
        <pt x="672" y="-62" on="0"/>
        <pt x="655" y="-23" on="0"/>
        <pt x="647" y="-9" on="1"/>
        <pt x="696" y="-10" on="0"/>
        <pt x="773" y="-11" on="0"/>
        <pt x="786" y="-10" on="1"/>
        <pt x="798" y="-9" on="0"/>
        <pt x="807" y="-1" on="0"/>
        <pt x="807" y="10" on="1"/>
        <pt x="807" y="406" on="1"/>
        <pt x="376" y="406" on="1"/>
        <pt x="376" y="469" on="1"/>
        <pt x="429" y="469" on="1"/>
        <pt x="423" y="482" on="0"/>
        <pt x="401" y="513" on="0"/>
        <pt x="391" y="523" on="1"/>
        <pt x="495" y="546" on="0"/>
        <pt x="597" y="625" on="0"/>
        <pt x="618" y="687" on="1"/>
        <pt x="417" y="687" on="1"/>
        <pt x="417" y="749" on="1"/>
        <pt x="632" y="749" on="1"/>
        <pt x="636" y="769" on="0"/>
        <pt x="640" y="812" on="0"/>
        <pt x="641" y="836" on="1"/>
        <pt x="713" y="836" on="1"/>
        <pt x="712" y="813" on="0"/>
        <pt x="708" y="769" on="0"/>
        <pt x="705" y="749" on="1"/>
        <pt x="916" y="749" on="1"/>
        <pt x="916" y="687" on="1"/>
        <pt x="692" y="687" on="1"/>
        <pt x="689" y="670" on="0"/>
        <pt x="683" y="659" on="1"/>
        <pt x="724" y="638" on="0"/>
        <pt x="815" y="589" on="0"/>
        <pt x="899" y="542" on="0"/>
        <pt x="927" y="523" on="1"/>
        <pt x="878" y="472" on="1"/>
        <pt x="853" y="489" on="0"/>
        <pt x="780" y="533" on="0"/>
        <pt x="697" y="581" on="0"/>
        <pt x="657" y="603" on="1"/>
        <pt x="627" y="556" on="0"/>
        <pt x="520" y="490" on="0"/>
        <pt x="433" y="469" on="1"/>
      </contour>
    </TTGlyph>
    <TTGlyph name="cid01181" xMin="39" yMin="-77" xMax="930" yMax="837">
      <contour>
        <pt x="143" y="-66" on="1"/>
        <pt x="85" y="-28" on="1"/>
        <pt x="131" y="7" on="0"/>
        <pt x="188" y="120" on="0"/>
        <pt x="201" y="178" on="1"/>
        <pt x="264" y="158" on="1"/>
        <pt x="248" y="96" on="0"/>
        <pt x="193" y="-27" on="0"/>
      </contour>
      <contour>
        <pt x="330" y="149" on="1"/>
        <pt x="391" y="157" on="1"/>
        <pt x="405" y="114" on="0"/>
        <pt x="420" y="11" on="0"/>
        <pt x="420" y="-25" on="1"/>
        <pt x="354" y="-34" on="1"/>
        <pt x="356" y="3" on="0"/>
        <pt x="343" y="105" on="0"/>
      </contour>
      <contour>
        <pt x="482" y="160" on="1"/>
        <pt x="540" y="174" on="1"/>
        <pt x="560" y="137" on="0"/>
        <pt x="589" y="46" on="0"/>
        <pt x="596" y="13" on="1"/>
        <pt x="534" y="-3" on="1"/>
        <pt x="529" y="29" on="0"/>
        <pt x="500" y="121" on="0"/>
      </contour>
      <contour>
        <pt x="782" y="418" on="1"/>
        <pt x="428" y="418" on="1"/>
        <pt x="404" y="387" on="0"/>
        <pt x="354" y="329" on="0"/>
        <pt x="326" y="302" on="1"/>
        <pt x="761" y="302" on="1"/>
        <pt x="766" y="328" on="0"/>
        <pt x="777" y="387" on="0"/>
      </contour>
      <contour>
        <pt x="701" y="596" on="1"/>
        <pt x="542" y="596" on="1"/>
        <pt x="511" y="538" on="0"/>
        <pt x="473" y="482" on="1"/>
        <pt x="677" y="482" on="1"/>
        <pt x="684" y="507" on="0"/>
        <pt x="696" y="566" on="0"/>
      </contour>
      <contour>
        <pt x="930" y="302" on="1"/>
        <pt x="927" y="270" on="1"/>
        <pt x="918" y="167" on="0"/>
        <pt x="898" y="38" on="0"/>
        <pt x="875" y="-33" on="0"/>
        <pt x="859" y="-49" on="1"/>
        <pt x="846" y="-62" on="0"/>
        <pt x="816" y="-73" on="0"/>
        <pt x="795" y="-75" on="1"/>
        <pt x="776" y="-77" on="0"/>
        <pt x="710" y="-76" on="0"/>
        <pt x="672" y="-74" on="1"/>
        <pt x="671" y="-60" on="0"/>
        <pt x="661" y="-21" on="0"/>
        <pt x="653" y="-8" on="1"/>
        <pt x="689" y="-12" on="0"/>
        <pt x="751" y="-13" on="0"/>
        <pt x="765" y="-13" on="1"/>
        <pt x="777" y="-13" on="0"/>
        <pt x="793" y="-10" on="0"/>
        <pt x="800" y="-3" on="1"/>
        <pt x="816" y="12" on="0"/>
        <pt x="841" y="119" on="0"/>
        <pt x="853" y="236" on="1"/>
        <pt x="254" y="236" on="1"/>
        <pt x="214" y="203" on="0"/>
        <pt x="127" y="144" on="0"/>
        <pt x="79" y="118" on="1"/>
        <pt x="72" y="132" on="0"/>
        <pt x="49" y="169" on="0"/>
        <pt x="39" y="180" on="1"/>
        <pt x="178" y="252" on="0"/>
        <pt x="387" y="469" on="0"/>
        <pt x="460" y="596" on="1"/>
        <pt x="105" y="596" on="1"/>
        <pt x="105" y="662" on="1"/>
        <pt x="303" y="662" on="1"/>
        <pt x="293" y="692" on="0"/>
        <pt x="249" y="773" on="0"/>
        <pt x="226" y="807" on="1"/>
        <pt x="289" y="832" on="1"/>
        <pt x="314" y="798" on="0"/>
        <pt x="361" y="716" on="0"/>
        <pt x="371" y="686" on="1"/>
        <pt x="316" y="662" on="1"/>
        <pt x="495" y="662" on="1"/>
        <pt x="538" y="749" on="0"/>
        <pt x="566" y="837" on="1"/>
        <pt x="639" y="816" on="1"/>
        <pt x="625" y="777" on="0"/>
        <pt x="593" y="700" on="0"/>
        <pt x="575" y="662" on="1"/>
        <pt x="780" y="662" on="1"/>
        <pt x="773" y="618" on="0"/>
        <pt x="755" y="521" on="0"/>
        <pt x="746" y="482" on="1"/>
        <pt x="861" y="482" on="1"/>
        <pt x="854" y="439" on="0"/>
        <pt x="837" y="342" on="0"/>
        <pt x="829" y="302" on="1"/>
      </contour>
      <contour>
        <pt x="756" y="67" on="1"/>
        <pt x="702" y="43" on="1"/>
        <pt x="692" y="72" on="0"/>
        <pt x="651" y="148" on="0"/>
        <pt x="628" y="179" on="1"/>
        <pt x="680" y="198" on="1"/>
        <pt x="704" y="168" on="0"/>
        <pt x="746" y="93" on="0"/>
      </contour>
    </TTGlyph>
</ttFont>
